G04 #@! TF.GenerationSoftware,KiCad,Pcbnew,(5.0.1)-4*
G04 #@! TF.CreationDate,2018-11-16T16:38:59+08:00*
G04 #@! TF.ProjectId,AILight,41494C696768742E6B696361645F7063,rev?*
G04 #@! TF.SameCoordinates,Original*
G04 #@! TF.FileFunction,Legend,Top*
G04 #@! TF.FilePolarity,Positive*
%FSLAX46Y46*%
G04 Gerber Fmt 4.6, Leading zero omitted, Abs format (unit mm)*
G04 Created by KiCad (PCBNEW (5.0.1)-4) date 2018-11-16 16:38:59*
%MOMM*%
%LPD*%
G01*
G04 APERTURE LIST*
%ADD10C,0.120000*%
%ADD11C,0.150000*%
G04 APERTURE END LIST*
D10*
G04 #@! TO.C,PIR1*
X48260000Y-63941000D02*
X48260000Y-61281000D01*
X48260000Y-63941000D02*
X53400000Y-63941000D01*
X53400000Y-63941000D02*
X53400000Y-61281000D01*
X48260000Y-61281000D02*
X53400000Y-61281000D01*
X45660000Y-61281000D02*
X46990000Y-61281000D01*
X45660000Y-62611000D02*
X45660000Y-61281000D01*
G04 #@! TO.C,J4*
X43410000Y-57515000D02*
X43410000Y-73295000D01*
X43410000Y-73295000D02*
X34060000Y-73295000D01*
X34060000Y-73295000D02*
X34060000Y-57515000D01*
X34060000Y-57515000D02*
X43410000Y-57515000D01*
X33810000Y-57265000D02*
X33810000Y-59805000D01*
X33810000Y-57265000D02*
X36350000Y-57265000D01*
G04 #@! TO.C,D2*
X30388000Y-64462000D02*
X30388000Y-61522000D01*
X30148000Y-64462000D02*
X30148000Y-61522000D01*
X30268000Y-64462000D02*
X30268000Y-61522000D01*
X25728000Y-61522000D02*
X25728000Y-61652000D01*
X31168000Y-61522000D02*
X25728000Y-61522000D01*
X31168000Y-61652000D02*
X31168000Y-61522000D01*
X25728000Y-64462000D02*
X25728000Y-64332000D01*
X31168000Y-64462000D02*
X25728000Y-64462000D01*
X31168000Y-64332000D02*
X31168000Y-64462000D01*
G04 #@! TO.C,D1*
X31295000Y-68650000D02*
X31295000Y-68780000D01*
X31295000Y-68780000D02*
X25855000Y-68780000D01*
X25855000Y-68780000D02*
X25855000Y-68650000D01*
X31295000Y-65970000D02*
X31295000Y-65840000D01*
X31295000Y-65840000D02*
X25855000Y-65840000D01*
X25855000Y-65840000D02*
X25855000Y-65970000D01*
X30395000Y-68780000D02*
X30395000Y-65840000D01*
X30275000Y-68780000D02*
X30275000Y-65840000D01*
X30515000Y-68780000D02*
X30515000Y-65840000D01*
D11*
G04 #@! TO.C,U2*
X47676000Y-75784000D02*
X47676000Y-75834000D01*
X51826000Y-75784000D02*
X51826000Y-75929000D01*
X51826000Y-80934000D02*
X51826000Y-80789000D01*
X47676000Y-80934000D02*
X47676000Y-80789000D01*
X47676000Y-75784000D02*
X51826000Y-75784000D01*
X47676000Y-80934000D02*
X51826000Y-80934000D01*
X47676000Y-75834000D02*
X46276000Y-75834000D01*
D10*
G04 #@! TO.C,J3*
X27716000Y-79645000D02*
X27716000Y-81645000D01*
X14306000Y-75535000D02*
X17366000Y-75535000D01*
X14306000Y-85755000D02*
X14306000Y-75535000D01*
X17366000Y-85755000D02*
X14306000Y-85755000D01*
X27526000Y-85755000D02*
X21466000Y-85755000D01*
X27526000Y-82945000D02*
X27526000Y-85755000D01*
X27526000Y-75535000D02*
X27526000Y-78345000D01*
X21466000Y-75535000D02*
X27526000Y-75535000D01*
G04 #@! TO.C,C1*
X23375252Y-70410000D02*
X22852748Y-70410000D01*
X23375252Y-71830000D02*
X22852748Y-71830000D01*
G04 #@! TO.C,R5*
X32271637Y-84290997D02*
X32271637Y-84813501D01*
X33691637Y-84290997D02*
X33691637Y-84813501D01*
G04 #@! TO.C,R4*
X38009637Y-84290997D02*
X38009637Y-84813501D01*
X36589637Y-84290997D02*
X36589637Y-84813501D01*
G04 #@! TO.C,R3*
X42327637Y-84290997D02*
X42327637Y-84813501D01*
X40907637Y-84290997D02*
X40907637Y-84813501D01*
G04 #@! TO.C,R2*
X46899637Y-84290997D02*
X46899637Y-84813501D01*
X45479637Y-84290997D02*
X45479637Y-84813501D01*
G04 #@! TO.C,J2*
X59182000Y-61789000D02*
X60512000Y-61789000D01*
X60512000Y-61789000D02*
X60512000Y-63119000D01*
X60512000Y-64389000D02*
X60512000Y-66989000D01*
X57852000Y-66989000D02*
X60512000Y-66989000D01*
X57852000Y-64389000D02*
X57852000Y-66989000D01*
X57852000Y-64389000D02*
X60512000Y-64389000D01*
G04 #@! TO.C,J1*
X14545000Y-69215000D02*
X17205000Y-69215000D01*
X14545000Y-69215000D02*
X14545000Y-71815000D01*
X14545000Y-71815000D02*
X17205000Y-71815000D01*
X17205000Y-69215000D02*
X17205000Y-71815000D01*
X17205000Y-66615000D02*
X17205000Y-67945000D01*
X15875000Y-66615000D02*
X17205000Y-66615000D01*
G04 #@! TO.C,R1*
X49963000Y-84193748D02*
X49963000Y-84716252D01*
X51383000Y-84193748D02*
X51383000Y-84716252D01*
G04 #@! TO.C,U1*
X36444000Y-73933000D02*
X36444000Y-75193000D01*
X36444000Y-80753000D02*
X36444000Y-79493000D01*
X40204000Y-73933000D02*
X36444000Y-73933000D01*
X42454000Y-80753000D02*
X36444000Y-80753000D01*
G04 #@! TO.C,Q1*
X61880500Y-70318000D02*
X61880500Y-80558000D01*
X57239500Y-70318000D02*
X57239500Y-80558000D01*
X61880500Y-70318000D02*
X57239500Y-70318000D01*
X61880500Y-80558000D02*
X57239500Y-80558000D01*
X60370500Y-70318000D02*
X60370500Y-80558000D01*
X61880500Y-73588000D02*
X60370500Y-73588000D01*
X61880500Y-77289000D02*
X60370500Y-77289000D01*
G04 #@! TO.C,REF\002A\002A*
D11*
X15811666Y-56967380D02*
X15478333Y-56491190D01*
X15240238Y-56967380D02*
X15240238Y-55967380D01*
X15621190Y-55967380D01*
X15716428Y-56015000D01*
X15764047Y-56062619D01*
X15811666Y-56157857D01*
X15811666Y-56300714D01*
X15764047Y-56395952D01*
X15716428Y-56443571D01*
X15621190Y-56491190D01*
X15240238Y-56491190D01*
X16240238Y-56443571D02*
X16573571Y-56443571D01*
X16716428Y-56967380D02*
X16240238Y-56967380D01*
X16240238Y-55967380D01*
X16716428Y-55967380D01*
X17478333Y-56443571D02*
X17145000Y-56443571D01*
X17145000Y-56967380D02*
X17145000Y-55967380D01*
X17621190Y-55967380D01*
X18145000Y-55967380D02*
X18145000Y-56205476D01*
X17906904Y-56110238D02*
X18145000Y-56205476D01*
X18383095Y-56110238D01*
X18002142Y-56395952D02*
X18145000Y-56205476D01*
X18287857Y-56395952D01*
X18906904Y-55967380D02*
X18906904Y-56205476D01*
X18668809Y-56110238D02*
X18906904Y-56205476D01*
X19145000Y-56110238D01*
X18764047Y-56395952D02*
X18906904Y-56205476D01*
X19049761Y-56395952D01*
X57721666Y-81732380D02*
X57388333Y-81256190D01*
X57150238Y-81732380D02*
X57150238Y-80732380D01*
X57531190Y-80732380D01*
X57626428Y-80780000D01*
X57674047Y-80827619D01*
X57721666Y-80922857D01*
X57721666Y-81065714D01*
X57674047Y-81160952D01*
X57626428Y-81208571D01*
X57531190Y-81256190D01*
X57150238Y-81256190D01*
X58150238Y-81208571D02*
X58483571Y-81208571D01*
X58626428Y-81732380D02*
X58150238Y-81732380D01*
X58150238Y-80732380D01*
X58626428Y-80732380D01*
X59388333Y-81208571D02*
X59055000Y-81208571D01*
X59055000Y-81732380D02*
X59055000Y-80732380D01*
X59531190Y-80732380D01*
X60055000Y-80732380D02*
X60055000Y-80970476D01*
X59816904Y-80875238D02*
X60055000Y-80970476D01*
X60293095Y-80875238D01*
X59912142Y-81160952D02*
X60055000Y-80970476D01*
X60197857Y-81160952D01*
X60816904Y-80732380D02*
X60816904Y-80970476D01*
X60578809Y-80875238D02*
X60816904Y-80970476D01*
X61055000Y-80875238D01*
X60674047Y-81160952D02*
X60816904Y-80970476D01*
X60959761Y-81160952D01*
G04 #@! TO.C,PIR1*
X44672380Y-64087190D02*
X43672380Y-64087190D01*
X43672380Y-63706238D01*
X43720000Y-63611000D01*
X43767619Y-63563380D01*
X43862857Y-63515761D01*
X44005714Y-63515761D01*
X44100952Y-63563380D01*
X44148571Y-63611000D01*
X44196190Y-63706238D01*
X44196190Y-64087190D01*
X44672380Y-63087190D02*
X43672380Y-63087190D01*
X44672380Y-62039571D02*
X44196190Y-62372904D01*
X44672380Y-62611000D02*
X43672380Y-62611000D01*
X43672380Y-62230047D01*
X43720000Y-62134809D01*
X43767619Y-62087190D01*
X43862857Y-62039571D01*
X44005714Y-62039571D01*
X44100952Y-62087190D01*
X44148571Y-62134809D01*
X44196190Y-62230047D01*
X44196190Y-62611000D01*
X44672380Y-61087190D02*
X44672380Y-61658619D01*
X44672380Y-61372904D02*
X43672380Y-61372904D01*
X43815238Y-61468142D01*
X43910476Y-61563380D01*
X43958095Y-61658619D01*
G04 #@! TO.C,J4*
X38401666Y-55713380D02*
X38401666Y-56427666D01*
X38354047Y-56570523D01*
X38258809Y-56665761D01*
X38115952Y-56713380D01*
X38020714Y-56713380D01*
X39306428Y-56046714D02*
X39306428Y-56713380D01*
X39068333Y-55665761D02*
X38830238Y-56380047D01*
X39449285Y-56380047D01*
G04 #@! TO.C,D2*
X27709904Y-65914380D02*
X27709904Y-64914380D01*
X27948000Y-64914380D01*
X28090857Y-64962000D01*
X28186095Y-65057238D01*
X28233714Y-65152476D01*
X28281333Y-65342952D01*
X28281333Y-65485809D01*
X28233714Y-65676285D01*
X28186095Y-65771523D01*
X28090857Y-65866761D01*
X27948000Y-65914380D01*
X27709904Y-65914380D01*
X28662285Y-65009619D02*
X28709904Y-64962000D01*
X28805142Y-64914380D01*
X29043238Y-64914380D01*
X29138476Y-64962000D01*
X29186095Y-65009619D01*
X29233714Y-65104857D01*
X29233714Y-65200095D01*
X29186095Y-65342952D01*
X28614666Y-65914380D01*
X29233714Y-65914380D01*
X31996095Y-65544380D02*
X31996095Y-64544380D01*
X32567523Y-65544380D02*
X32138952Y-64972952D01*
X32567523Y-64544380D02*
X31996095Y-65115809D01*
G04 #@! TO.C,D1*
X27836904Y-70232380D02*
X27836904Y-69232380D01*
X28075000Y-69232380D01*
X28217857Y-69280000D01*
X28313095Y-69375238D01*
X28360714Y-69470476D01*
X28408333Y-69660952D01*
X28408333Y-69803809D01*
X28360714Y-69994285D01*
X28313095Y-70089523D01*
X28217857Y-70184761D01*
X28075000Y-70232380D01*
X27836904Y-70232380D01*
X29360714Y-70232380D02*
X28789285Y-70232380D01*
X29075000Y-70232380D02*
X29075000Y-69232380D01*
X28979761Y-69375238D01*
X28884523Y-69470476D01*
X28789285Y-69518095D01*
X32123095Y-69862380D02*
X32123095Y-68862380D01*
X32694523Y-69862380D02*
X32265952Y-69290952D01*
X32694523Y-68862380D02*
X32123095Y-69433809D01*
G04 #@! TO.C,U2*
X48989095Y-74311380D02*
X48989095Y-75120904D01*
X49036714Y-75216142D01*
X49084333Y-75263761D01*
X49179571Y-75311380D01*
X49370047Y-75311380D01*
X49465285Y-75263761D01*
X49512904Y-75216142D01*
X49560523Y-75120904D01*
X49560523Y-74311380D01*
X49989095Y-74406619D02*
X50036714Y-74359000D01*
X50131952Y-74311380D01*
X50370047Y-74311380D01*
X50465285Y-74359000D01*
X50512904Y-74406619D01*
X50560523Y-74501857D01*
X50560523Y-74597095D01*
X50512904Y-74739952D01*
X49941476Y-75311380D01*
X50560523Y-75311380D01*
G04 #@! TO.C,J3*
X28168380Y-80978333D02*
X28882666Y-80978333D01*
X29025523Y-81025952D01*
X29120761Y-81121190D01*
X29168380Y-81264047D01*
X29168380Y-81359285D01*
X28168380Y-80597380D02*
X28168380Y-79978333D01*
X28549333Y-80311666D01*
X28549333Y-80168809D01*
X28596952Y-80073571D01*
X28644571Y-80025952D01*
X28739809Y-79978333D01*
X28977904Y-79978333D01*
X29073142Y-80025952D01*
X29120761Y-80073571D01*
X29168380Y-80168809D01*
X29168380Y-80454523D01*
X29120761Y-80549761D01*
X29073142Y-80597380D01*
G04 #@! TO.C,C1*
X22947333Y-73127142D02*
X22899714Y-73174761D01*
X22756857Y-73222380D01*
X22661619Y-73222380D01*
X22518761Y-73174761D01*
X22423523Y-73079523D01*
X22375904Y-72984285D01*
X22328285Y-72793809D01*
X22328285Y-72650952D01*
X22375904Y-72460476D01*
X22423523Y-72365238D01*
X22518761Y-72270000D01*
X22661619Y-72222380D01*
X22756857Y-72222380D01*
X22899714Y-72270000D01*
X22947333Y-72317619D01*
X23899714Y-73222380D02*
X23328285Y-73222380D01*
X23614000Y-73222380D02*
X23614000Y-72222380D01*
X23518761Y-72365238D01*
X23423523Y-72460476D01*
X23328285Y-72508095D01*
G04 #@! TO.C,R5*
X35084017Y-84718915D02*
X34607827Y-85052249D01*
X35084017Y-85290344D02*
X34084017Y-85290344D01*
X34084017Y-84909391D01*
X34131637Y-84814153D01*
X34179256Y-84766534D01*
X34274494Y-84718915D01*
X34417351Y-84718915D01*
X34512589Y-84766534D01*
X34560208Y-84814153D01*
X34607827Y-84909391D01*
X34607827Y-85290344D01*
X34084017Y-83814153D02*
X34084017Y-84290344D01*
X34560208Y-84337963D01*
X34512589Y-84290344D01*
X34464970Y-84195106D01*
X34464970Y-83957010D01*
X34512589Y-83861772D01*
X34560208Y-83814153D01*
X34655446Y-83766534D01*
X34893541Y-83766534D01*
X34988779Y-83814153D01*
X35036398Y-83861772D01*
X35084017Y-83957010D01*
X35084017Y-84195106D01*
X35036398Y-84290344D01*
X34988779Y-84337963D01*
G04 #@! TO.C,R4*
X39402017Y-84718915D02*
X38925827Y-85052249D01*
X39402017Y-85290344D02*
X38402017Y-85290344D01*
X38402017Y-84909391D01*
X38449637Y-84814153D01*
X38497256Y-84766534D01*
X38592494Y-84718915D01*
X38735351Y-84718915D01*
X38830589Y-84766534D01*
X38878208Y-84814153D01*
X38925827Y-84909391D01*
X38925827Y-85290344D01*
X38735351Y-83861772D02*
X39402017Y-83861772D01*
X38354398Y-84099868D02*
X39068684Y-84337963D01*
X39068684Y-83718915D01*
G04 #@! TO.C,R3*
X43720017Y-84718915D02*
X43243827Y-85052249D01*
X43720017Y-85290344D02*
X42720017Y-85290344D01*
X42720017Y-84909391D01*
X42767637Y-84814153D01*
X42815256Y-84766534D01*
X42910494Y-84718915D01*
X43053351Y-84718915D01*
X43148589Y-84766534D01*
X43196208Y-84814153D01*
X43243827Y-84909391D01*
X43243827Y-85290344D01*
X42720017Y-84385582D02*
X42720017Y-83766534D01*
X43100970Y-84099868D01*
X43100970Y-83957010D01*
X43148589Y-83861772D01*
X43196208Y-83814153D01*
X43291446Y-83766534D01*
X43529541Y-83766534D01*
X43624779Y-83814153D01*
X43672398Y-83861772D01*
X43720017Y-83957010D01*
X43720017Y-84242725D01*
X43672398Y-84337963D01*
X43624779Y-84385582D01*
G04 #@! TO.C,R2*
X48292017Y-84718915D02*
X47815827Y-85052249D01*
X48292017Y-85290344D02*
X47292017Y-85290344D01*
X47292017Y-84909391D01*
X47339637Y-84814153D01*
X47387256Y-84766534D01*
X47482494Y-84718915D01*
X47625351Y-84718915D01*
X47720589Y-84766534D01*
X47768208Y-84814153D01*
X47815827Y-84909391D01*
X47815827Y-85290344D01*
X47387256Y-84337963D02*
X47339637Y-84290344D01*
X47292017Y-84195106D01*
X47292017Y-83957010D01*
X47339637Y-83861772D01*
X47387256Y-83814153D01*
X47482494Y-83766534D01*
X47577732Y-83766534D01*
X47720589Y-83814153D01*
X48292017Y-84385582D01*
X48292017Y-83766534D01*
G04 #@! TO.C,J2*
X58848666Y-59801380D02*
X58848666Y-60515666D01*
X58801047Y-60658523D01*
X58705809Y-60753761D01*
X58562952Y-60801380D01*
X58467714Y-60801380D01*
X59277238Y-59896619D02*
X59324857Y-59849000D01*
X59420095Y-59801380D01*
X59658190Y-59801380D01*
X59753428Y-59849000D01*
X59801047Y-59896619D01*
X59848666Y-59991857D01*
X59848666Y-60087095D01*
X59801047Y-60229952D01*
X59229619Y-60801380D01*
X59848666Y-60801380D01*
G04 #@! TO.C,J1*
X15541666Y-64627380D02*
X15541666Y-65341666D01*
X15494047Y-65484523D01*
X15398809Y-65579761D01*
X15255952Y-65627380D01*
X15160714Y-65627380D01*
X16541666Y-65627380D02*
X15970238Y-65627380D01*
X16255952Y-65627380D02*
X16255952Y-64627380D01*
X16160714Y-64770238D01*
X16065476Y-64865476D01*
X15970238Y-64913095D01*
G04 #@! TO.C,R1*
X52775380Y-84621666D02*
X52299190Y-84955000D01*
X52775380Y-85193095D02*
X51775380Y-85193095D01*
X51775380Y-84812142D01*
X51823000Y-84716904D01*
X51870619Y-84669285D01*
X51965857Y-84621666D01*
X52108714Y-84621666D01*
X52203952Y-84669285D01*
X52251571Y-84716904D01*
X52299190Y-84812142D01*
X52299190Y-85193095D01*
X52775380Y-83669285D02*
X52775380Y-84240714D01*
X52775380Y-83955000D02*
X51775380Y-83955000D01*
X51918238Y-84050238D01*
X52013476Y-84145476D01*
X52061095Y-84240714D01*
G04 #@! TO.C,U1*
X37592095Y-81295380D02*
X37592095Y-82104904D01*
X37639714Y-82200142D01*
X37687333Y-82247761D01*
X37782571Y-82295380D01*
X37973047Y-82295380D01*
X38068285Y-82247761D01*
X38115904Y-82200142D01*
X38163523Y-82104904D01*
X38163523Y-81295380D01*
X39163523Y-82295380D02*
X38592095Y-82295380D01*
X38877809Y-82295380D02*
X38877809Y-81295380D01*
X38782571Y-81438238D01*
X38687333Y-81533476D01*
X38592095Y-81581095D01*
G04 #@! TO.C,Q1*
X63428119Y-75533238D02*
X63380500Y-75628476D01*
X63285261Y-75723714D01*
X63142404Y-75866571D01*
X63094785Y-75961809D01*
X63094785Y-76057047D01*
X63332880Y-76009428D02*
X63285261Y-76104666D01*
X63190023Y-76199904D01*
X62999547Y-76247523D01*
X62666214Y-76247523D01*
X62475738Y-76199904D01*
X62380500Y-76104666D01*
X62332880Y-76009428D01*
X62332880Y-75818952D01*
X62380500Y-75723714D01*
X62475738Y-75628476D01*
X62666214Y-75580857D01*
X62999547Y-75580857D01*
X63190023Y-75628476D01*
X63285261Y-75723714D01*
X63332880Y-75818952D01*
X63332880Y-76009428D01*
X63332880Y-74628476D02*
X63332880Y-75199904D01*
X63332880Y-74914190D02*
X62332880Y-74914190D01*
X62475738Y-75009428D01*
X62570976Y-75104666D01*
X62618595Y-75199904D01*
G04 #@! TD*
M02*
