M48
;DRILL file {KiCad (5.0.1)-4} date 2018-11-16 16:38:38
;FORMAT={-:-/ absolute / inch / decimal}
FMAT,2
INCH,TZ
T1C0.0157
T2C0.0300
T3C0.0394
T4C0.0400
T5C0.0433
T6C0.0984
%
G90
G05
M72
T1
X1.0448Y-2.8076
X1.275Y-2.8
X1.7683Y-3.16
X1.77Y-3.01
X1.77Y-3.06
X1.77Y-3.11
X2.075Y-3.4
X2.15Y-3.06
X2.15Y-3.11
X2.15Y-3.16
T2
X0.5925Y-2.4225
X0.615Y-2.485
X0.6175Y-2.3625
X0.68Y-2.34
X0.68Y-2.51
X0.735Y-2.3675
X0.735Y-2.4825
X0.76Y-2.425
X2.2425Y-3.3975
X2.265Y-3.46
X2.2675Y-3.3375
X2.33Y-3.315
X2.33Y-3.485
X2.385Y-3.3425
X2.385Y-3.4575
X2.41Y-3.4
T3
X1.85Y-2.465
X1.95Y-2.465
X2.05Y-2.465
X0.625Y-2.675
X0.625Y-2.775
X2.33Y-2.485
X2.33Y-2.585
T4
X1.475Y-2.475
X1.475Y-2.575
X1.475Y-2.675
X1.575Y-2.475
X1.575Y-2.575
X1.575Y-2.675
T5
X0.975Y-2.65
X1.275Y-2.65
X0.97Y-2.48
X1.27Y-2.48
X2.3075Y-2.87
X2.3075Y-2.97
X2.3075Y-3.07
T6
X0.675Y-2.425
X2.325Y-3.4
T3
X0.7939Y-2.9978G85X0.7349Y-2.9978
G05
X0.7939Y-3.3522G85X0.7349Y-3.3522
G05
X0.8038Y-3.1494G85X0.8038Y-3.2006
G05
X1.04Y-3.1356G85X1.04Y-3.2144
G05
T0
M30
