G04 #@! TF.GenerationSoftware,KiCad,Pcbnew,(5.0.1)-4*
G04 #@! TF.CreationDate,2018-11-16T16:38:59+08:00*
G04 #@! TF.ProjectId,AILight,41494C696768742E6B696361645F7063,rev?*
G04 #@! TF.SameCoordinates,Original*
G04 #@! TF.FileFunction,Copper,L1,Top,Signal*
G04 #@! TF.FilePolarity,Positive*
%FSLAX46Y46*%
G04 Gerber Fmt 4.6, Leading zero omitted, Abs format (unit mm)*
G04 Created by KiCad (PCBNEW (5.0.1)-4) date 2018-11-16 16:38:59*
%MOMM*%
%LPD*%
G01*
G04 APERTURE LIST*
G04 #@! TA.AperFunction,ComponentPad*
%ADD10C,5.999480*%
G04 #@! TD*
G04 #@! TA.AperFunction,ComponentPad*
%ADD11C,1.524000*%
G04 #@! TD*
G04 #@! TA.AperFunction,ComponentPad*
%ADD12R,1.700000X1.700000*%
G04 #@! TD*
G04 #@! TA.AperFunction,ComponentPad*
%ADD13O,1.700000X1.700000*%
G04 #@! TD*
G04 #@! TA.AperFunction,ComponentPad*
%ADD14R,1.727200X1.727200*%
G04 #@! TD*
G04 #@! TA.AperFunction,ComponentPad*
%ADD15O,1.727200X1.727200*%
G04 #@! TD*
G04 #@! TA.AperFunction,ComponentPad*
%ADD16O,2.200000X2.200000*%
G04 #@! TD*
G04 #@! TA.AperFunction,ComponentPad*
%ADD17R,2.200000X2.200000*%
G04 #@! TD*
G04 #@! TA.AperFunction,SMDPad,CuDef*
%ADD18R,1.550000X0.600000*%
G04 #@! TD*
G04 #@! TA.AperFunction,ComponentPad*
%ADD19O,3.500000X2.000000*%
G04 #@! TD*
G04 #@! TA.AperFunction,ComponentPad*
%ADD20O,2.000000X3.300000*%
G04 #@! TD*
G04 #@! TA.AperFunction,ComponentPad*
%ADD21R,2.000000X4.000000*%
G04 #@! TD*
G04 #@! TA.AperFunction,Conductor*
%ADD22C,0.100000*%
G04 #@! TD*
G04 #@! TA.AperFunction,SMDPad,CuDef*
%ADD23C,1.150000*%
G04 #@! TD*
G04 #@! TA.AperFunction,SMDPad,CuDef*
%ADD24R,2.000000X3.800000*%
G04 #@! TD*
G04 #@! TA.AperFunction,SMDPad,CuDef*
%ADD25R,2.000000X1.500000*%
G04 #@! TD*
G04 #@! TA.AperFunction,ComponentPad*
%ADD26R,2.000000X1.905000*%
G04 #@! TD*
G04 #@! TA.AperFunction,ComponentPad*
%ADD27O,2.000000X1.905000*%
G04 #@! TD*
G04 #@! TA.AperFunction,ViaPad*
%ADD28C,0.800000*%
G04 #@! TD*
G04 #@! TA.AperFunction,Conductor*
%ADD29C,0.250000*%
G04 #@! TD*
G04 #@! TA.AperFunction,Conductor*
%ADD30C,0.500000*%
G04 #@! TD*
G04 #@! TA.AperFunction,Conductor*
%ADD31C,0.800000*%
G04 #@! TD*
G04 #@! TA.AperFunction,Conductor*
%ADD32C,0.254000*%
G04 #@! TD*
G04 APERTURE END LIST*
D10*
G04 #@! TO.P,REF\002A\002A,1*
G04 #@! TO.N,N/C*
X17145000Y-61595000D03*
D11*
G04 #@! TO.P,REF\002A\002A,5*
X17272000Y-59436000D03*
G04 #@! TO.P,REF\002A\002A,2*
X17272000Y-63754000D03*
G04 #@! TO.P,REF\002A\002A,3*
X19304000Y-61595000D03*
G04 #@! TO.P,REF\002A\002A,4*
X15049500Y-61531500D03*
G04 #@! TO.P,REF\002A\002A,6*
X15684500Y-60007500D03*
G04 #@! TO.P,REF\002A\002A,7*
X18669000Y-60134500D03*
G04 #@! TO.P,REF\002A\002A,8*
X15621000Y-63119000D03*
G04 #@! TO.P,REF\002A\002A,9*
X18669000Y-63055500D03*
G04 #@! TD*
D10*
G04 #@! TO.P,REF\002A\002A,1*
G04 #@! TO.N,N/C*
X59055000Y-86360000D03*
D11*
G04 #@! TO.P,REF\002A\002A,5*
X59182000Y-84201000D03*
G04 #@! TO.P,REF\002A\002A,2*
X59182000Y-88519000D03*
G04 #@! TO.P,REF\002A\002A,3*
X61214000Y-86360000D03*
G04 #@! TO.P,REF\002A\002A,4*
X56959500Y-86296500D03*
G04 #@! TO.P,REF\002A\002A,6*
X57594500Y-84772500D03*
G04 #@! TO.P,REF\002A\002A,7*
X60579000Y-84899500D03*
G04 #@! TO.P,REF\002A\002A,8*
X57531000Y-87884000D03*
G04 #@! TO.P,REF\002A\002A,9*
X60579000Y-87820500D03*
G04 #@! TD*
D12*
G04 #@! TO.P,PIR1,1*
G04 #@! TO.N,Net-(J4-Pad2)*
X46990000Y-62611000D03*
D13*
G04 #@! TO.P,PIR1,2*
G04 #@! TO.N,Net-(PIR1-Pad2)*
X49530000Y-62611000D03*
G04 #@! TO.P,PIR1,3*
G04 #@! TO.N,Net-(C1-Pad2)*
X52070000Y-62611000D03*
G04 #@! TD*
D14*
G04 #@! TO.P,J4,1*
G04 #@! TO.N,Net-(J4-Pad1)*
X37465000Y-62865000D03*
D15*
G04 #@! TO.P,J4,2*
G04 #@! TO.N,Net-(J4-Pad2)*
X40005000Y-62865000D03*
G04 #@! TO.P,J4,3*
G04 #@! TO.N,Net-(J4-Pad3)*
X37465000Y-65405000D03*
G04 #@! TO.P,J4,4*
G04 #@! TO.N,Net-(J4-Pad4)*
X40005000Y-65405000D03*
G04 #@! TO.P,J4,5*
G04 #@! TO.N,Net-(J4-Pad5)*
X37465000Y-67945000D03*
G04 #@! TO.P,J4,6*
G04 #@! TO.N,Net-(C1-Pad2)*
X40005000Y-67945000D03*
G04 #@! TD*
D16*
G04 #@! TO.P,D2,2*
G04 #@! TO.N,Net-(D2-Pad2)*
X24638000Y-62992000D03*
D17*
G04 #@! TO.P,D2,1*
G04 #@! TO.N,Net-(C1-Pad1)*
X32258000Y-62992000D03*
G04 #@! TD*
G04 #@! TO.P,D1,1*
G04 #@! TO.N,Net-(C1-Pad1)*
X32385000Y-67310000D03*
D16*
G04 #@! TO.P,D1,2*
G04 #@! TO.N,Net-(D1-Pad2)*
X24765000Y-67310000D03*
G04 #@! TD*
D18*
G04 #@! TO.P,U2,1*
G04 #@! TO.N,Net-(J4-Pad5)*
X47051000Y-76454000D03*
G04 #@! TO.P,U2,2*
G04 #@! TO.N,Net-(PIR1-Pad2)*
X47051000Y-77724000D03*
G04 #@! TO.P,U2,3*
G04 #@! TO.N,Net-(U2-Pad3)*
X47051000Y-78994000D03*
G04 #@! TO.P,U2,4*
G04 #@! TO.N,Net-(C1-Pad2)*
X47051000Y-80264000D03*
G04 #@! TO.P,U2,5*
G04 #@! TO.N,Net-(J4-Pad4)*
X52451000Y-80264000D03*
G04 #@! TO.P,U2,6*
G04 #@! TO.N,Net-(J4-Pad1)*
X52451000Y-78994000D03*
G04 #@! TO.P,U2,7*
G04 #@! TO.N,Net-(J4-Pad3)*
X52451000Y-77724000D03*
G04 #@! TO.P,U2,8*
G04 #@! TO.N,Net-(J4-Pad2)*
X52451000Y-76454000D03*
G04 #@! TD*
D19*
G04 #@! TO.P,J3,MP*
G04 #@! TO.N,N/C*
X19416000Y-85145000D03*
X19416000Y-76145000D03*
D20*
G04 #@! TO.P,J3,2*
G04 #@! TO.N,Net-(C1-Pad2)*
X20416000Y-80645000D03*
D21*
G04 #@! TO.P,J3,1*
G04 #@! TO.N,Net-(J3-Pad1)*
X26416000Y-80645000D03*
G04 #@! TD*
D22*
G04 #@! TO.N,Net-(C1-Pad2)*
G04 #@! TO.C,C1*
G36*
X22438505Y-70421204D02*
X22462773Y-70424804D01*
X22486572Y-70430765D01*
X22509671Y-70439030D01*
X22531850Y-70449520D01*
X22552893Y-70462132D01*
X22572599Y-70476747D01*
X22590777Y-70493223D01*
X22607253Y-70511401D01*
X22621868Y-70531107D01*
X22634480Y-70552150D01*
X22644970Y-70574329D01*
X22653235Y-70597428D01*
X22659196Y-70621227D01*
X22662796Y-70645495D01*
X22664000Y-70669999D01*
X22664000Y-71570001D01*
X22662796Y-71594505D01*
X22659196Y-71618773D01*
X22653235Y-71642572D01*
X22644970Y-71665671D01*
X22634480Y-71687850D01*
X22621868Y-71708893D01*
X22607253Y-71728599D01*
X22590777Y-71746777D01*
X22572599Y-71763253D01*
X22552893Y-71777868D01*
X22531850Y-71790480D01*
X22509671Y-71800970D01*
X22486572Y-71809235D01*
X22462773Y-71815196D01*
X22438505Y-71818796D01*
X22414001Y-71820000D01*
X21763999Y-71820000D01*
X21739495Y-71818796D01*
X21715227Y-71815196D01*
X21691428Y-71809235D01*
X21668329Y-71800970D01*
X21646150Y-71790480D01*
X21625107Y-71777868D01*
X21605401Y-71763253D01*
X21587223Y-71746777D01*
X21570747Y-71728599D01*
X21556132Y-71708893D01*
X21543520Y-71687850D01*
X21533030Y-71665671D01*
X21524765Y-71642572D01*
X21518804Y-71618773D01*
X21515204Y-71594505D01*
X21514000Y-71570001D01*
X21514000Y-70669999D01*
X21515204Y-70645495D01*
X21518804Y-70621227D01*
X21524765Y-70597428D01*
X21533030Y-70574329D01*
X21543520Y-70552150D01*
X21556132Y-70531107D01*
X21570747Y-70511401D01*
X21587223Y-70493223D01*
X21605401Y-70476747D01*
X21625107Y-70462132D01*
X21646150Y-70449520D01*
X21668329Y-70439030D01*
X21691428Y-70430765D01*
X21715227Y-70424804D01*
X21739495Y-70421204D01*
X21763999Y-70420000D01*
X22414001Y-70420000D01*
X22438505Y-70421204D01*
X22438505Y-70421204D01*
G37*
D23*
G04 #@! TD*
G04 #@! TO.P,C1,2*
G04 #@! TO.N,Net-(C1-Pad2)*
X22089000Y-71120000D03*
D22*
G04 #@! TO.N,Net-(C1-Pad1)*
G04 #@! TO.C,C1*
G36*
X24488505Y-70421204D02*
X24512773Y-70424804D01*
X24536572Y-70430765D01*
X24559671Y-70439030D01*
X24581850Y-70449520D01*
X24602893Y-70462132D01*
X24622599Y-70476747D01*
X24640777Y-70493223D01*
X24657253Y-70511401D01*
X24671868Y-70531107D01*
X24684480Y-70552150D01*
X24694970Y-70574329D01*
X24703235Y-70597428D01*
X24709196Y-70621227D01*
X24712796Y-70645495D01*
X24714000Y-70669999D01*
X24714000Y-71570001D01*
X24712796Y-71594505D01*
X24709196Y-71618773D01*
X24703235Y-71642572D01*
X24694970Y-71665671D01*
X24684480Y-71687850D01*
X24671868Y-71708893D01*
X24657253Y-71728599D01*
X24640777Y-71746777D01*
X24622599Y-71763253D01*
X24602893Y-71777868D01*
X24581850Y-71790480D01*
X24559671Y-71800970D01*
X24536572Y-71809235D01*
X24512773Y-71815196D01*
X24488505Y-71818796D01*
X24464001Y-71820000D01*
X23813999Y-71820000D01*
X23789495Y-71818796D01*
X23765227Y-71815196D01*
X23741428Y-71809235D01*
X23718329Y-71800970D01*
X23696150Y-71790480D01*
X23675107Y-71777868D01*
X23655401Y-71763253D01*
X23637223Y-71746777D01*
X23620747Y-71728599D01*
X23606132Y-71708893D01*
X23593520Y-71687850D01*
X23583030Y-71665671D01*
X23574765Y-71642572D01*
X23568804Y-71618773D01*
X23565204Y-71594505D01*
X23564000Y-71570001D01*
X23564000Y-70669999D01*
X23565204Y-70645495D01*
X23568804Y-70621227D01*
X23574765Y-70597428D01*
X23583030Y-70574329D01*
X23593520Y-70552150D01*
X23606132Y-70531107D01*
X23620747Y-70511401D01*
X23637223Y-70493223D01*
X23655401Y-70476747D01*
X23675107Y-70462132D01*
X23696150Y-70449520D01*
X23718329Y-70439030D01*
X23741428Y-70430765D01*
X23765227Y-70424804D01*
X23789495Y-70421204D01*
X23813999Y-70420000D01*
X24464001Y-70420000D01*
X24488505Y-70421204D01*
X24488505Y-70421204D01*
G37*
D23*
G04 #@! TD*
G04 #@! TO.P,C1,1*
G04 #@! TO.N,Net-(C1-Pad1)*
X24139000Y-71120000D03*
D22*
G04 #@! TO.N,Net-(J3-Pad1)*
G04 #@! TO.C,R5*
G36*
X33456142Y-85003453D02*
X33480410Y-85007053D01*
X33504209Y-85013014D01*
X33527308Y-85021279D01*
X33549487Y-85031769D01*
X33570530Y-85044381D01*
X33590236Y-85058996D01*
X33608414Y-85075472D01*
X33624890Y-85093650D01*
X33639505Y-85113356D01*
X33652117Y-85134399D01*
X33662607Y-85156578D01*
X33670872Y-85179677D01*
X33676833Y-85203476D01*
X33680433Y-85227744D01*
X33681637Y-85252248D01*
X33681637Y-85902250D01*
X33680433Y-85926754D01*
X33676833Y-85951022D01*
X33670872Y-85974821D01*
X33662607Y-85997920D01*
X33652117Y-86020099D01*
X33639505Y-86041142D01*
X33624890Y-86060848D01*
X33608414Y-86079026D01*
X33590236Y-86095502D01*
X33570530Y-86110117D01*
X33549487Y-86122729D01*
X33527308Y-86133219D01*
X33504209Y-86141484D01*
X33480410Y-86147445D01*
X33456142Y-86151045D01*
X33431638Y-86152249D01*
X32531636Y-86152249D01*
X32507132Y-86151045D01*
X32482864Y-86147445D01*
X32459065Y-86141484D01*
X32435966Y-86133219D01*
X32413787Y-86122729D01*
X32392744Y-86110117D01*
X32373038Y-86095502D01*
X32354860Y-86079026D01*
X32338384Y-86060848D01*
X32323769Y-86041142D01*
X32311157Y-86020099D01*
X32300667Y-85997920D01*
X32292402Y-85974821D01*
X32286441Y-85951022D01*
X32282841Y-85926754D01*
X32281637Y-85902250D01*
X32281637Y-85252248D01*
X32282841Y-85227744D01*
X32286441Y-85203476D01*
X32292402Y-85179677D01*
X32300667Y-85156578D01*
X32311157Y-85134399D01*
X32323769Y-85113356D01*
X32338384Y-85093650D01*
X32354860Y-85075472D01*
X32373038Y-85058996D01*
X32392744Y-85044381D01*
X32413787Y-85031769D01*
X32435966Y-85021279D01*
X32459065Y-85013014D01*
X32482864Y-85007053D01*
X32507132Y-85003453D01*
X32531636Y-85002249D01*
X33431638Y-85002249D01*
X33456142Y-85003453D01*
X33456142Y-85003453D01*
G37*
D23*
G04 #@! TD*
G04 #@! TO.P,R5,2*
G04 #@! TO.N,Net-(J3-Pad1)*
X32981637Y-85577249D03*
D22*
G04 #@! TO.N,Net-(D1-Pad2)*
G04 #@! TO.C,R5*
G36*
X33456142Y-82953453D02*
X33480410Y-82957053D01*
X33504209Y-82963014D01*
X33527308Y-82971279D01*
X33549487Y-82981769D01*
X33570530Y-82994381D01*
X33590236Y-83008996D01*
X33608414Y-83025472D01*
X33624890Y-83043650D01*
X33639505Y-83063356D01*
X33652117Y-83084399D01*
X33662607Y-83106578D01*
X33670872Y-83129677D01*
X33676833Y-83153476D01*
X33680433Y-83177744D01*
X33681637Y-83202248D01*
X33681637Y-83852250D01*
X33680433Y-83876754D01*
X33676833Y-83901022D01*
X33670872Y-83924821D01*
X33662607Y-83947920D01*
X33652117Y-83970099D01*
X33639505Y-83991142D01*
X33624890Y-84010848D01*
X33608414Y-84029026D01*
X33590236Y-84045502D01*
X33570530Y-84060117D01*
X33549487Y-84072729D01*
X33527308Y-84083219D01*
X33504209Y-84091484D01*
X33480410Y-84097445D01*
X33456142Y-84101045D01*
X33431638Y-84102249D01*
X32531636Y-84102249D01*
X32507132Y-84101045D01*
X32482864Y-84097445D01*
X32459065Y-84091484D01*
X32435966Y-84083219D01*
X32413787Y-84072729D01*
X32392744Y-84060117D01*
X32373038Y-84045502D01*
X32354860Y-84029026D01*
X32338384Y-84010848D01*
X32323769Y-83991142D01*
X32311157Y-83970099D01*
X32300667Y-83947920D01*
X32292402Y-83924821D01*
X32286441Y-83901022D01*
X32282841Y-83876754D01*
X32281637Y-83852250D01*
X32281637Y-83202248D01*
X32282841Y-83177744D01*
X32286441Y-83153476D01*
X32292402Y-83129677D01*
X32300667Y-83106578D01*
X32311157Y-83084399D01*
X32323769Y-83063356D01*
X32338384Y-83043650D01*
X32354860Y-83025472D01*
X32373038Y-83008996D01*
X32392744Y-82994381D01*
X32413787Y-82981769D01*
X32435966Y-82971279D01*
X32459065Y-82963014D01*
X32482864Y-82957053D01*
X32507132Y-82953453D01*
X32531636Y-82952249D01*
X33431638Y-82952249D01*
X33456142Y-82953453D01*
X33456142Y-82953453D01*
G37*
D23*
G04 #@! TD*
G04 #@! TO.P,R5,1*
G04 #@! TO.N,Net-(D1-Pad2)*
X32981637Y-83527249D03*
D22*
G04 #@! TO.N,Net-(D1-Pad2)*
G04 #@! TO.C,R4*
G36*
X37774142Y-82953453D02*
X37798410Y-82957053D01*
X37822209Y-82963014D01*
X37845308Y-82971279D01*
X37867487Y-82981769D01*
X37888530Y-82994381D01*
X37908236Y-83008996D01*
X37926414Y-83025472D01*
X37942890Y-83043650D01*
X37957505Y-83063356D01*
X37970117Y-83084399D01*
X37980607Y-83106578D01*
X37988872Y-83129677D01*
X37994833Y-83153476D01*
X37998433Y-83177744D01*
X37999637Y-83202248D01*
X37999637Y-83852250D01*
X37998433Y-83876754D01*
X37994833Y-83901022D01*
X37988872Y-83924821D01*
X37980607Y-83947920D01*
X37970117Y-83970099D01*
X37957505Y-83991142D01*
X37942890Y-84010848D01*
X37926414Y-84029026D01*
X37908236Y-84045502D01*
X37888530Y-84060117D01*
X37867487Y-84072729D01*
X37845308Y-84083219D01*
X37822209Y-84091484D01*
X37798410Y-84097445D01*
X37774142Y-84101045D01*
X37749638Y-84102249D01*
X36849636Y-84102249D01*
X36825132Y-84101045D01*
X36800864Y-84097445D01*
X36777065Y-84091484D01*
X36753966Y-84083219D01*
X36731787Y-84072729D01*
X36710744Y-84060117D01*
X36691038Y-84045502D01*
X36672860Y-84029026D01*
X36656384Y-84010848D01*
X36641769Y-83991142D01*
X36629157Y-83970099D01*
X36618667Y-83947920D01*
X36610402Y-83924821D01*
X36604441Y-83901022D01*
X36600841Y-83876754D01*
X36599637Y-83852250D01*
X36599637Y-83202248D01*
X36600841Y-83177744D01*
X36604441Y-83153476D01*
X36610402Y-83129677D01*
X36618667Y-83106578D01*
X36629157Y-83084399D01*
X36641769Y-83063356D01*
X36656384Y-83043650D01*
X36672860Y-83025472D01*
X36691038Y-83008996D01*
X36710744Y-82994381D01*
X36731787Y-82981769D01*
X36753966Y-82971279D01*
X36777065Y-82963014D01*
X36800864Y-82957053D01*
X36825132Y-82953453D01*
X36849636Y-82952249D01*
X37749638Y-82952249D01*
X37774142Y-82953453D01*
X37774142Y-82953453D01*
G37*
D23*
G04 #@! TD*
G04 #@! TO.P,R4,1*
G04 #@! TO.N,Net-(D1-Pad2)*
X37299637Y-83527249D03*
D22*
G04 #@! TO.N,Net-(J3-Pad1)*
G04 #@! TO.C,R4*
G36*
X37774142Y-85003453D02*
X37798410Y-85007053D01*
X37822209Y-85013014D01*
X37845308Y-85021279D01*
X37867487Y-85031769D01*
X37888530Y-85044381D01*
X37908236Y-85058996D01*
X37926414Y-85075472D01*
X37942890Y-85093650D01*
X37957505Y-85113356D01*
X37970117Y-85134399D01*
X37980607Y-85156578D01*
X37988872Y-85179677D01*
X37994833Y-85203476D01*
X37998433Y-85227744D01*
X37999637Y-85252248D01*
X37999637Y-85902250D01*
X37998433Y-85926754D01*
X37994833Y-85951022D01*
X37988872Y-85974821D01*
X37980607Y-85997920D01*
X37970117Y-86020099D01*
X37957505Y-86041142D01*
X37942890Y-86060848D01*
X37926414Y-86079026D01*
X37908236Y-86095502D01*
X37888530Y-86110117D01*
X37867487Y-86122729D01*
X37845308Y-86133219D01*
X37822209Y-86141484D01*
X37798410Y-86147445D01*
X37774142Y-86151045D01*
X37749638Y-86152249D01*
X36849636Y-86152249D01*
X36825132Y-86151045D01*
X36800864Y-86147445D01*
X36777065Y-86141484D01*
X36753966Y-86133219D01*
X36731787Y-86122729D01*
X36710744Y-86110117D01*
X36691038Y-86095502D01*
X36672860Y-86079026D01*
X36656384Y-86060848D01*
X36641769Y-86041142D01*
X36629157Y-86020099D01*
X36618667Y-85997920D01*
X36610402Y-85974821D01*
X36604441Y-85951022D01*
X36600841Y-85926754D01*
X36599637Y-85902250D01*
X36599637Y-85252248D01*
X36600841Y-85227744D01*
X36604441Y-85203476D01*
X36610402Y-85179677D01*
X36618667Y-85156578D01*
X36629157Y-85134399D01*
X36641769Y-85113356D01*
X36656384Y-85093650D01*
X36672860Y-85075472D01*
X36691038Y-85058996D01*
X36710744Y-85044381D01*
X36731787Y-85031769D01*
X36753966Y-85021279D01*
X36777065Y-85013014D01*
X36800864Y-85007053D01*
X36825132Y-85003453D01*
X36849636Y-85002249D01*
X37749638Y-85002249D01*
X37774142Y-85003453D01*
X37774142Y-85003453D01*
G37*
D23*
G04 #@! TD*
G04 #@! TO.P,R4,2*
G04 #@! TO.N,Net-(J3-Pad1)*
X37299637Y-85577249D03*
D22*
G04 #@! TO.N,Net-(D1-Pad2)*
G04 #@! TO.C,R3*
G36*
X42092142Y-82953453D02*
X42116410Y-82957053D01*
X42140209Y-82963014D01*
X42163308Y-82971279D01*
X42185487Y-82981769D01*
X42206530Y-82994381D01*
X42226236Y-83008996D01*
X42244414Y-83025472D01*
X42260890Y-83043650D01*
X42275505Y-83063356D01*
X42288117Y-83084399D01*
X42298607Y-83106578D01*
X42306872Y-83129677D01*
X42312833Y-83153476D01*
X42316433Y-83177744D01*
X42317637Y-83202248D01*
X42317637Y-83852250D01*
X42316433Y-83876754D01*
X42312833Y-83901022D01*
X42306872Y-83924821D01*
X42298607Y-83947920D01*
X42288117Y-83970099D01*
X42275505Y-83991142D01*
X42260890Y-84010848D01*
X42244414Y-84029026D01*
X42226236Y-84045502D01*
X42206530Y-84060117D01*
X42185487Y-84072729D01*
X42163308Y-84083219D01*
X42140209Y-84091484D01*
X42116410Y-84097445D01*
X42092142Y-84101045D01*
X42067638Y-84102249D01*
X41167636Y-84102249D01*
X41143132Y-84101045D01*
X41118864Y-84097445D01*
X41095065Y-84091484D01*
X41071966Y-84083219D01*
X41049787Y-84072729D01*
X41028744Y-84060117D01*
X41009038Y-84045502D01*
X40990860Y-84029026D01*
X40974384Y-84010848D01*
X40959769Y-83991142D01*
X40947157Y-83970099D01*
X40936667Y-83947920D01*
X40928402Y-83924821D01*
X40922441Y-83901022D01*
X40918841Y-83876754D01*
X40917637Y-83852250D01*
X40917637Y-83202248D01*
X40918841Y-83177744D01*
X40922441Y-83153476D01*
X40928402Y-83129677D01*
X40936667Y-83106578D01*
X40947157Y-83084399D01*
X40959769Y-83063356D01*
X40974384Y-83043650D01*
X40990860Y-83025472D01*
X41009038Y-83008996D01*
X41028744Y-82994381D01*
X41049787Y-82981769D01*
X41071966Y-82971279D01*
X41095065Y-82963014D01*
X41118864Y-82957053D01*
X41143132Y-82953453D01*
X41167636Y-82952249D01*
X42067638Y-82952249D01*
X42092142Y-82953453D01*
X42092142Y-82953453D01*
G37*
D23*
G04 #@! TD*
G04 #@! TO.P,R3,1*
G04 #@! TO.N,Net-(D1-Pad2)*
X41617637Y-83527249D03*
D22*
G04 #@! TO.N,Net-(J3-Pad1)*
G04 #@! TO.C,R3*
G36*
X42092142Y-85003453D02*
X42116410Y-85007053D01*
X42140209Y-85013014D01*
X42163308Y-85021279D01*
X42185487Y-85031769D01*
X42206530Y-85044381D01*
X42226236Y-85058996D01*
X42244414Y-85075472D01*
X42260890Y-85093650D01*
X42275505Y-85113356D01*
X42288117Y-85134399D01*
X42298607Y-85156578D01*
X42306872Y-85179677D01*
X42312833Y-85203476D01*
X42316433Y-85227744D01*
X42317637Y-85252248D01*
X42317637Y-85902250D01*
X42316433Y-85926754D01*
X42312833Y-85951022D01*
X42306872Y-85974821D01*
X42298607Y-85997920D01*
X42288117Y-86020099D01*
X42275505Y-86041142D01*
X42260890Y-86060848D01*
X42244414Y-86079026D01*
X42226236Y-86095502D01*
X42206530Y-86110117D01*
X42185487Y-86122729D01*
X42163308Y-86133219D01*
X42140209Y-86141484D01*
X42116410Y-86147445D01*
X42092142Y-86151045D01*
X42067638Y-86152249D01*
X41167636Y-86152249D01*
X41143132Y-86151045D01*
X41118864Y-86147445D01*
X41095065Y-86141484D01*
X41071966Y-86133219D01*
X41049787Y-86122729D01*
X41028744Y-86110117D01*
X41009038Y-86095502D01*
X40990860Y-86079026D01*
X40974384Y-86060848D01*
X40959769Y-86041142D01*
X40947157Y-86020099D01*
X40936667Y-85997920D01*
X40928402Y-85974821D01*
X40922441Y-85951022D01*
X40918841Y-85926754D01*
X40917637Y-85902250D01*
X40917637Y-85252248D01*
X40918841Y-85227744D01*
X40922441Y-85203476D01*
X40928402Y-85179677D01*
X40936667Y-85156578D01*
X40947157Y-85134399D01*
X40959769Y-85113356D01*
X40974384Y-85093650D01*
X40990860Y-85075472D01*
X41009038Y-85058996D01*
X41028744Y-85044381D01*
X41049787Y-85031769D01*
X41071966Y-85021279D01*
X41095065Y-85013014D01*
X41118864Y-85007053D01*
X41143132Y-85003453D01*
X41167636Y-85002249D01*
X42067638Y-85002249D01*
X42092142Y-85003453D01*
X42092142Y-85003453D01*
G37*
D23*
G04 #@! TD*
G04 #@! TO.P,R3,2*
G04 #@! TO.N,Net-(J3-Pad1)*
X41617637Y-85577249D03*
D22*
G04 #@! TO.N,Net-(D1-Pad2)*
G04 #@! TO.C,R2*
G36*
X46664142Y-82953453D02*
X46688410Y-82957053D01*
X46712209Y-82963014D01*
X46735308Y-82971279D01*
X46757487Y-82981769D01*
X46778530Y-82994381D01*
X46798236Y-83008996D01*
X46816414Y-83025472D01*
X46832890Y-83043650D01*
X46847505Y-83063356D01*
X46860117Y-83084399D01*
X46870607Y-83106578D01*
X46878872Y-83129677D01*
X46884833Y-83153476D01*
X46888433Y-83177744D01*
X46889637Y-83202248D01*
X46889637Y-83852250D01*
X46888433Y-83876754D01*
X46884833Y-83901022D01*
X46878872Y-83924821D01*
X46870607Y-83947920D01*
X46860117Y-83970099D01*
X46847505Y-83991142D01*
X46832890Y-84010848D01*
X46816414Y-84029026D01*
X46798236Y-84045502D01*
X46778530Y-84060117D01*
X46757487Y-84072729D01*
X46735308Y-84083219D01*
X46712209Y-84091484D01*
X46688410Y-84097445D01*
X46664142Y-84101045D01*
X46639638Y-84102249D01*
X45739636Y-84102249D01*
X45715132Y-84101045D01*
X45690864Y-84097445D01*
X45667065Y-84091484D01*
X45643966Y-84083219D01*
X45621787Y-84072729D01*
X45600744Y-84060117D01*
X45581038Y-84045502D01*
X45562860Y-84029026D01*
X45546384Y-84010848D01*
X45531769Y-83991142D01*
X45519157Y-83970099D01*
X45508667Y-83947920D01*
X45500402Y-83924821D01*
X45494441Y-83901022D01*
X45490841Y-83876754D01*
X45489637Y-83852250D01*
X45489637Y-83202248D01*
X45490841Y-83177744D01*
X45494441Y-83153476D01*
X45500402Y-83129677D01*
X45508667Y-83106578D01*
X45519157Y-83084399D01*
X45531769Y-83063356D01*
X45546384Y-83043650D01*
X45562860Y-83025472D01*
X45581038Y-83008996D01*
X45600744Y-82994381D01*
X45621787Y-82981769D01*
X45643966Y-82971279D01*
X45667065Y-82963014D01*
X45690864Y-82957053D01*
X45715132Y-82953453D01*
X45739636Y-82952249D01*
X46639638Y-82952249D01*
X46664142Y-82953453D01*
X46664142Y-82953453D01*
G37*
D23*
G04 #@! TD*
G04 #@! TO.P,R2,1*
G04 #@! TO.N,Net-(D1-Pad2)*
X46189637Y-83527249D03*
D22*
G04 #@! TO.N,Net-(J3-Pad1)*
G04 #@! TO.C,R2*
G36*
X46664142Y-85003453D02*
X46688410Y-85007053D01*
X46712209Y-85013014D01*
X46735308Y-85021279D01*
X46757487Y-85031769D01*
X46778530Y-85044381D01*
X46798236Y-85058996D01*
X46816414Y-85075472D01*
X46832890Y-85093650D01*
X46847505Y-85113356D01*
X46860117Y-85134399D01*
X46870607Y-85156578D01*
X46878872Y-85179677D01*
X46884833Y-85203476D01*
X46888433Y-85227744D01*
X46889637Y-85252248D01*
X46889637Y-85902250D01*
X46888433Y-85926754D01*
X46884833Y-85951022D01*
X46878872Y-85974821D01*
X46870607Y-85997920D01*
X46860117Y-86020099D01*
X46847505Y-86041142D01*
X46832890Y-86060848D01*
X46816414Y-86079026D01*
X46798236Y-86095502D01*
X46778530Y-86110117D01*
X46757487Y-86122729D01*
X46735308Y-86133219D01*
X46712209Y-86141484D01*
X46688410Y-86147445D01*
X46664142Y-86151045D01*
X46639638Y-86152249D01*
X45739636Y-86152249D01*
X45715132Y-86151045D01*
X45690864Y-86147445D01*
X45667065Y-86141484D01*
X45643966Y-86133219D01*
X45621787Y-86122729D01*
X45600744Y-86110117D01*
X45581038Y-86095502D01*
X45562860Y-86079026D01*
X45546384Y-86060848D01*
X45531769Y-86041142D01*
X45519157Y-86020099D01*
X45508667Y-85997920D01*
X45500402Y-85974821D01*
X45494441Y-85951022D01*
X45490841Y-85926754D01*
X45489637Y-85902250D01*
X45489637Y-85252248D01*
X45490841Y-85227744D01*
X45494441Y-85203476D01*
X45500402Y-85179677D01*
X45508667Y-85156578D01*
X45519157Y-85134399D01*
X45531769Y-85113356D01*
X45546384Y-85093650D01*
X45562860Y-85075472D01*
X45581038Y-85058996D01*
X45600744Y-85044381D01*
X45621787Y-85031769D01*
X45643966Y-85021279D01*
X45667065Y-85013014D01*
X45690864Y-85007053D01*
X45715132Y-85003453D01*
X45739636Y-85002249D01*
X46639638Y-85002249D01*
X46664142Y-85003453D01*
X46664142Y-85003453D01*
G37*
D23*
G04 #@! TD*
G04 #@! TO.P,R2,2*
G04 #@! TO.N,Net-(J3-Pad1)*
X46189637Y-85577249D03*
D13*
G04 #@! TO.P,J2,2*
G04 #@! TO.N,Net-(J2-Pad2)*
X59182000Y-65659000D03*
D12*
G04 #@! TO.P,J2,1*
G04 #@! TO.N,Net-(C1-Pad1)*
X59182000Y-63119000D03*
G04 #@! TD*
G04 #@! TO.P,J1,1*
G04 #@! TO.N,Net-(D2-Pad2)*
X15875000Y-67945000D03*
D13*
G04 #@! TO.P,J1,2*
G04 #@! TO.N,Net-(C1-Pad2)*
X15875000Y-70485000D03*
G04 #@! TD*
D22*
G04 #@! TO.N,Net-(C1-Pad2)*
G04 #@! TO.C,R1*
G36*
X51147505Y-84906204D02*
X51171773Y-84909804D01*
X51195572Y-84915765D01*
X51218671Y-84924030D01*
X51240850Y-84934520D01*
X51261893Y-84947132D01*
X51281599Y-84961747D01*
X51299777Y-84978223D01*
X51316253Y-84996401D01*
X51330868Y-85016107D01*
X51343480Y-85037150D01*
X51353970Y-85059329D01*
X51362235Y-85082428D01*
X51368196Y-85106227D01*
X51371796Y-85130495D01*
X51373000Y-85154999D01*
X51373000Y-85805001D01*
X51371796Y-85829505D01*
X51368196Y-85853773D01*
X51362235Y-85877572D01*
X51353970Y-85900671D01*
X51343480Y-85922850D01*
X51330868Y-85943893D01*
X51316253Y-85963599D01*
X51299777Y-85981777D01*
X51281599Y-85998253D01*
X51261893Y-86012868D01*
X51240850Y-86025480D01*
X51218671Y-86035970D01*
X51195572Y-86044235D01*
X51171773Y-86050196D01*
X51147505Y-86053796D01*
X51123001Y-86055000D01*
X50222999Y-86055000D01*
X50198495Y-86053796D01*
X50174227Y-86050196D01*
X50150428Y-86044235D01*
X50127329Y-86035970D01*
X50105150Y-86025480D01*
X50084107Y-86012868D01*
X50064401Y-85998253D01*
X50046223Y-85981777D01*
X50029747Y-85963599D01*
X50015132Y-85943893D01*
X50002520Y-85922850D01*
X49992030Y-85900671D01*
X49983765Y-85877572D01*
X49977804Y-85853773D01*
X49974204Y-85829505D01*
X49973000Y-85805001D01*
X49973000Y-85154999D01*
X49974204Y-85130495D01*
X49977804Y-85106227D01*
X49983765Y-85082428D01*
X49992030Y-85059329D01*
X50002520Y-85037150D01*
X50015132Y-85016107D01*
X50029747Y-84996401D01*
X50046223Y-84978223D01*
X50064401Y-84961747D01*
X50084107Y-84947132D01*
X50105150Y-84934520D01*
X50127329Y-84924030D01*
X50150428Y-84915765D01*
X50174227Y-84909804D01*
X50198495Y-84906204D01*
X50222999Y-84905000D01*
X51123001Y-84905000D01*
X51147505Y-84906204D01*
X51147505Y-84906204D01*
G37*
D23*
G04 #@! TD*
G04 #@! TO.P,R1,2*
G04 #@! TO.N,Net-(C1-Pad2)*
X50673000Y-85480000D03*
D22*
G04 #@! TO.N,Net-(J4-Pad4)*
G04 #@! TO.C,R1*
G36*
X51147505Y-82856204D02*
X51171773Y-82859804D01*
X51195572Y-82865765D01*
X51218671Y-82874030D01*
X51240850Y-82884520D01*
X51261893Y-82897132D01*
X51281599Y-82911747D01*
X51299777Y-82928223D01*
X51316253Y-82946401D01*
X51330868Y-82966107D01*
X51343480Y-82987150D01*
X51353970Y-83009329D01*
X51362235Y-83032428D01*
X51368196Y-83056227D01*
X51371796Y-83080495D01*
X51373000Y-83104999D01*
X51373000Y-83755001D01*
X51371796Y-83779505D01*
X51368196Y-83803773D01*
X51362235Y-83827572D01*
X51353970Y-83850671D01*
X51343480Y-83872850D01*
X51330868Y-83893893D01*
X51316253Y-83913599D01*
X51299777Y-83931777D01*
X51281599Y-83948253D01*
X51261893Y-83962868D01*
X51240850Y-83975480D01*
X51218671Y-83985970D01*
X51195572Y-83994235D01*
X51171773Y-84000196D01*
X51147505Y-84003796D01*
X51123001Y-84005000D01*
X50222999Y-84005000D01*
X50198495Y-84003796D01*
X50174227Y-84000196D01*
X50150428Y-83994235D01*
X50127329Y-83985970D01*
X50105150Y-83975480D01*
X50084107Y-83962868D01*
X50064401Y-83948253D01*
X50046223Y-83931777D01*
X50029747Y-83913599D01*
X50015132Y-83893893D01*
X50002520Y-83872850D01*
X49992030Y-83850671D01*
X49983765Y-83827572D01*
X49977804Y-83803773D01*
X49974204Y-83779505D01*
X49973000Y-83755001D01*
X49973000Y-83104999D01*
X49974204Y-83080495D01*
X49977804Y-83056227D01*
X49983765Y-83032428D01*
X49992030Y-83009329D01*
X50002520Y-82987150D01*
X50015132Y-82966107D01*
X50029747Y-82946401D01*
X50046223Y-82928223D01*
X50064401Y-82911747D01*
X50084107Y-82897132D01*
X50105150Y-82884520D01*
X50127329Y-82874030D01*
X50150428Y-82865765D01*
X50174227Y-82859804D01*
X50198495Y-82856204D01*
X50222999Y-82855000D01*
X51123001Y-82855000D01*
X51147505Y-82856204D01*
X51147505Y-82856204D01*
G37*
D23*
G04 #@! TD*
G04 #@! TO.P,R1,1*
G04 #@! TO.N,Net-(J4-Pad4)*
X50673000Y-83430000D03*
D24*
G04 #@! TO.P,U1,2*
G04 #@! TO.N,Net-(J4-Pad2)*
X35204000Y-77343000D03*
D25*
X41504000Y-77343000D03*
G04 #@! TO.P,U1,3*
G04 #@! TO.N,Net-(C1-Pad1)*
X41504000Y-75043000D03*
G04 #@! TO.P,U1,1*
G04 #@! TO.N,Net-(C1-Pad2)*
X41504000Y-79643000D03*
G04 #@! TD*
D26*
G04 #@! TO.P,Q1,1*
G04 #@! TO.N,Net-(J4-Pad4)*
X58610500Y-72898000D03*
D27*
G04 #@! TO.P,Q1,2*
G04 #@! TO.N,Net-(J2-Pad2)*
X58610500Y-75438000D03*
G04 #@! TO.P,Q1,3*
G04 #@! TO.N,Net-(C1-Pad2)*
X58610500Y-77978000D03*
G04 #@! TD*
D28*
G04 #@! TO.N,Net-(C1-Pad2)*
X44915000Y-80264000D03*
X52705046Y-86360000D03*
G04 #@! TO.N,Net-(C1-Pad1)*
X26537563Y-71313218D03*
X32385000Y-71120000D03*
G04 #@! TO.N,Net-(PIR1-Pad2)*
X44958000Y-77724000D03*
G04 #@! TO.N,Net-(U2-Pad3)*
X44958000Y-78994000D03*
G04 #@! TO.N,Net-(J4-Pad4)*
X54610000Y-80264000D03*
G04 #@! TO.N,Net-(J4-Pad5)*
X44958000Y-76454000D03*
G04 #@! TO.N,Net-(J4-Pad1)*
X54610000Y-78994000D03*
G04 #@! TO.N,Net-(J4-Pad3)*
X54610000Y-77724000D03*
G04 #@! TD*
D29*
G04 #@! TO.N,Net-(C1-Pad2)*
X57737500Y-78359000D02*
X57785000Y-78359000D01*
X41504000Y-79643000D02*
X41754000Y-79643000D01*
D30*
X44915000Y-80264000D02*
X47051000Y-80264000D01*
D29*
X22098000Y-71111000D02*
X22089000Y-71120000D01*
D30*
X47051000Y-81341000D02*
X47051000Y-80814000D01*
X47051000Y-80814000D02*
X47051000Y-80264000D01*
D29*
X50673000Y-85480000D02*
X50673000Y-84963000D01*
X42125000Y-80264000D02*
X41504000Y-79643000D01*
D30*
X44915000Y-80264000D02*
X42125000Y-80264000D01*
D31*
X22089000Y-71120000D02*
X23359000Y-72390000D01*
X21686000Y-79375000D02*
X20416000Y-80645000D01*
X23359000Y-72390000D02*
X23359000Y-77702000D01*
X23359000Y-77702000D02*
X21686000Y-79375000D01*
X21472000Y-70485000D02*
X22098000Y-71111000D01*
X15875000Y-70485000D02*
X21472000Y-70485000D01*
X58610500Y-80454546D02*
X53105045Y-85960001D01*
X58610500Y-77978000D02*
X58610500Y-80454546D01*
X53105045Y-85960001D02*
X52705046Y-86360000D01*
D30*
X51825046Y-85480000D02*
X52705046Y-86360000D01*
X50673000Y-85480000D02*
X51825046Y-85480000D01*
X50049628Y-84856628D02*
X49296628Y-84856628D01*
X50673000Y-85480000D02*
X50049628Y-84856628D01*
X48895000Y-84455000D02*
X48895000Y-83185000D01*
X49296628Y-84856628D02*
X48895000Y-84455000D01*
X48895000Y-83185000D02*
X47051000Y-81341000D01*
D29*
G04 #@! TO.N,Net-(C1-Pad1)*
X44276000Y-60245000D02*
X44276000Y-60198000D01*
D31*
X45901460Y-60198000D02*
X44276000Y-60198000D01*
X59182000Y-63119000D02*
X56261000Y-60198000D01*
X56261000Y-60198000D02*
X45901460Y-60198000D01*
D29*
X24139000Y-71120000D02*
X26543002Y-71120000D01*
X26543002Y-71120000D02*
X26670002Y-70993000D01*
D31*
X32950685Y-71120000D02*
X32385000Y-71120000D01*
X41504000Y-75043000D02*
X39704000Y-75043000D01*
X39704000Y-75043000D02*
X35781000Y-71120000D01*
X35781000Y-71120000D02*
X32950685Y-71120000D01*
X32385000Y-67310000D02*
X32385000Y-71120000D01*
X32385000Y-62992000D02*
X32385000Y-67310000D01*
X33608000Y-62992000D02*
X32258000Y-62992000D01*
X36402000Y-60198000D02*
X33608000Y-62992000D01*
X44276000Y-60198000D02*
X36402000Y-60198000D01*
D29*
G04 #@! TO.N,Net-(PIR1-Pad2)*
X47051000Y-77724000D02*
X46026000Y-77724000D01*
X46026000Y-77724000D02*
X44958000Y-77724000D01*
G04 #@! TO.N,Net-(U2-Pad3)*
X47051000Y-78994000D02*
X44958000Y-78994000D01*
D31*
G04 #@! TO.N,Net-(D1-Pad2)*
X32981637Y-83527249D02*
X46189637Y-83527249D01*
X32981637Y-83527249D02*
X32981637Y-76492363D01*
X32981637Y-75526637D02*
X24765000Y-67310000D01*
X32981637Y-76492363D02*
X32981637Y-75526637D01*
G04 #@! TO.N,Net-(J3-Pad1)*
X41617637Y-85577249D02*
X46189637Y-85577249D01*
X41617637Y-85577249D02*
X37299637Y-85577249D01*
X37299637Y-85577249D02*
X32981637Y-85577249D01*
X31115000Y-85577249D02*
X32981637Y-85577249D01*
X26416000Y-81645000D02*
X26416000Y-80645000D01*
X31115000Y-85577249D02*
X30348249Y-85577249D01*
X30348249Y-85577249D02*
X26416000Y-81645000D01*
G04 #@! TO.N,Net-(D2-Pad2)*
X15875000Y-67945000D02*
X19685000Y-67945000D01*
X19685000Y-67945000D02*
X24638000Y-62992000D01*
D29*
G04 #@! TO.N,Net-(J4-Pad2)*
X36454000Y-77343000D02*
X41504000Y-77343000D01*
X35204000Y-77343000D02*
X36454000Y-77343000D01*
X41504000Y-77343000D02*
X42754000Y-77343000D01*
D30*
X51426000Y-76454000D02*
X52451000Y-76454000D01*
X49095000Y-74123000D02*
X51426000Y-76454000D01*
X45974000Y-74123000D02*
X49095000Y-74123000D01*
X46990000Y-73107000D02*
X46990000Y-63161000D01*
X45974000Y-74123000D02*
X46990000Y-73107000D01*
X42754000Y-77343000D02*
X45974000Y-74123000D01*
D29*
G04 #@! TO.N,Net-(J4-Pad4)*
X52451000Y-80264000D02*
X54610000Y-80264000D01*
X58563000Y-72898000D02*
X58610500Y-72898000D01*
X56515000Y-74946000D02*
X58563000Y-72898000D01*
X54610000Y-80264000D02*
X56515000Y-78359000D01*
X56515000Y-78359000D02*
X56515000Y-74946000D01*
X52451000Y-80264000D02*
X52451000Y-81652000D01*
X52451000Y-81652000D02*
X50673000Y-83430000D01*
G04 #@! TO.N,Net-(J4-Pad5)*
X47051000Y-76454000D02*
X46026000Y-76454000D01*
X46026000Y-76454000D02*
X44958000Y-76454000D01*
G04 #@! TO.N,Net-(J4-Pad1)*
X52451000Y-78994000D02*
X54610000Y-78994000D01*
G04 #@! TO.N,Net-(J4-Pad3)*
X52451000Y-77724000D02*
X54610000Y-77724000D01*
G04 #@! TD*
D32*
G04 #@! TO.N,Net-(C1-Pad2)*
G36*
X62155000Y-84346028D02*
X62136384Y-84301085D01*
X61113915Y-83278616D01*
X59777995Y-82725260D01*
X58332005Y-82725260D01*
X56996085Y-83278616D01*
X55973616Y-84301085D01*
X55420260Y-85637005D01*
X55420260Y-87082995D01*
X55973616Y-88418915D01*
X56996085Y-89441384D01*
X57041028Y-89460000D01*
X14045000Y-89460000D01*
X14045000Y-85145000D01*
X16998969Y-85145000D01*
X17125864Y-85782945D01*
X17487231Y-86323769D01*
X18028055Y-86685136D01*
X18504969Y-86780000D01*
X20327031Y-86780000D01*
X20803945Y-86685136D01*
X21344769Y-86323769D01*
X21706136Y-85782945D01*
X21833031Y-85145000D01*
X21706136Y-84507055D01*
X21344769Y-83966231D01*
X20803945Y-83604864D01*
X20327031Y-83510000D01*
X18504969Y-83510000D01*
X18028055Y-83604864D01*
X17487231Y-83966231D01*
X17125864Y-84507055D01*
X16998969Y-85145000D01*
X14045000Y-85145000D01*
X14045000Y-80359561D01*
X15981000Y-80359561D01*
X15981000Y-80930439D01*
X16199466Y-81457862D01*
X16603138Y-81861534D01*
X17130561Y-82080000D01*
X17701439Y-82080000D01*
X18228862Y-81861534D01*
X18632534Y-81457862D01*
X18781000Y-81099434D01*
X18781000Y-81422000D01*
X18954058Y-82038020D01*
X19349683Y-82540922D01*
X19907645Y-82854144D01*
X20035566Y-82885124D01*
X20289000Y-82765777D01*
X20289000Y-80772000D01*
X20543000Y-80772000D01*
X20543000Y-82765777D01*
X20796434Y-82885124D01*
X20924355Y-82854144D01*
X21482317Y-82540922D01*
X21877942Y-82038020D01*
X22051000Y-81422000D01*
X22051000Y-80772000D01*
X20543000Y-80772000D01*
X20289000Y-80772000D01*
X20269000Y-80772000D01*
X20269000Y-80518000D01*
X20289000Y-80518000D01*
X20289000Y-78524223D01*
X20543000Y-78524223D01*
X20543000Y-80518000D01*
X22051000Y-80518000D01*
X22051000Y-79868000D01*
X21877942Y-79251980D01*
X21482317Y-78749078D01*
X20924355Y-78435856D01*
X20796434Y-78404876D01*
X20543000Y-78524223D01*
X20289000Y-78524223D01*
X20035566Y-78404876D01*
X19907645Y-78435856D01*
X19349683Y-78749078D01*
X18954058Y-79251980D01*
X18781000Y-79868000D01*
X18781000Y-80190566D01*
X18632534Y-79832138D01*
X18228862Y-79428466D01*
X17701439Y-79210000D01*
X17130561Y-79210000D01*
X16603138Y-79428466D01*
X16199466Y-79832138D01*
X15981000Y-80359561D01*
X14045000Y-80359561D01*
X14045000Y-76145000D01*
X16998969Y-76145000D01*
X17125864Y-76782945D01*
X17487231Y-77323769D01*
X18028055Y-77685136D01*
X18504969Y-77780000D01*
X20327031Y-77780000D01*
X20803945Y-77685136D01*
X21344769Y-77323769D01*
X21706136Y-76782945D01*
X21833031Y-76145000D01*
X21706136Y-75507055D01*
X21344769Y-74966231D01*
X20803945Y-74604864D01*
X20327031Y-74510000D01*
X18504969Y-74510000D01*
X18028055Y-74604864D01*
X17487231Y-74966231D01*
X17125864Y-75507055D01*
X16998969Y-76145000D01*
X14045000Y-76145000D01*
X14045000Y-70841890D01*
X14433524Y-70841890D01*
X14603355Y-71251924D01*
X14993642Y-71680183D01*
X15518108Y-71926486D01*
X15748000Y-71805819D01*
X15748000Y-70612000D01*
X16002000Y-70612000D01*
X16002000Y-71805819D01*
X16231892Y-71926486D01*
X16756358Y-71680183D01*
X17006458Y-71405750D01*
X20879000Y-71405750D01*
X20879000Y-71946310D01*
X20975673Y-72179699D01*
X21154302Y-72358327D01*
X21387691Y-72455000D01*
X21803250Y-72455000D01*
X21962000Y-72296250D01*
X21962000Y-71247000D01*
X21037750Y-71247000D01*
X20879000Y-71405750D01*
X17006458Y-71405750D01*
X17146645Y-71251924D01*
X17316476Y-70841890D01*
X17195155Y-70612000D01*
X16002000Y-70612000D01*
X15748000Y-70612000D01*
X14554845Y-70612000D01*
X14433524Y-70841890D01*
X14045000Y-70841890D01*
X14045000Y-67095000D01*
X14377560Y-67095000D01*
X14377560Y-68795000D01*
X14426843Y-69042765D01*
X14567191Y-69252809D01*
X14777235Y-69393157D01*
X14880708Y-69413739D01*
X14603355Y-69718076D01*
X14433524Y-70128110D01*
X14554845Y-70358000D01*
X15748000Y-70358000D01*
X15748000Y-70338000D01*
X16002000Y-70338000D01*
X16002000Y-70358000D01*
X17195155Y-70358000D01*
X17229093Y-70293690D01*
X20879000Y-70293690D01*
X20879000Y-70834250D01*
X21037750Y-70993000D01*
X21962000Y-70993000D01*
X21962000Y-69943750D01*
X22216000Y-69943750D01*
X22216000Y-70993000D01*
X22236000Y-70993000D01*
X22236000Y-71247000D01*
X22216000Y-71247000D01*
X22216000Y-72296250D01*
X22374750Y-72455000D01*
X22790309Y-72455000D01*
X23023698Y-72358327D01*
X23178623Y-72203403D01*
X23179414Y-72204586D01*
X23470564Y-72399127D01*
X23813999Y-72467440D01*
X24464001Y-72467440D01*
X24807436Y-72399127D01*
X25098586Y-72204586D01*
X25293127Y-71913436D01*
X25299778Y-71880000D01*
X25652056Y-71880000D01*
X25660132Y-71899498D01*
X25951283Y-72190649D01*
X26331689Y-72348218D01*
X26743437Y-72348218D01*
X27123843Y-72190649D01*
X27414994Y-71899498D01*
X27554351Y-71563061D01*
X31946638Y-75955349D01*
X31946637Y-76594297D01*
X31946638Y-76594302D01*
X31946637Y-82534530D01*
X31897051Y-82567663D01*
X31702510Y-82858813D01*
X31634197Y-83202248D01*
X31634197Y-83852250D01*
X31702510Y-84195685D01*
X31897051Y-84486835D01*
X31979984Y-84542249D01*
X30776960Y-84542249D01*
X28063440Y-81828730D01*
X28063440Y-78645000D01*
X28014157Y-78397235D01*
X27873809Y-78187191D01*
X27663765Y-78046843D01*
X27416000Y-77997560D01*
X25416000Y-77997560D01*
X25168235Y-78046843D01*
X24958191Y-78187191D01*
X24817843Y-78397235D01*
X24768560Y-78645000D01*
X24768560Y-82645000D01*
X24817843Y-82892765D01*
X24958191Y-83102809D01*
X25168235Y-83243157D01*
X25416000Y-83292440D01*
X26599730Y-83292440D01*
X29544314Y-86237025D01*
X29602056Y-86323442D01*
X29846838Y-86487000D01*
X29944412Y-86552197D01*
X30348249Y-86632525D01*
X30450183Y-86612249D01*
X32009916Y-86612249D01*
X32188201Y-86731376D01*
X32531636Y-86799689D01*
X33431638Y-86799689D01*
X33775073Y-86731376D01*
X33953358Y-86612249D01*
X36327916Y-86612249D01*
X36506201Y-86731376D01*
X36849636Y-86799689D01*
X37749638Y-86799689D01*
X38093073Y-86731376D01*
X38271358Y-86612249D01*
X40645916Y-86612249D01*
X40824201Y-86731376D01*
X41167636Y-86799689D01*
X42067638Y-86799689D01*
X42411073Y-86731376D01*
X42589358Y-86612249D01*
X45217916Y-86612249D01*
X45396201Y-86731376D01*
X45739636Y-86799689D01*
X46639638Y-86799689D01*
X46983073Y-86731376D01*
X47274223Y-86536835D01*
X47468764Y-86245685D01*
X47537077Y-85902250D01*
X47537077Y-85765750D01*
X49338000Y-85765750D01*
X49338000Y-86181309D01*
X49434673Y-86414698D01*
X49613301Y-86593327D01*
X49846690Y-86690000D01*
X50387250Y-86690000D01*
X50546000Y-86531250D01*
X50546000Y-85607000D01*
X50800000Y-85607000D01*
X50800000Y-86531250D01*
X50958750Y-86690000D01*
X51499310Y-86690000D01*
X51732699Y-86593327D01*
X51911327Y-86414698D01*
X52008000Y-86181309D01*
X52008000Y-85765750D01*
X51849250Y-85607000D01*
X50800000Y-85607000D01*
X50546000Y-85607000D01*
X49496750Y-85607000D01*
X49338000Y-85765750D01*
X47537077Y-85765750D01*
X47537077Y-85252248D01*
X47468764Y-84908813D01*
X47274223Y-84617663D01*
X47176324Y-84552249D01*
X47274223Y-84486835D01*
X47468764Y-84195685D01*
X47537077Y-83852250D01*
X47537077Y-83202248D01*
X47468764Y-82858813D01*
X47274223Y-82567663D01*
X46983073Y-82373122D01*
X46639638Y-82304809D01*
X45739636Y-82304809D01*
X45396201Y-82373122D01*
X45217916Y-82492249D01*
X42589358Y-82492249D01*
X42411073Y-82373122D01*
X42067638Y-82304809D01*
X41167636Y-82304809D01*
X40824201Y-82373122D01*
X40645916Y-82492249D01*
X38271358Y-82492249D01*
X38093073Y-82373122D01*
X37749638Y-82304809D01*
X36849636Y-82304809D01*
X36506201Y-82373122D01*
X36327916Y-82492249D01*
X34016637Y-82492249D01*
X34016637Y-79928750D01*
X39869000Y-79928750D01*
X39869000Y-80519310D01*
X39965673Y-80752699D01*
X40144302Y-80931327D01*
X40377691Y-81028000D01*
X41218250Y-81028000D01*
X41377000Y-80869250D01*
X41377000Y-79770000D01*
X41631000Y-79770000D01*
X41631000Y-80869250D01*
X41789750Y-81028000D01*
X42630309Y-81028000D01*
X42863698Y-80931327D01*
X43042327Y-80752699D01*
X43126391Y-80549750D01*
X45641000Y-80549750D01*
X45641000Y-80690310D01*
X45737673Y-80923699D01*
X45916302Y-81102327D01*
X46149691Y-81199000D01*
X46765250Y-81199000D01*
X46924000Y-81040250D01*
X46924000Y-80391000D01*
X47178000Y-80391000D01*
X47178000Y-81040250D01*
X47336750Y-81199000D01*
X47952309Y-81199000D01*
X48185698Y-81102327D01*
X48364327Y-80923699D01*
X48461000Y-80690310D01*
X48461000Y-80549750D01*
X48302250Y-80391000D01*
X47178000Y-80391000D01*
X46924000Y-80391000D01*
X45799750Y-80391000D01*
X45641000Y-80549750D01*
X43126391Y-80549750D01*
X43139000Y-80519310D01*
X43139000Y-79928750D01*
X42980250Y-79770000D01*
X41631000Y-79770000D01*
X41377000Y-79770000D01*
X40027750Y-79770000D01*
X39869000Y-79928750D01*
X34016637Y-79928750D01*
X34016637Y-79853172D01*
X34204000Y-79890440D01*
X36204000Y-79890440D01*
X36451765Y-79841157D01*
X36661809Y-79700809D01*
X36802157Y-79490765D01*
X36851440Y-79243000D01*
X36851440Y-78103000D01*
X39858549Y-78103000D01*
X39905843Y-78340765D01*
X40006927Y-78492047D01*
X39965673Y-78533301D01*
X39869000Y-78766690D01*
X39869000Y-79357250D01*
X40027750Y-79516000D01*
X41377000Y-79516000D01*
X41377000Y-79496000D01*
X41631000Y-79496000D01*
X41631000Y-79516000D01*
X42980250Y-79516000D01*
X43139000Y-79357250D01*
X43139000Y-78766690D01*
X43042327Y-78533301D01*
X43001073Y-78492047D01*
X43102157Y-78340765D01*
X43140241Y-78149302D01*
X43318154Y-78030424D01*
X43988441Y-77360137D01*
X43923000Y-77518126D01*
X43923000Y-77929874D01*
X44080569Y-78310280D01*
X44129289Y-78359000D01*
X44080569Y-78407720D01*
X43923000Y-78788126D01*
X43923000Y-79199874D01*
X44080569Y-79580280D01*
X44371720Y-79871431D01*
X44752126Y-80029000D01*
X45163874Y-80029000D01*
X45544280Y-79871431D01*
X45661711Y-79754000D01*
X45675666Y-79754000D01*
X45641000Y-79837690D01*
X45641000Y-79978250D01*
X45799750Y-80137000D01*
X46924000Y-80137000D01*
X46924000Y-80117000D01*
X47178000Y-80117000D01*
X47178000Y-80137000D01*
X48302250Y-80137000D01*
X48461000Y-79978250D01*
X48461000Y-79837690D01*
X48371232Y-79620972D01*
X48424157Y-79541765D01*
X48473440Y-79294000D01*
X48473440Y-78694000D01*
X48424157Y-78446235D01*
X48365868Y-78359000D01*
X48424157Y-78271765D01*
X48473440Y-78024000D01*
X48473440Y-77424000D01*
X48424157Y-77176235D01*
X48365868Y-77089000D01*
X48424157Y-77001765D01*
X48473440Y-76754000D01*
X48473440Y-76154000D01*
X48424157Y-75906235D01*
X48283809Y-75696191D01*
X48073765Y-75555843D01*
X47826000Y-75506560D01*
X46276000Y-75506560D01*
X46028235Y-75555843D01*
X45821470Y-75694000D01*
X45661711Y-75694000D01*
X45658145Y-75690434D01*
X46340579Y-75008000D01*
X48728422Y-75008000D01*
X50738577Y-77018156D01*
X50787951Y-77092049D01*
X50861844Y-77141423D01*
X50861845Y-77141424D01*
X51007213Y-77238556D01*
X51058615Y-77272902D01*
X51028560Y-77424000D01*
X51028560Y-78024000D01*
X51077843Y-78271765D01*
X51136132Y-78359000D01*
X51077843Y-78446235D01*
X51028560Y-78694000D01*
X51028560Y-79294000D01*
X51077843Y-79541765D01*
X51136132Y-79629000D01*
X51077843Y-79716235D01*
X51028560Y-79964000D01*
X51028560Y-80564000D01*
X51077843Y-80811765D01*
X51218191Y-81021809D01*
X51428235Y-81162157D01*
X51676000Y-81211440D01*
X51691001Y-81211440D01*
X51691001Y-81337197D01*
X50820639Y-82207560D01*
X50222999Y-82207560D01*
X49879564Y-82275873D01*
X49588414Y-82470414D01*
X49393873Y-82761564D01*
X49325560Y-83104999D01*
X49325560Y-83755001D01*
X49393873Y-84098436D01*
X49588414Y-84389586D01*
X49589597Y-84390377D01*
X49434673Y-84545302D01*
X49338000Y-84778691D01*
X49338000Y-85194250D01*
X49496750Y-85353000D01*
X50546000Y-85353000D01*
X50546000Y-85333000D01*
X50800000Y-85333000D01*
X50800000Y-85353000D01*
X51849250Y-85353000D01*
X52008000Y-85194250D01*
X52008000Y-84778691D01*
X51911327Y-84545302D01*
X51756403Y-84390377D01*
X51757586Y-84389586D01*
X51952127Y-84098436D01*
X52020440Y-83755001D01*
X52020440Y-83157361D01*
X52935473Y-82242329D01*
X52998929Y-82199929D01*
X53099886Y-82048837D01*
X53166904Y-81948538D01*
X53207005Y-81746934D01*
X53211000Y-81726852D01*
X53211000Y-81726848D01*
X53225888Y-81652000D01*
X53211000Y-81577152D01*
X53211000Y-81211440D01*
X53226000Y-81211440D01*
X53473765Y-81162157D01*
X53680530Y-81024000D01*
X53906289Y-81024000D01*
X54023720Y-81141431D01*
X54404126Y-81299000D01*
X54815874Y-81299000D01*
X55196280Y-81141431D01*
X55487431Y-80850280D01*
X55645000Y-80469874D01*
X55645000Y-80303801D01*
X56999473Y-78949329D01*
X57062929Y-78906929D01*
X57183240Y-78726871D01*
X57234527Y-78844924D01*
X57667409Y-79287318D01*
X58236636Y-79530380D01*
X58483500Y-79403572D01*
X58483500Y-78105000D01*
X58737500Y-78105000D01*
X58737500Y-79403572D01*
X58984364Y-79530380D01*
X59553591Y-79287318D01*
X59986473Y-78844924D01*
X60201063Y-78350980D01*
X60081094Y-78105000D01*
X58737500Y-78105000D01*
X58483500Y-78105000D01*
X58463500Y-78105000D01*
X58463500Y-77851000D01*
X58483500Y-77851000D01*
X58483500Y-77831000D01*
X58737500Y-77831000D01*
X58737500Y-77851000D01*
X60081094Y-77851000D01*
X60201063Y-77605020D01*
X59986473Y-77111076D01*
X59601026Y-76717159D01*
X59802523Y-76582523D01*
X60153391Y-76057411D01*
X60276600Y-75438000D01*
X60153391Y-74818589D01*
X59891412Y-74426509D01*
X60068309Y-74308309D01*
X60208657Y-74098265D01*
X60257940Y-73850500D01*
X60257940Y-71945500D01*
X60208657Y-71697735D01*
X60068309Y-71487691D01*
X59858265Y-71347343D01*
X59610500Y-71298060D01*
X57610500Y-71298060D01*
X57362735Y-71347343D01*
X57152691Y-71487691D01*
X57012343Y-71697735D01*
X56963060Y-71945500D01*
X56963060Y-73423138D01*
X56030528Y-74355671D01*
X55967072Y-74398071D01*
X55924672Y-74461527D01*
X55924671Y-74461528D01*
X55799097Y-74649463D01*
X55740112Y-74946000D01*
X55755001Y-75020852D01*
X55755000Y-78044198D01*
X55439455Y-78359744D01*
X55438711Y-78359000D01*
X55487431Y-78310280D01*
X55645000Y-77929874D01*
X55645000Y-77518126D01*
X55487431Y-77137720D01*
X55196280Y-76846569D01*
X54815874Y-76689000D01*
X54404126Y-76689000D01*
X54023720Y-76846569D01*
X53906289Y-76964000D01*
X53831669Y-76964000D01*
X53873440Y-76754000D01*
X53873440Y-76154000D01*
X53824157Y-75906235D01*
X53683809Y-75696191D01*
X53473765Y-75555843D01*
X53226000Y-75506560D01*
X51730139Y-75506560D01*
X49782424Y-73558846D01*
X49733049Y-73484951D01*
X49440310Y-73289348D01*
X49182165Y-73238000D01*
X49182161Y-73238000D01*
X49095000Y-73220663D01*
X49007839Y-73238000D01*
X47866281Y-73238000D01*
X47875000Y-73194165D01*
X47875000Y-73194161D01*
X47892337Y-73107000D01*
X47875000Y-73019839D01*
X47875000Y-64101478D01*
X48087765Y-64059157D01*
X48297809Y-63918809D01*
X48438157Y-63708765D01*
X48447184Y-63663381D01*
X48459375Y-63681625D01*
X48950582Y-64009839D01*
X49383744Y-64096000D01*
X49676256Y-64096000D01*
X50109418Y-64009839D01*
X50600625Y-63681625D01*
X50813843Y-63362522D01*
X50874817Y-63492358D01*
X51303076Y-63882645D01*
X51713110Y-64052476D01*
X51943000Y-63931155D01*
X51943000Y-62738000D01*
X52197000Y-62738000D01*
X52197000Y-63931155D01*
X52426890Y-64052476D01*
X52836924Y-63882645D01*
X53265183Y-63492358D01*
X53511486Y-62967892D01*
X53390819Y-62738000D01*
X52197000Y-62738000D01*
X51943000Y-62738000D01*
X51923000Y-62738000D01*
X51923000Y-62484000D01*
X51943000Y-62484000D01*
X51943000Y-62464000D01*
X52197000Y-62464000D01*
X52197000Y-62484000D01*
X53390819Y-62484000D01*
X53511486Y-62254108D01*
X53265183Y-61729642D01*
X52836924Y-61339355D01*
X52580144Y-61233000D01*
X55832290Y-61233000D01*
X57684560Y-63085271D01*
X57684560Y-63969000D01*
X57733843Y-64216765D01*
X57874191Y-64426809D01*
X58084235Y-64567157D01*
X58129619Y-64576184D01*
X58111375Y-64588375D01*
X57783161Y-65079582D01*
X57667908Y-65659000D01*
X57783161Y-66238418D01*
X58111375Y-66729625D01*
X58602582Y-67057839D01*
X59035744Y-67144000D01*
X59328256Y-67144000D01*
X59761418Y-67057839D01*
X60252625Y-66729625D01*
X60580839Y-66238418D01*
X60696092Y-65659000D01*
X60580839Y-65079582D01*
X60252625Y-64588375D01*
X60234381Y-64576184D01*
X60279765Y-64567157D01*
X60489809Y-64426809D01*
X60630157Y-64216765D01*
X60679440Y-63969000D01*
X60679440Y-62269000D01*
X60630157Y-62021235D01*
X60489809Y-61811191D01*
X60279765Y-61670843D01*
X60032000Y-61621560D01*
X59148271Y-61621560D01*
X57064937Y-59538227D01*
X57007193Y-59451807D01*
X56664837Y-59223052D01*
X56362935Y-59163000D01*
X56362934Y-59163000D01*
X56261000Y-59142724D01*
X56159066Y-59163000D01*
X36503934Y-59163000D01*
X36402000Y-59142724D01*
X36300065Y-59163000D01*
X35998163Y-59223052D01*
X35655807Y-59451807D01*
X35598065Y-59538224D01*
X33747645Y-61388645D01*
X33605765Y-61293843D01*
X33358000Y-61244560D01*
X31158000Y-61244560D01*
X30910235Y-61293843D01*
X30700191Y-61434191D01*
X30559843Y-61644235D01*
X30510560Y-61892000D01*
X30510560Y-64092000D01*
X30559843Y-64339765D01*
X30700191Y-64549809D01*
X30910235Y-64690157D01*
X31158000Y-64739440D01*
X31350000Y-64739440D01*
X31350001Y-65562560D01*
X31285000Y-65562560D01*
X31037235Y-65611843D01*
X30827191Y-65752191D01*
X30686843Y-65962235D01*
X30637560Y-66210000D01*
X30637560Y-68410000D01*
X30686843Y-68657765D01*
X30827191Y-68867809D01*
X31037235Y-69008157D01*
X31285000Y-69057440D01*
X31350000Y-69057440D01*
X31350001Y-70914124D01*
X31350000Y-70914126D01*
X31350000Y-71018065D01*
X31329724Y-71120000D01*
X31350000Y-71221935D01*
X31350000Y-71325874D01*
X31389776Y-71421902D01*
X31410052Y-71523837D01*
X31467793Y-71610253D01*
X31507569Y-71706280D01*
X31581065Y-71779776D01*
X31638807Y-71866193D01*
X31725224Y-71923935D01*
X31798720Y-71997431D01*
X31894747Y-72037207D01*
X31981163Y-72094948D01*
X32083099Y-72115224D01*
X32179126Y-72155000D01*
X32283066Y-72155000D01*
X32385000Y-72175276D01*
X32486935Y-72155000D01*
X35352290Y-72155000D01*
X38900065Y-75702776D01*
X38957807Y-75789193D01*
X39191827Y-75945560D01*
X39300163Y-76017948D01*
X39704000Y-76098276D01*
X39805934Y-76078000D01*
X39930723Y-76078000D01*
X40007564Y-76193000D01*
X39905843Y-76345235D01*
X39858549Y-76583000D01*
X36851440Y-76583000D01*
X36851440Y-75443000D01*
X36802157Y-75195235D01*
X36661809Y-74985191D01*
X36451765Y-74844843D01*
X36204000Y-74795560D01*
X34204000Y-74795560D01*
X33956235Y-74844843D01*
X33828078Y-74930476D01*
X33727830Y-74780444D01*
X33641413Y-74722702D01*
X26483341Y-67564631D01*
X26533990Y-67310000D01*
X26399334Y-66633037D01*
X26015865Y-66059135D01*
X25441963Y-65675666D01*
X24935880Y-65575000D01*
X24594120Y-65575000D01*
X24088037Y-65675666D01*
X23514135Y-66059135D01*
X23130666Y-66633037D01*
X22996010Y-67310000D01*
X23130666Y-67986963D01*
X23514135Y-68560865D01*
X24088037Y-68944334D01*
X24594120Y-69045000D01*
X24935880Y-69045000D01*
X25019631Y-69028341D01*
X26287720Y-70296430D01*
X26134249Y-70360000D01*
X25299778Y-70360000D01*
X25293127Y-70326564D01*
X25098586Y-70035414D01*
X24807436Y-69840873D01*
X24464001Y-69772560D01*
X23813999Y-69772560D01*
X23470564Y-69840873D01*
X23179414Y-70035414D01*
X23178623Y-70036597D01*
X23023698Y-69881673D01*
X22790309Y-69785000D01*
X22374750Y-69785000D01*
X22216000Y-69943750D01*
X21962000Y-69943750D01*
X21803250Y-69785000D01*
X21387691Y-69785000D01*
X21154302Y-69881673D01*
X20975673Y-70060301D01*
X20879000Y-70293690D01*
X17229093Y-70293690D01*
X17316476Y-70128110D01*
X17146645Y-69718076D01*
X16869292Y-69413739D01*
X16972765Y-69393157D01*
X17182809Y-69252809D01*
X17323157Y-69042765D01*
X17335642Y-68980000D01*
X19583066Y-68980000D01*
X19685000Y-69000276D01*
X19786934Y-68980000D01*
X19786935Y-68980000D01*
X20088837Y-68919948D01*
X20431193Y-68691193D01*
X20488937Y-68604773D01*
X24383370Y-64710341D01*
X24467120Y-64727000D01*
X24808880Y-64727000D01*
X25314963Y-64626334D01*
X25888865Y-64242865D01*
X26272334Y-63668963D01*
X26406990Y-62992000D01*
X26272334Y-62315037D01*
X25888865Y-61741135D01*
X25314963Y-61357666D01*
X24808880Y-61257000D01*
X24467120Y-61257000D01*
X23961037Y-61357666D01*
X23387135Y-61741135D01*
X23003666Y-62315037D01*
X22869010Y-62992000D01*
X22919659Y-63246630D01*
X19256290Y-66910000D01*
X17335642Y-66910000D01*
X17323157Y-66847235D01*
X17182809Y-66637191D01*
X16972765Y-66496843D01*
X16725000Y-66447560D01*
X15025000Y-66447560D01*
X14777235Y-66496843D01*
X14567191Y-66637191D01*
X14426843Y-66847235D01*
X14377560Y-67095000D01*
X14045000Y-67095000D01*
X14045000Y-63608972D01*
X14063616Y-63653915D01*
X15086085Y-64676384D01*
X16422005Y-65229740D01*
X17867995Y-65229740D01*
X19203915Y-64676384D01*
X20226384Y-63653915D01*
X20779740Y-62317995D01*
X20779740Y-60872005D01*
X20226384Y-59536085D01*
X19203915Y-58513616D01*
X19158972Y-58495000D01*
X62155001Y-58495000D01*
X62155000Y-84346028D01*
X62155000Y-84346028D01*
G37*
X62155000Y-84346028D02*
X62136384Y-84301085D01*
X61113915Y-83278616D01*
X59777995Y-82725260D01*
X58332005Y-82725260D01*
X56996085Y-83278616D01*
X55973616Y-84301085D01*
X55420260Y-85637005D01*
X55420260Y-87082995D01*
X55973616Y-88418915D01*
X56996085Y-89441384D01*
X57041028Y-89460000D01*
X14045000Y-89460000D01*
X14045000Y-85145000D01*
X16998969Y-85145000D01*
X17125864Y-85782945D01*
X17487231Y-86323769D01*
X18028055Y-86685136D01*
X18504969Y-86780000D01*
X20327031Y-86780000D01*
X20803945Y-86685136D01*
X21344769Y-86323769D01*
X21706136Y-85782945D01*
X21833031Y-85145000D01*
X21706136Y-84507055D01*
X21344769Y-83966231D01*
X20803945Y-83604864D01*
X20327031Y-83510000D01*
X18504969Y-83510000D01*
X18028055Y-83604864D01*
X17487231Y-83966231D01*
X17125864Y-84507055D01*
X16998969Y-85145000D01*
X14045000Y-85145000D01*
X14045000Y-80359561D01*
X15981000Y-80359561D01*
X15981000Y-80930439D01*
X16199466Y-81457862D01*
X16603138Y-81861534D01*
X17130561Y-82080000D01*
X17701439Y-82080000D01*
X18228862Y-81861534D01*
X18632534Y-81457862D01*
X18781000Y-81099434D01*
X18781000Y-81422000D01*
X18954058Y-82038020D01*
X19349683Y-82540922D01*
X19907645Y-82854144D01*
X20035566Y-82885124D01*
X20289000Y-82765777D01*
X20289000Y-80772000D01*
X20543000Y-80772000D01*
X20543000Y-82765777D01*
X20796434Y-82885124D01*
X20924355Y-82854144D01*
X21482317Y-82540922D01*
X21877942Y-82038020D01*
X22051000Y-81422000D01*
X22051000Y-80772000D01*
X20543000Y-80772000D01*
X20289000Y-80772000D01*
X20269000Y-80772000D01*
X20269000Y-80518000D01*
X20289000Y-80518000D01*
X20289000Y-78524223D01*
X20543000Y-78524223D01*
X20543000Y-80518000D01*
X22051000Y-80518000D01*
X22051000Y-79868000D01*
X21877942Y-79251980D01*
X21482317Y-78749078D01*
X20924355Y-78435856D01*
X20796434Y-78404876D01*
X20543000Y-78524223D01*
X20289000Y-78524223D01*
X20035566Y-78404876D01*
X19907645Y-78435856D01*
X19349683Y-78749078D01*
X18954058Y-79251980D01*
X18781000Y-79868000D01*
X18781000Y-80190566D01*
X18632534Y-79832138D01*
X18228862Y-79428466D01*
X17701439Y-79210000D01*
X17130561Y-79210000D01*
X16603138Y-79428466D01*
X16199466Y-79832138D01*
X15981000Y-80359561D01*
X14045000Y-80359561D01*
X14045000Y-76145000D01*
X16998969Y-76145000D01*
X17125864Y-76782945D01*
X17487231Y-77323769D01*
X18028055Y-77685136D01*
X18504969Y-77780000D01*
X20327031Y-77780000D01*
X20803945Y-77685136D01*
X21344769Y-77323769D01*
X21706136Y-76782945D01*
X21833031Y-76145000D01*
X21706136Y-75507055D01*
X21344769Y-74966231D01*
X20803945Y-74604864D01*
X20327031Y-74510000D01*
X18504969Y-74510000D01*
X18028055Y-74604864D01*
X17487231Y-74966231D01*
X17125864Y-75507055D01*
X16998969Y-76145000D01*
X14045000Y-76145000D01*
X14045000Y-70841890D01*
X14433524Y-70841890D01*
X14603355Y-71251924D01*
X14993642Y-71680183D01*
X15518108Y-71926486D01*
X15748000Y-71805819D01*
X15748000Y-70612000D01*
X16002000Y-70612000D01*
X16002000Y-71805819D01*
X16231892Y-71926486D01*
X16756358Y-71680183D01*
X17006458Y-71405750D01*
X20879000Y-71405750D01*
X20879000Y-71946310D01*
X20975673Y-72179699D01*
X21154302Y-72358327D01*
X21387691Y-72455000D01*
X21803250Y-72455000D01*
X21962000Y-72296250D01*
X21962000Y-71247000D01*
X21037750Y-71247000D01*
X20879000Y-71405750D01*
X17006458Y-71405750D01*
X17146645Y-71251924D01*
X17316476Y-70841890D01*
X17195155Y-70612000D01*
X16002000Y-70612000D01*
X15748000Y-70612000D01*
X14554845Y-70612000D01*
X14433524Y-70841890D01*
X14045000Y-70841890D01*
X14045000Y-67095000D01*
X14377560Y-67095000D01*
X14377560Y-68795000D01*
X14426843Y-69042765D01*
X14567191Y-69252809D01*
X14777235Y-69393157D01*
X14880708Y-69413739D01*
X14603355Y-69718076D01*
X14433524Y-70128110D01*
X14554845Y-70358000D01*
X15748000Y-70358000D01*
X15748000Y-70338000D01*
X16002000Y-70338000D01*
X16002000Y-70358000D01*
X17195155Y-70358000D01*
X17229093Y-70293690D01*
X20879000Y-70293690D01*
X20879000Y-70834250D01*
X21037750Y-70993000D01*
X21962000Y-70993000D01*
X21962000Y-69943750D01*
X22216000Y-69943750D01*
X22216000Y-70993000D01*
X22236000Y-70993000D01*
X22236000Y-71247000D01*
X22216000Y-71247000D01*
X22216000Y-72296250D01*
X22374750Y-72455000D01*
X22790309Y-72455000D01*
X23023698Y-72358327D01*
X23178623Y-72203403D01*
X23179414Y-72204586D01*
X23470564Y-72399127D01*
X23813999Y-72467440D01*
X24464001Y-72467440D01*
X24807436Y-72399127D01*
X25098586Y-72204586D01*
X25293127Y-71913436D01*
X25299778Y-71880000D01*
X25652056Y-71880000D01*
X25660132Y-71899498D01*
X25951283Y-72190649D01*
X26331689Y-72348218D01*
X26743437Y-72348218D01*
X27123843Y-72190649D01*
X27414994Y-71899498D01*
X27554351Y-71563061D01*
X31946638Y-75955349D01*
X31946637Y-76594297D01*
X31946638Y-76594302D01*
X31946637Y-82534530D01*
X31897051Y-82567663D01*
X31702510Y-82858813D01*
X31634197Y-83202248D01*
X31634197Y-83852250D01*
X31702510Y-84195685D01*
X31897051Y-84486835D01*
X31979984Y-84542249D01*
X30776960Y-84542249D01*
X28063440Y-81828730D01*
X28063440Y-78645000D01*
X28014157Y-78397235D01*
X27873809Y-78187191D01*
X27663765Y-78046843D01*
X27416000Y-77997560D01*
X25416000Y-77997560D01*
X25168235Y-78046843D01*
X24958191Y-78187191D01*
X24817843Y-78397235D01*
X24768560Y-78645000D01*
X24768560Y-82645000D01*
X24817843Y-82892765D01*
X24958191Y-83102809D01*
X25168235Y-83243157D01*
X25416000Y-83292440D01*
X26599730Y-83292440D01*
X29544314Y-86237025D01*
X29602056Y-86323442D01*
X29846838Y-86487000D01*
X29944412Y-86552197D01*
X30348249Y-86632525D01*
X30450183Y-86612249D01*
X32009916Y-86612249D01*
X32188201Y-86731376D01*
X32531636Y-86799689D01*
X33431638Y-86799689D01*
X33775073Y-86731376D01*
X33953358Y-86612249D01*
X36327916Y-86612249D01*
X36506201Y-86731376D01*
X36849636Y-86799689D01*
X37749638Y-86799689D01*
X38093073Y-86731376D01*
X38271358Y-86612249D01*
X40645916Y-86612249D01*
X40824201Y-86731376D01*
X41167636Y-86799689D01*
X42067638Y-86799689D01*
X42411073Y-86731376D01*
X42589358Y-86612249D01*
X45217916Y-86612249D01*
X45396201Y-86731376D01*
X45739636Y-86799689D01*
X46639638Y-86799689D01*
X46983073Y-86731376D01*
X47274223Y-86536835D01*
X47468764Y-86245685D01*
X47537077Y-85902250D01*
X47537077Y-85765750D01*
X49338000Y-85765750D01*
X49338000Y-86181309D01*
X49434673Y-86414698D01*
X49613301Y-86593327D01*
X49846690Y-86690000D01*
X50387250Y-86690000D01*
X50546000Y-86531250D01*
X50546000Y-85607000D01*
X50800000Y-85607000D01*
X50800000Y-86531250D01*
X50958750Y-86690000D01*
X51499310Y-86690000D01*
X51732699Y-86593327D01*
X51911327Y-86414698D01*
X52008000Y-86181309D01*
X52008000Y-85765750D01*
X51849250Y-85607000D01*
X50800000Y-85607000D01*
X50546000Y-85607000D01*
X49496750Y-85607000D01*
X49338000Y-85765750D01*
X47537077Y-85765750D01*
X47537077Y-85252248D01*
X47468764Y-84908813D01*
X47274223Y-84617663D01*
X47176324Y-84552249D01*
X47274223Y-84486835D01*
X47468764Y-84195685D01*
X47537077Y-83852250D01*
X47537077Y-83202248D01*
X47468764Y-82858813D01*
X47274223Y-82567663D01*
X46983073Y-82373122D01*
X46639638Y-82304809D01*
X45739636Y-82304809D01*
X45396201Y-82373122D01*
X45217916Y-82492249D01*
X42589358Y-82492249D01*
X42411073Y-82373122D01*
X42067638Y-82304809D01*
X41167636Y-82304809D01*
X40824201Y-82373122D01*
X40645916Y-82492249D01*
X38271358Y-82492249D01*
X38093073Y-82373122D01*
X37749638Y-82304809D01*
X36849636Y-82304809D01*
X36506201Y-82373122D01*
X36327916Y-82492249D01*
X34016637Y-82492249D01*
X34016637Y-79928750D01*
X39869000Y-79928750D01*
X39869000Y-80519310D01*
X39965673Y-80752699D01*
X40144302Y-80931327D01*
X40377691Y-81028000D01*
X41218250Y-81028000D01*
X41377000Y-80869250D01*
X41377000Y-79770000D01*
X41631000Y-79770000D01*
X41631000Y-80869250D01*
X41789750Y-81028000D01*
X42630309Y-81028000D01*
X42863698Y-80931327D01*
X43042327Y-80752699D01*
X43126391Y-80549750D01*
X45641000Y-80549750D01*
X45641000Y-80690310D01*
X45737673Y-80923699D01*
X45916302Y-81102327D01*
X46149691Y-81199000D01*
X46765250Y-81199000D01*
X46924000Y-81040250D01*
X46924000Y-80391000D01*
X47178000Y-80391000D01*
X47178000Y-81040250D01*
X47336750Y-81199000D01*
X47952309Y-81199000D01*
X48185698Y-81102327D01*
X48364327Y-80923699D01*
X48461000Y-80690310D01*
X48461000Y-80549750D01*
X48302250Y-80391000D01*
X47178000Y-80391000D01*
X46924000Y-80391000D01*
X45799750Y-80391000D01*
X45641000Y-80549750D01*
X43126391Y-80549750D01*
X43139000Y-80519310D01*
X43139000Y-79928750D01*
X42980250Y-79770000D01*
X41631000Y-79770000D01*
X41377000Y-79770000D01*
X40027750Y-79770000D01*
X39869000Y-79928750D01*
X34016637Y-79928750D01*
X34016637Y-79853172D01*
X34204000Y-79890440D01*
X36204000Y-79890440D01*
X36451765Y-79841157D01*
X36661809Y-79700809D01*
X36802157Y-79490765D01*
X36851440Y-79243000D01*
X36851440Y-78103000D01*
X39858549Y-78103000D01*
X39905843Y-78340765D01*
X40006927Y-78492047D01*
X39965673Y-78533301D01*
X39869000Y-78766690D01*
X39869000Y-79357250D01*
X40027750Y-79516000D01*
X41377000Y-79516000D01*
X41377000Y-79496000D01*
X41631000Y-79496000D01*
X41631000Y-79516000D01*
X42980250Y-79516000D01*
X43139000Y-79357250D01*
X43139000Y-78766690D01*
X43042327Y-78533301D01*
X43001073Y-78492047D01*
X43102157Y-78340765D01*
X43140241Y-78149302D01*
X43318154Y-78030424D01*
X43988441Y-77360137D01*
X43923000Y-77518126D01*
X43923000Y-77929874D01*
X44080569Y-78310280D01*
X44129289Y-78359000D01*
X44080569Y-78407720D01*
X43923000Y-78788126D01*
X43923000Y-79199874D01*
X44080569Y-79580280D01*
X44371720Y-79871431D01*
X44752126Y-80029000D01*
X45163874Y-80029000D01*
X45544280Y-79871431D01*
X45661711Y-79754000D01*
X45675666Y-79754000D01*
X45641000Y-79837690D01*
X45641000Y-79978250D01*
X45799750Y-80137000D01*
X46924000Y-80137000D01*
X46924000Y-80117000D01*
X47178000Y-80117000D01*
X47178000Y-80137000D01*
X48302250Y-80137000D01*
X48461000Y-79978250D01*
X48461000Y-79837690D01*
X48371232Y-79620972D01*
X48424157Y-79541765D01*
X48473440Y-79294000D01*
X48473440Y-78694000D01*
X48424157Y-78446235D01*
X48365868Y-78359000D01*
X48424157Y-78271765D01*
X48473440Y-78024000D01*
X48473440Y-77424000D01*
X48424157Y-77176235D01*
X48365868Y-77089000D01*
X48424157Y-77001765D01*
X48473440Y-76754000D01*
X48473440Y-76154000D01*
X48424157Y-75906235D01*
X48283809Y-75696191D01*
X48073765Y-75555843D01*
X47826000Y-75506560D01*
X46276000Y-75506560D01*
X46028235Y-75555843D01*
X45821470Y-75694000D01*
X45661711Y-75694000D01*
X45658145Y-75690434D01*
X46340579Y-75008000D01*
X48728422Y-75008000D01*
X50738577Y-77018156D01*
X50787951Y-77092049D01*
X50861844Y-77141423D01*
X50861845Y-77141424D01*
X51007213Y-77238556D01*
X51058615Y-77272902D01*
X51028560Y-77424000D01*
X51028560Y-78024000D01*
X51077843Y-78271765D01*
X51136132Y-78359000D01*
X51077843Y-78446235D01*
X51028560Y-78694000D01*
X51028560Y-79294000D01*
X51077843Y-79541765D01*
X51136132Y-79629000D01*
X51077843Y-79716235D01*
X51028560Y-79964000D01*
X51028560Y-80564000D01*
X51077843Y-80811765D01*
X51218191Y-81021809D01*
X51428235Y-81162157D01*
X51676000Y-81211440D01*
X51691001Y-81211440D01*
X51691001Y-81337197D01*
X50820639Y-82207560D01*
X50222999Y-82207560D01*
X49879564Y-82275873D01*
X49588414Y-82470414D01*
X49393873Y-82761564D01*
X49325560Y-83104999D01*
X49325560Y-83755001D01*
X49393873Y-84098436D01*
X49588414Y-84389586D01*
X49589597Y-84390377D01*
X49434673Y-84545302D01*
X49338000Y-84778691D01*
X49338000Y-85194250D01*
X49496750Y-85353000D01*
X50546000Y-85353000D01*
X50546000Y-85333000D01*
X50800000Y-85333000D01*
X50800000Y-85353000D01*
X51849250Y-85353000D01*
X52008000Y-85194250D01*
X52008000Y-84778691D01*
X51911327Y-84545302D01*
X51756403Y-84390377D01*
X51757586Y-84389586D01*
X51952127Y-84098436D01*
X52020440Y-83755001D01*
X52020440Y-83157361D01*
X52935473Y-82242329D01*
X52998929Y-82199929D01*
X53099886Y-82048837D01*
X53166904Y-81948538D01*
X53207005Y-81746934D01*
X53211000Y-81726852D01*
X53211000Y-81726848D01*
X53225888Y-81652000D01*
X53211000Y-81577152D01*
X53211000Y-81211440D01*
X53226000Y-81211440D01*
X53473765Y-81162157D01*
X53680530Y-81024000D01*
X53906289Y-81024000D01*
X54023720Y-81141431D01*
X54404126Y-81299000D01*
X54815874Y-81299000D01*
X55196280Y-81141431D01*
X55487431Y-80850280D01*
X55645000Y-80469874D01*
X55645000Y-80303801D01*
X56999473Y-78949329D01*
X57062929Y-78906929D01*
X57183240Y-78726871D01*
X57234527Y-78844924D01*
X57667409Y-79287318D01*
X58236636Y-79530380D01*
X58483500Y-79403572D01*
X58483500Y-78105000D01*
X58737500Y-78105000D01*
X58737500Y-79403572D01*
X58984364Y-79530380D01*
X59553591Y-79287318D01*
X59986473Y-78844924D01*
X60201063Y-78350980D01*
X60081094Y-78105000D01*
X58737500Y-78105000D01*
X58483500Y-78105000D01*
X58463500Y-78105000D01*
X58463500Y-77851000D01*
X58483500Y-77851000D01*
X58483500Y-77831000D01*
X58737500Y-77831000D01*
X58737500Y-77851000D01*
X60081094Y-77851000D01*
X60201063Y-77605020D01*
X59986473Y-77111076D01*
X59601026Y-76717159D01*
X59802523Y-76582523D01*
X60153391Y-76057411D01*
X60276600Y-75438000D01*
X60153391Y-74818589D01*
X59891412Y-74426509D01*
X60068309Y-74308309D01*
X60208657Y-74098265D01*
X60257940Y-73850500D01*
X60257940Y-71945500D01*
X60208657Y-71697735D01*
X60068309Y-71487691D01*
X59858265Y-71347343D01*
X59610500Y-71298060D01*
X57610500Y-71298060D01*
X57362735Y-71347343D01*
X57152691Y-71487691D01*
X57012343Y-71697735D01*
X56963060Y-71945500D01*
X56963060Y-73423138D01*
X56030528Y-74355671D01*
X55967072Y-74398071D01*
X55924672Y-74461527D01*
X55924671Y-74461528D01*
X55799097Y-74649463D01*
X55740112Y-74946000D01*
X55755001Y-75020852D01*
X55755000Y-78044198D01*
X55439455Y-78359744D01*
X55438711Y-78359000D01*
X55487431Y-78310280D01*
X55645000Y-77929874D01*
X55645000Y-77518126D01*
X55487431Y-77137720D01*
X55196280Y-76846569D01*
X54815874Y-76689000D01*
X54404126Y-76689000D01*
X54023720Y-76846569D01*
X53906289Y-76964000D01*
X53831669Y-76964000D01*
X53873440Y-76754000D01*
X53873440Y-76154000D01*
X53824157Y-75906235D01*
X53683809Y-75696191D01*
X53473765Y-75555843D01*
X53226000Y-75506560D01*
X51730139Y-75506560D01*
X49782424Y-73558846D01*
X49733049Y-73484951D01*
X49440310Y-73289348D01*
X49182165Y-73238000D01*
X49182161Y-73238000D01*
X49095000Y-73220663D01*
X49007839Y-73238000D01*
X47866281Y-73238000D01*
X47875000Y-73194165D01*
X47875000Y-73194161D01*
X47892337Y-73107000D01*
X47875000Y-73019839D01*
X47875000Y-64101478D01*
X48087765Y-64059157D01*
X48297809Y-63918809D01*
X48438157Y-63708765D01*
X48447184Y-63663381D01*
X48459375Y-63681625D01*
X48950582Y-64009839D01*
X49383744Y-64096000D01*
X49676256Y-64096000D01*
X50109418Y-64009839D01*
X50600625Y-63681625D01*
X50813843Y-63362522D01*
X50874817Y-63492358D01*
X51303076Y-63882645D01*
X51713110Y-64052476D01*
X51943000Y-63931155D01*
X51943000Y-62738000D01*
X52197000Y-62738000D01*
X52197000Y-63931155D01*
X52426890Y-64052476D01*
X52836924Y-63882645D01*
X53265183Y-63492358D01*
X53511486Y-62967892D01*
X53390819Y-62738000D01*
X52197000Y-62738000D01*
X51943000Y-62738000D01*
X51923000Y-62738000D01*
X51923000Y-62484000D01*
X51943000Y-62484000D01*
X51943000Y-62464000D01*
X52197000Y-62464000D01*
X52197000Y-62484000D01*
X53390819Y-62484000D01*
X53511486Y-62254108D01*
X53265183Y-61729642D01*
X52836924Y-61339355D01*
X52580144Y-61233000D01*
X55832290Y-61233000D01*
X57684560Y-63085271D01*
X57684560Y-63969000D01*
X57733843Y-64216765D01*
X57874191Y-64426809D01*
X58084235Y-64567157D01*
X58129619Y-64576184D01*
X58111375Y-64588375D01*
X57783161Y-65079582D01*
X57667908Y-65659000D01*
X57783161Y-66238418D01*
X58111375Y-66729625D01*
X58602582Y-67057839D01*
X59035744Y-67144000D01*
X59328256Y-67144000D01*
X59761418Y-67057839D01*
X60252625Y-66729625D01*
X60580839Y-66238418D01*
X60696092Y-65659000D01*
X60580839Y-65079582D01*
X60252625Y-64588375D01*
X60234381Y-64576184D01*
X60279765Y-64567157D01*
X60489809Y-64426809D01*
X60630157Y-64216765D01*
X60679440Y-63969000D01*
X60679440Y-62269000D01*
X60630157Y-62021235D01*
X60489809Y-61811191D01*
X60279765Y-61670843D01*
X60032000Y-61621560D01*
X59148271Y-61621560D01*
X57064937Y-59538227D01*
X57007193Y-59451807D01*
X56664837Y-59223052D01*
X56362935Y-59163000D01*
X56362934Y-59163000D01*
X56261000Y-59142724D01*
X56159066Y-59163000D01*
X36503934Y-59163000D01*
X36402000Y-59142724D01*
X36300065Y-59163000D01*
X35998163Y-59223052D01*
X35655807Y-59451807D01*
X35598065Y-59538224D01*
X33747645Y-61388645D01*
X33605765Y-61293843D01*
X33358000Y-61244560D01*
X31158000Y-61244560D01*
X30910235Y-61293843D01*
X30700191Y-61434191D01*
X30559843Y-61644235D01*
X30510560Y-61892000D01*
X30510560Y-64092000D01*
X30559843Y-64339765D01*
X30700191Y-64549809D01*
X30910235Y-64690157D01*
X31158000Y-64739440D01*
X31350000Y-64739440D01*
X31350001Y-65562560D01*
X31285000Y-65562560D01*
X31037235Y-65611843D01*
X30827191Y-65752191D01*
X30686843Y-65962235D01*
X30637560Y-66210000D01*
X30637560Y-68410000D01*
X30686843Y-68657765D01*
X30827191Y-68867809D01*
X31037235Y-69008157D01*
X31285000Y-69057440D01*
X31350000Y-69057440D01*
X31350001Y-70914124D01*
X31350000Y-70914126D01*
X31350000Y-71018065D01*
X31329724Y-71120000D01*
X31350000Y-71221935D01*
X31350000Y-71325874D01*
X31389776Y-71421902D01*
X31410052Y-71523837D01*
X31467793Y-71610253D01*
X31507569Y-71706280D01*
X31581065Y-71779776D01*
X31638807Y-71866193D01*
X31725224Y-71923935D01*
X31798720Y-71997431D01*
X31894747Y-72037207D01*
X31981163Y-72094948D01*
X32083099Y-72115224D01*
X32179126Y-72155000D01*
X32283066Y-72155000D01*
X32385000Y-72175276D01*
X32486935Y-72155000D01*
X35352290Y-72155000D01*
X38900065Y-75702776D01*
X38957807Y-75789193D01*
X39191827Y-75945560D01*
X39300163Y-76017948D01*
X39704000Y-76098276D01*
X39805934Y-76078000D01*
X39930723Y-76078000D01*
X40007564Y-76193000D01*
X39905843Y-76345235D01*
X39858549Y-76583000D01*
X36851440Y-76583000D01*
X36851440Y-75443000D01*
X36802157Y-75195235D01*
X36661809Y-74985191D01*
X36451765Y-74844843D01*
X36204000Y-74795560D01*
X34204000Y-74795560D01*
X33956235Y-74844843D01*
X33828078Y-74930476D01*
X33727830Y-74780444D01*
X33641413Y-74722702D01*
X26483341Y-67564631D01*
X26533990Y-67310000D01*
X26399334Y-66633037D01*
X26015865Y-66059135D01*
X25441963Y-65675666D01*
X24935880Y-65575000D01*
X24594120Y-65575000D01*
X24088037Y-65675666D01*
X23514135Y-66059135D01*
X23130666Y-66633037D01*
X22996010Y-67310000D01*
X23130666Y-67986963D01*
X23514135Y-68560865D01*
X24088037Y-68944334D01*
X24594120Y-69045000D01*
X24935880Y-69045000D01*
X25019631Y-69028341D01*
X26287720Y-70296430D01*
X26134249Y-70360000D01*
X25299778Y-70360000D01*
X25293127Y-70326564D01*
X25098586Y-70035414D01*
X24807436Y-69840873D01*
X24464001Y-69772560D01*
X23813999Y-69772560D01*
X23470564Y-69840873D01*
X23179414Y-70035414D01*
X23178623Y-70036597D01*
X23023698Y-69881673D01*
X22790309Y-69785000D01*
X22374750Y-69785000D01*
X22216000Y-69943750D01*
X21962000Y-69943750D01*
X21803250Y-69785000D01*
X21387691Y-69785000D01*
X21154302Y-69881673D01*
X20975673Y-70060301D01*
X20879000Y-70293690D01*
X17229093Y-70293690D01*
X17316476Y-70128110D01*
X17146645Y-69718076D01*
X16869292Y-69413739D01*
X16972765Y-69393157D01*
X17182809Y-69252809D01*
X17323157Y-69042765D01*
X17335642Y-68980000D01*
X19583066Y-68980000D01*
X19685000Y-69000276D01*
X19786934Y-68980000D01*
X19786935Y-68980000D01*
X20088837Y-68919948D01*
X20431193Y-68691193D01*
X20488937Y-68604773D01*
X24383370Y-64710341D01*
X24467120Y-64727000D01*
X24808880Y-64727000D01*
X25314963Y-64626334D01*
X25888865Y-64242865D01*
X26272334Y-63668963D01*
X26406990Y-62992000D01*
X26272334Y-62315037D01*
X25888865Y-61741135D01*
X25314963Y-61357666D01*
X24808880Y-61257000D01*
X24467120Y-61257000D01*
X23961037Y-61357666D01*
X23387135Y-61741135D01*
X23003666Y-62315037D01*
X22869010Y-62992000D01*
X22919659Y-63246630D01*
X19256290Y-66910000D01*
X17335642Y-66910000D01*
X17323157Y-66847235D01*
X17182809Y-66637191D01*
X16972765Y-66496843D01*
X16725000Y-66447560D01*
X15025000Y-66447560D01*
X14777235Y-66496843D01*
X14567191Y-66637191D01*
X14426843Y-66847235D01*
X14377560Y-67095000D01*
X14045000Y-67095000D01*
X14045000Y-63608972D01*
X14063616Y-63653915D01*
X15086085Y-64676384D01*
X16422005Y-65229740D01*
X17867995Y-65229740D01*
X19203915Y-64676384D01*
X20226384Y-63653915D01*
X20779740Y-62317995D01*
X20779740Y-60872005D01*
X20226384Y-59536085D01*
X19203915Y-58513616D01*
X19158972Y-58495000D01*
X62155001Y-58495000D01*
X62155000Y-84346028D01*
G36*
X45682191Y-61303191D02*
X45541843Y-61513235D01*
X45492560Y-61761000D01*
X45492560Y-63461000D01*
X45541843Y-63708765D01*
X45682191Y-63918809D01*
X45892235Y-64059157D01*
X46105001Y-64101478D01*
X46105000Y-72740421D01*
X45409848Y-73435574D01*
X45409845Y-73435576D01*
X45409844Y-73435577D01*
X45335951Y-73484951D01*
X45286577Y-73558844D01*
X43151440Y-75693982D01*
X43151440Y-74293000D01*
X43102157Y-74045235D01*
X42961809Y-73835191D01*
X42751765Y-73694843D01*
X42504000Y-73645560D01*
X40504000Y-73645560D01*
X40256235Y-73694843D01*
X40046191Y-73835191D01*
X40011628Y-73886917D01*
X36584937Y-70460227D01*
X36527193Y-70373807D01*
X36184837Y-70145052D01*
X35882935Y-70085000D01*
X35882934Y-70085000D01*
X35781000Y-70064724D01*
X35679066Y-70085000D01*
X33420000Y-70085000D01*
X33420000Y-69057440D01*
X33485000Y-69057440D01*
X33732765Y-69008157D01*
X33942809Y-68867809D01*
X34083157Y-68657765D01*
X34132440Y-68410000D01*
X34132440Y-66210000D01*
X34083157Y-65962235D01*
X33942809Y-65752191D01*
X33732765Y-65611843D01*
X33485000Y-65562560D01*
X33420000Y-65562560D01*
X33420000Y-64727108D01*
X33605765Y-64690157D01*
X33815809Y-64549809D01*
X33956157Y-64339765D01*
X34005440Y-64092000D01*
X34005440Y-63968220D01*
X34011837Y-63966948D01*
X34354193Y-63738193D01*
X34411937Y-63651773D01*
X35953960Y-62109751D01*
X35953960Y-63728600D01*
X36003243Y-63976365D01*
X36143591Y-64186409D01*
X36353635Y-64326757D01*
X36379651Y-64331932D01*
X36053350Y-64820275D01*
X35937041Y-65405000D01*
X36053350Y-65989725D01*
X36384570Y-66485430D01*
X36668281Y-66675000D01*
X36384570Y-66864570D01*
X36053350Y-67360275D01*
X35937041Y-67945000D01*
X36053350Y-68529725D01*
X36384570Y-69025430D01*
X36880275Y-69356650D01*
X37317402Y-69443600D01*
X37612598Y-69443600D01*
X38049725Y-69356650D01*
X38545430Y-69025430D01*
X38738037Y-68737174D01*
X39116510Y-69151821D01*
X39645973Y-69399968D01*
X39878000Y-69279469D01*
X39878000Y-68072000D01*
X40132000Y-68072000D01*
X40132000Y-69279469D01*
X40364027Y-69399968D01*
X40893490Y-69151821D01*
X41287688Y-68719947D01*
X41459958Y-68304026D01*
X41338817Y-68072000D01*
X40132000Y-68072000D01*
X39878000Y-68072000D01*
X39858000Y-68072000D01*
X39858000Y-67818000D01*
X39878000Y-67818000D01*
X39878000Y-67798000D01*
X40132000Y-67798000D01*
X40132000Y-67818000D01*
X41338817Y-67818000D01*
X41459958Y-67585974D01*
X41287688Y-67170053D01*
X40893490Y-66738179D01*
X40783979Y-66686854D01*
X41085430Y-66485430D01*
X41416650Y-65989725D01*
X41532959Y-65405000D01*
X41416650Y-64820275D01*
X41085430Y-64324570D01*
X40801719Y-64135000D01*
X41085430Y-63945430D01*
X41416650Y-63449725D01*
X41532959Y-62865000D01*
X41416650Y-62280275D01*
X41085430Y-61784570D01*
X40589725Y-61453350D01*
X40152598Y-61366400D01*
X39857402Y-61366400D01*
X39420275Y-61453350D01*
X38931932Y-61779651D01*
X38926757Y-61753635D01*
X38786409Y-61543591D01*
X38576365Y-61403243D01*
X38328600Y-61353960D01*
X36709751Y-61353960D01*
X36830711Y-61233000D01*
X45787238Y-61233000D01*
X45682191Y-61303191D01*
X45682191Y-61303191D01*
G37*
X45682191Y-61303191D02*
X45541843Y-61513235D01*
X45492560Y-61761000D01*
X45492560Y-63461000D01*
X45541843Y-63708765D01*
X45682191Y-63918809D01*
X45892235Y-64059157D01*
X46105001Y-64101478D01*
X46105000Y-72740421D01*
X45409848Y-73435574D01*
X45409845Y-73435576D01*
X45409844Y-73435577D01*
X45335951Y-73484951D01*
X45286577Y-73558844D01*
X43151440Y-75693982D01*
X43151440Y-74293000D01*
X43102157Y-74045235D01*
X42961809Y-73835191D01*
X42751765Y-73694843D01*
X42504000Y-73645560D01*
X40504000Y-73645560D01*
X40256235Y-73694843D01*
X40046191Y-73835191D01*
X40011628Y-73886917D01*
X36584937Y-70460227D01*
X36527193Y-70373807D01*
X36184837Y-70145052D01*
X35882935Y-70085000D01*
X35882934Y-70085000D01*
X35781000Y-70064724D01*
X35679066Y-70085000D01*
X33420000Y-70085000D01*
X33420000Y-69057440D01*
X33485000Y-69057440D01*
X33732765Y-69008157D01*
X33942809Y-68867809D01*
X34083157Y-68657765D01*
X34132440Y-68410000D01*
X34132440Y-66210000D01*
X34083157Y-65962235D01*
X33942809Y-65752191D01*
X33732765Y-65611843D01*
X33485000Y-65562560D01*
X33420000Y-65562560D01*
X33420000Y-64727108D01*
X33605765Y-64690157D01*
X33815809Y-64549809D01*
X33956157Y-64339765D01*
X34005440Y-64092000D01*
X34005440Y-63968220D01*
X34011837Y-63966948D01*
X34354193Y-63738193D01*
X34411937Y-63651773D01*
X35953960Y-62109751D01*
X35953960Y-63728600D01*
X36003243Y-63976365D01*
X36143591Y-64186409D01*
X36353635Y-64326757D01*
X36379651Y-64331932D01*
X36053350Y-64820275D01*
X35937041Y-65405000D01*
X36053350Y-65989725D01*
X36384570Y-66485430D01*
X36668281Y-66675000D01*
X36384570Y-66864570D01*
X36053350Y-67360275D01*
X35937041Y-67945000D01*
X36053350Y-68529725D01*
X36384570Y-69025430D01*
X36880275Y-69356650D01*
X37317402Y-69443600D01*
X37612598Y-69443600D01*
X38049725Y-69356650D01*
X38545430Y-69025430D01*
X38738037Y-68737174D01*
X39116510Y-69151821D01*
X39645973Y-69399968D01*
X39878000Y-69279469D01*
X39878000Y-68072000D01*
X40132000Y-68072000D01*
X40132000Y-69279469D01*
X40364027Y-69399968D01*
X40893490Y-69151821D01*
X41287688Y-68719947D01*
X41459958Y-68304026D01*
X41338817Y-68072000D01*
X40132000Y-68072000D01*
X39878000Y-68072000D01*
X39858000Y-68072000D01*
X39858000Y-67818000D01*
X39878000Y-67818000D01*
X39878000Y-67798000D01*
X40132000Y-67798000D01*
X40132000Y-67818000D01*
X41338817Y-67818000D01*
X41459958Y-67585974D01*
X41287688Y-67170053D01*
X40893490Y-66738179D01*
X40783979Y-66686854D01*
X41085430Y-66485430D01*
X41416650Y-65989725D01*
X41532959Y-65405000D01*
X41416650Y-64820275D01*
X41085430Y-64324570D01*
X40801719Y-64135000D01*
X41085430Y-63945430D01*
X41416650Y-63449725D01*
X41532959Y-62865000D01*
X41416650Y-62280275D01*
X41085430Y-61784570D01*
X40589725Y-61453350D01*
X40152598Y-61366400D01*
X39857402Y-61366400D01*
X39420275Y-61453350D01*
X38931932Y-61779651D01*
X38926757Y-61753635D01*
X38786409Y-61543591D01*
X38576365Y-61403243D01*
X38328600Y-61353960D01*
X36709751Y-61353960D01*
X36830711Y-61233000D01*
X45787238Y-61233000D01*
X45682191Y-61303191D01*
G04 #@! TD*
M02*
