G04 #@! TF.GenerationSoftware,KiCad,Pcbnew,(5.0.1)-4*
G04 #@! TF.CreationDate,2018-11-16T16:38:59+08:00*
G04 #@! TF.ProjectId,AILight,41494C696768742E6B696361645F7063,rev?*
G04 #@! TF.SameCoordinates,Original*
G04 #@! TF.FileFunction,Copper,L2,Bot,Signal*
G04 #@! TF.FilePolarity,Positive*
%FSLAX46Y46*%
G04 Gerber Fmt 4.6, Leading zero omitted, Abs format (unit mm)*
G04 Created by KiCad (PCBNEW (5.0.1)-4) date 2018-11-16 16:38:59*
%MOMM*%
%LPD*%
G01*
G04 APERTURE LIST*
G04 #@! TA.AperFunction,ComponentPad*
%ADD10C,5.999480*%
G04 #@! TD*
G04 #@! TA.AperFunction,ComponentPad*
%ADD11C,1.524000*%
G04 #@! TD*
G04 #@! TA.AperFunction,ComponentPad*
%ADD12R,1.700000X1.700000*%
G04 #@! TD*
G04 #@! TA.AperFunction,ComponentPad*
%ADD13O,1.700000X1.700000*%
G04 #@! TD*
G04 #@! TA.AperFunction,ComponentPad*
%ADD14R,1.727200X1.727200*%
G04 #@! TD*
G04 #@! TA.AperFunction,ComponentPad*
%ADD15O,1.727200X1.727200*%
G04 #@! TD*
G04 #@! TA.AperFunction,ComponentPad*
%ADD16O,2.200000X2.200000*%
G04 #@! TD*
G04 #@! TA.AperFunction,ComponentPad*
%ADD17R,2.200000X2.200000*%
G04 #@! TD*
G04 #@! TA.AperFunction,ComponentPad*
%ADD18O,3.500000X2.000000*%
G04 #@! TD*
G04 #@! TA.AperFunction,ComponentPad*
%ADD19O,2.000000X3.300000*%
G04 #@! TD*
G04 #@! TA.AperFunction,ComponentPad*
%ADD20R,2.000000X4.000000*%
G04 #@! TD*
G04 #@! TA.AperFunction,ComponentPad*
%ADD21R,2.000000X1.905000*%
G04 #@! TD*
G04 #@! TA.AperFunction,ComponentPad*
%ADD22O,2.000000X1.905000*%
G04 #@! TD*
G04 #@! TA.AperFunction,ViaPad*
%ADD23C,0.800000*%
G04 #@! TD*
G04 #@! TA.AperFunction,Conductor*
%ADD24C,0.800000*%
G04 #@! TD*
G04 #@! TA.AperFunction,Conductor*
%ADD25C,0.250000*%
G04 #@! TD*
G04 #@! TA.AperFunction,Conductor*
%ADD26C,0.500000*%
G04 #@! TD*
G04 #@! TA.AperFunction,Conductor*
%ADD27C,0.254000*%
G04 #@! TD*
G04 APERTURE END LIST*
D10*
G04 #@! TO.P,REF\002A\002A,1*
G04 #@! TO.N,N/C*
X17145000Y-61595000D03*
D11*
G04 #@! TO.P,REF\002A\002A,5*
X17272000Y-59436000D03*
G04 #@! TO.P,REF\002A\002A,2*
X17272000Y-63754000D03*
G04 #@! TO.P,REF\002A\002A,3*
X19304000Y-61595000D03*
G04 #@! TO.P,REF\002A\002A,4*
X15049500Y-61531500D03*
G04 #@! TO.P,REF\002A\002A,6*
X15684500Y-60007500D03*
G04 #@! TO.P,REF\002A\002A,7*
X18669000Y-60134500D03*
G04 #@! TO.P,REF\002A\002A,8*
X15621000Y-63119000D03*
G04 #@! TO.P,REF\002A\002A,9*
X18669000Y-63055500D03*
G04 #@! TD*
D10*
G04 #@! TO.P,REF\002A\002A,1*
G04 #@! TO.N,N/C*
X59055000Y-86360000D03*
D11*
G04 #@! TO.P,REF\002A\002A,5*
X59182000Y-84201000D03*
G04 #@! TO.P,REF\002A\002A,2*
X59182000Y-88519000D03*
G04 #@! TO.P,REF\002A\002A,3*
X61214000Y-86360000D03*
G04 #@! TO.P,REF\002A\002A,4*
X56959500Y-86296500D03*
G04 #@! TO.P,REF\002A\002A,6*
X57594500Y-84772500D03*
G04 #@! TO.P,REF\002A\002A,7*
X60579000Y-84899500D03*
G04 #@! TO.P,REF\002A\002A,8*
X57531000Y-87884000D03*
G04 #@! TO.P,REF\002A\002A,9*
X60579000Y-87820500D03*
G04 #@! TD*
D12*
G04 #@! TO.P,PIR1,1*
G04 #@! TO.N,Net-(J4-Pad2)*
X46990000Y-62611000D03*
D13*
G04 #@! TO.P,PIR1,2*
G04 #@! TO.N,Net-(PIR1-Pad2)*
X49530000Y-62611000D03*
G04 #@! TO.P,PIR1,3*
G04 #@! TO.N,Net-(C1-Pad2)*
X52070000Y-62611000D03*
G04 #@! TD*
D14*
G04 #@! TO.P,J4,1*
G04 #@! TO.N,Net-(J4-Pad1)*
X37465000Y-62865000D03*
D15*
G04 #@! TO.P,J4,2*
G04 #@! TO.N,Net-(J4-Pad2)*
X40005000Y-62865000D03*
G04 #@! TO.P,J4,3*
G04 #@! TO.N,Net-(J4-Pad3)*
X37465000Y-65405000D03*
G04 #@! TO.P,J4,4*
G04 #@! TO.N,Net-(J4-Pad4)*
X40005000Y-65405000D03*
G04 #@! TO.P,J4,5*
G04 #@! TO.N,Net-(J4-Pad5)*
X37465000Y-67945000D03*
G04 #@! TO.P,J4,6*
G04 #@! TO.N,Net-(C1-Pad2)*
X40005000Y-67945000D03*
G04 #@! TD*
D16*
G04 #@! TO.P,D2,2*
G04 #@! TO.N,Net-(D2-Pad2)*
X24638000Y-62992000D03*
D17*
G04 #@! TO.P,D2,1*
G04 #@! TO.N,Net-(C1-Pad1)*
X32258000Y-62992000D03*
G04 #@! TD*
G04 #@! TO.P,D1,1*
G04 #@! TO.N,Net-(C1-Pad1)*
X32385000Y-67310000D03*
D16*
G04 #@! TO.P,D1,2*
G04 #@! TO.N,Net-(D1-Pad2)*
X24765000Y-67310000D03*
G04 #@! TD*
D18*
G04 #@! TO.P,J3,MP*
G04 #@! TO.N,N/C*
X19416000Y-85145000D03*
X19416000Y-76145000D03*
D19*
G04 #@! TO.P,J3,2*
G04 #@! TO.N,Net-(C1-Pad2)*
X20416000Y-80645000D03*
D20*
G04 #@! TO.P,J3,1*
G04 #@! TO.N,Net-(J3-Pad1)*
X26416000Y-80645000D03*
G04 #@! TD*
D13*
G04 #@! TO.P,J2,2*
G04 #@! TO.N,Net-(J2-Pad2)*
X59182000Y-65659000D03*
D12*
G04 #@! TO.P,J2,1*
G04 #@! TO.N,Net-(C1-Pad1)*
X59182000Y-63119000D03*
G04 #@! TD*
G04 #@! TO.P,J1,1*
G04 #@! TO.N,Net-(D2-Pad2)*
X15875000Y-67945000D03*
D13*
G04 #@! TO.P,J1,2*
G04 #@! TO.N,Net-(C1-Pad2)*
X15875000Y-70485000D03*
G04 #@! TD*
D21*
G04 #@! TO.P,Q1,1*
G04 #@! TO.N,Net-(J4-Pad4)*
X58610500Y-72898000D03*
D22*
G04 #@! TO.P,Q1,2*
G04 #@! TO.N,Net-(J2-Pad2)*
X58610500Y-75438000D03*
G04 #@! TO.P,Q1,3*
G04 #@! TO.N,Net-(C1-Pad2)*
X58610500Y-77978000D03*
G04 #@! TD*
D23*
G04 #@! TO.N,Net-(C1-Pad2)*
X44915000Y-80264000D03*
X52705046Y-86360000D03*
G04 #@! TO.N,Net-(C1-Pad1)*
X26537563Y-71313218D03*
X32385000Y-71120000D03*
G04 #@! TO.N,Net-(PIR1-Pad2)*
X44958000Y-77724000D03*
G04 #@! TO.N,Net-(U2-Pad3)*
X44958000Y-78994000D03*
G04 #@! TO.N,Net-(J4-Pad4)*
X54610000Y-80264000D03*
G04 #@! TO.N,Net-(J4-Pad5)*
X44958000Y-76454000D03*
G04 #@! TO.N,Net-(J4-Pad1)*
X54610000Y-78994000D03*
G04 #@! TO.N,Net-(J4-Pad3)*
X54610000Y-77724000D03*
G04 #@! TD*
D24*
G04 #@! TO.N,Net-(J2-Pad2)*
X60833000Y-67310000D02*
X59182000Y-65659000D01*
X59597999Y-74450501D02*
X60090501Y-74450501D01*
X58610500Y-75438000D02*
X59597999Y-74450501D01*
X60090501Y-74450501D02*
X60210501Y-74330501D01*
X60210501Y-74330501D02*
X60210501Y-73837999D01*
X60210501Y-73837999D02*
X60833000Y-73215500D01*
X60833000Y-73215500D02*
X60833000Y-67310000D01*
G04 #@! TO.N,Net-(C1-Pad2)*
X20416000Y-80645000D02*
X20416000Y-82011000D01*
D25*
X44915000Y-80264000D02*
X52070000Y-73109000D01*
X52070000Y-73109000D02*
X52070000Y-62611000D01*
D26*
X44515001Y-79864001D02*
X44915000Y-80264000D01*
X36276399Y-71625399D02*
X44515001Y-79864001D01*
D24*
X22216000Y-80645000D02*
X27931000Y-86360000D01*
X52139361Y-86360000D02*
X52705046Y-86360000D01*
X20416000Y-80645000D02*
X22216000Y-80645000D01*
X27931000Y-86360000D02*
X52139361Y-86360000D01*
D25*
X37954130Y-66675000D02*
X36195000Y-66675000D01*
X38360531Y-67081401D02*
X37954130Y-66675000D01*
X40005000Y-67945000D02*
X39141401Y-67081401D01*
X39141401Y-67081401D02*
X38360531Y-67081401D01*
X36276399Y-67374471D02*
X36276399Y-71625399D01*
X36195000Y-67293072D02*
X36276399Y-67374471D01*
X36195000Y-66675000D02*
X36195000Y-67293072D01*
G04 #@! TO.N,Net-(C1-Pad1)*
X26670002Y-70993000D02*
X26797002Y-71120000D01*
X31819315Y-71120000D02*
X32385000Y-71120000D01*
X26797002Y-71120000D02*
X31819315Y-71120000D01*
G04 #@! TO.N,Net-(PIR1-Pad2)*
X44958000Y-77724000D02*
X49530000Y-73152000D01*
X49530000Y-73152000D02*
X49530000Y-62611000D01*
G04 #@! TO.N,Net-(J4-Pad2)*
X46736000Y-62865000D02*
X46990000Y-62611000D01*
D26*
X40005000Y-62865000D02*
X46736000Y-62865000D01*
D25*
G04 #@! TO.N,Net-(J4-Pad4)*
X58658000Y-72898000D02*
X58610500Y-72898000D01*
X38653601Y-64053601D02*
X39141401Y-64541401D01*
X36341399Y-64053601D02*
X38653601Y-64053601D01*
X36276399Y-63988601D02*
X36341399Y-64053601D01*
X39141401Y-64541401D02*
X40005000Y-65405000D01*
X55880000Y-74311000D02*
X55880000Y-63409178D01*
X55880000Y-63409178D02*
X53006801Y-60535979D01*
X53006801Y-60535979D02*
X37481819Y-60535979D01*
X37481819Y-60535979D02*
X36276399Y-61741399D01*
X36276399Y-61741399D02*
X36276399Y-63988601D01*
X55880000Y-74311000D02*
X55880000Y-74295000D01*
X55880000Y-78994000D02*
X55880000Y-74311000D01*
X54610000Y-80264000D02*
X55880000Y-78994000D01*
G04 #@! TO.N,Net-(J4-Pad5)*
X44958000Y-75438000D02*
X38100000Y-68580000D01*
X44958000Y-76454000D02*
X44958000Y-75438000D01*
G04 #@! TO.N,Net-(J4-Pad1)*
X37465000Y-61751400D02*
X37465000Y-62865000D01*
X38230411Y-60985989D02*
X37465000Y-61751400D01*
X52820401Y-60985989D02*
X38230411Y-60985989D01*
X55335001Y-63500589D02*
X52820401Y-60985989D01*
X55335001Y-78268999D02*
X55335001Y-63500589D01*
X54610000Y-78994000D02*
X55335001Y-78268999D01*
G04 #@! TO.N,Net-(J4-Pad3)*
X45292401Y-66593601D02*
X38653601Y-66593601D01*
X48165001Y-62236997D02*
X48165001Y-63721001D01*
X48165001Y-63721001D02*
X45292401Y-66593601D01*
X48965999Y-61435999D02*
X48165001Y-62236997D01*
X52634001Y-61435999D02*
X48965999Y-61435999D01*
X54610000Y-63411998D02*
X52634001Y-61435999D01*
X54610000Y-77724000D02*
X54610000Y-63411998D01*
X38328599Y-66268599D02*
X37465000Y-65405000D01*
X38653601Y-66593601D02*
X38328599Y-66268599D01*
G04 #@! TD*
D27*
G04 #@! TO.N,Net-(C1-Pad2)*
G36*
X62155000Y-84346028D02*
X62136384Y-84301085D01*
X61113915Y-83278616D01*
X59777995Y-82725260D01*
X58332005Y-82725260D01*
X56996085Y-83278616D01*
X55973616Y-84301085D01*
X55420260Y-85637005D01*
X55420260Y-87082995D01*
X55973616Y-88418915D01*
X56996085Y-89441384D01*
X57041028Y-89460000D01*
X14045000Y-89460000D01*
X14045000Y-85145000D01*
X16998969Y-85145000D01*
X17125864Y-85782945D01*
X17487231Y-86323769D01*
X18028055Y-86685136D01*
X18504969Y-86780000D01*
X20327031Y-86780000D01*
X20803945Y-86685136D01*
X21344769Y-86323769D01*
X21706136Y-85782945D01*
X21833031Y-85145000D01*
X21706136Y-84507055D01*
X21344769Y-83966231D01*
X20803945Y-83604864D01*
X20327031Y-83510000D01*
X18504969Y-83510000D01*
X18028055Y-83604864D01*
X17487231Y-83966231D01*
X17125864Y-84507055D01*
X16998969Y-85145000D01*
X14045000Y-85145000D01*
X14045000Y-80359561D01*
X15981000Y-80359561D01*
X15981000Y-80930439D01*
X16199466Y-81457862D01*
X16603138Y-81861534D01*
X17130561Y-82080000D01*
X17701439Y-82080000D01*
X18228862Y-81861534D01*
X18632534Y-81457862D01*
X18781000Y-81099434D01*
X18781000Y-81422000D01*
X18954058Y-82038020D01*
X19349683Y-82540922D01*
X19907645Y-82854144D01*
X20035566Y-82885124D01*
X20289000Y-82765777D01*
X20289000Y-80772000D01*
X20543000Y-80772000D01*
X20543000Y-82765777D01*
X20796434Y-82885124D01*
X20924355Y-82854144D01*
X21482317Y-82540922D01*
X21877942Y-82038020D01*
X22051000Y-81422000D01*
X22051000Y-80772000D01*
X20543000Y-80772000D01*
X20289000Y-80772000D01*
X20269000Y-80772000D01*
X20269000Y-80518000D01*
X20289000Y-80518000D01*
X20289000Y-78524223D01*
X20543000Y-78524223D01*
X20543000Y-80518000D01*
X22051000Y-80518000D01*
X22051000Y-79868000D01*
X21877942Y-79251980D01*
X21482317Y-78749078D01*
X21296917Y-78645000D01*
X24768560Y-78645000D01*
X24768560Y-82645000D01*
X24817843Y-82892765D01*
X24958191Y-83102809D01*
X25168235Y-83243157D01*
X25416000Y-83292440D01*
X27416000Y-83292440D01*
X27663765Y-83243157D01*
X27873809Y-83102809D01*
X28014157Y-82892765D01*
X28063440Y-82645000D01*
X28063440Y-78645000D01*
X28014157Y-78397235D01*
X27873809Y-78187191D01*
X27663765Y-78046843D01*
X27416000Y-77997560D01*
X25416000Y-77997560D01*
X25168235Y-78046843D01*
X24958191Y-78187191D01*
X24817843Y-78397235D01*
X24768560Y-78645000D01*
X21296917Y-78645000D01*
X20924355Y-78435856D01*
X20796434Y-78404876D01*
X20543000Y-78524223D01*
X20289000Y-78524223D01*
X20035566Y-78404876D01*
X19907645Y-78435856D01*
X19349683Y-78749078D01*
X18954058Y-79251980D01*
X18781000Y-79868000D01*
X18781000Y-80190566D01*
X18632534Y-79832138D01*
X18228862Y-79428466D01*
X17701439Y-79210000D01*
X17130561Y-79210000D01*
X16603138Y-79428466D01*
X16199466Y-79832138D01*
X15981000Y-80359561D01*
X14045000Y-80359561D01*
X14045000Y-76145000D01*
X16998969Y-76145000D01*
X17125864Y-76782945D01*
X17487231Y-77323769D01*
X18028055Y-77685136D01*
X18504969Y-77780000D01*
X20327031Y-77780000D01*
X20803945Y-77685136D01*
X21344769Y-77323769D01*
X21706136Y-76782945D01*
X21833031Y-76145000D01*
X21706136Y-75507055D01*
X21344769Y-74966231D01*
X20803945Y-74604864D01*
X20327031Y-74510000D01*
X18504969Y-74510000D01*
X18028055Y-74604864D01*
X17487231Y-74966231D01*
X17125864Y-75507055D01*
X16998969Y-76145000D01*
X14045000Y-76145000D01*
X14045000Y-70841890D01*
X14433524Y-70841890D01*
X14603355Y-71251924D01*
X14993642Y-71680183D01*
X15518108Y-71926486D01*
X15748000Y-71805819D01*
X15748000Y-70612000D01*
X16002000Y-70612000D01*
X16002000Y-71805819D01*
X16231892Y-71926486D01*
X16756358Y-71680183D01*
X17146645Y-71251924D01*
X17206528Y-71107344D01*
X25502563Y-71107344D01*
X25502563Y-71519092D01*
X25660132Y-71899498D01*
X25951283Y-72190649D01*
X26331689Y-72348218D01*
X26743437Y-72348218D01*
X27123843Y-72190649D01*
X27414994Y-71899498D01*
X27423070Y-71880000D01*
X31681289Y-71880000D01*
X31798720Y-71997431D01*
X32179126Y-72155000D01*
X32590874Y-72155000D01*
X32971280Y-71997431D01*
X33262431Y-71706280D01*
X33420000Y-71325874D01*
X33420000Y-70914126D01*
X33262431Y-70533720D01*
X32971280Y-70242569D01*
X32590874Y-70085000D01*
X32179126Y-70085000D01*
X31798720Y-70242569D01*
X31681289Y-70360000D01*
X27090612Y-70360000D01*
X26966539Y-70277097D01*
X26670002Y-70218112D01*
X26373465Y-70277097D01*
X26371787Y-70278218D01*
X26331689Y-70278218D01*
X25951283Y-70435787D01*
X25660132Y-70726938D01*
X25502563Y-71107344D01*
X17206528Y-71107344D01*
X17316476Y-70841890D01*
X17195155Y-70612000D01*
X16002000Y-70612000D01*
X15748000Y-70612000D01*
X14554845Y-70612000D01*
X14433524Y-70841890D01*
X14045000Y-70841890D01*
X14045000Y-67095000D01*
X14377560Y-67095000D01*
X14377560Y-68795000D01*
X14426843Y-69042765D01*
X14567191Y-69252809D01*
X14777235Y-69393157D01*
X14880708Y-69413739D01*
X14603355Y-69718076D01*
X14433524Y-70128110D01*
X14554845Y-70358000D01*
X15748000Y-70358000D01*
X15748000Y-70338000D01*
X16002000Y-70338000D01*
X16002000Y-70358000D01*
X17195155Y-70358000D01*
X17316476Y-70128110D01*
X17146645Y-69718076D01*
X16869292Y-69413739D01*
X16972765Y-69393157D01*
X17182809Y-69252809D01*
X17323157Y-69042765D01*
X17372440Y-68795000D01*
X17372440Y-67310000D01*
X22996010Y-67310000D01*
X23130666Y-67986963D01*
X23514135Y-68560865D01*
X24088037Y-68944334D01*
X24594120Y-69045000D01*
X24935880Y-69045000D01*
X25441963Y-68944334D01*
X26015865Y-68560865D01*
X26399334Y-67986963D01*
X26533990Y-67310000D01*
X26399334Y-66633037D01*
X26116670Y-66210000D01*
X30637560Y-66210000D01*
X30637560Y-68410000D01*
X30686843Y-68657765D01*
X30827191Y-68867809D01*
X31037235Y-69008157D01*
X31285000Y-69057440D01*
X33485000Y-69057440D01*
X33732765Y-69008157D01*
X33942809Y-68867809D01*
X34083157Y-68657765D01*
X34132440Y-68410000D01*
X34132440Y-66210000D01*
X34083157Y-65962235D01*
X33942809Y-65752191D01*
X33732765Y-65611843D01*
X33485000Y-65562560D01*
X31285000Y-65562560D01*
X31037235Y-65611843D01*
X30827191Y-65752191D01*
X30686843Y-65962235D01*
X30637560Y-66210000D01*
X26116670Y-66210000D01*
X26015865Y-66059135D01*
X25441963Y-65675666D01*
X24935880Y-65575000D01*
X24594120Y-65575000D01*
X24088037Y-65675666D01*
X23514135Y-66059135D01*
X23130666Y-66633037D01*
X22996010Y-67310000D01*
X17372440Y-67310000D01*
X17372440Y-67095000D01*
X17323157Y-66847235D01*
X17182809Y-66637191D01*
X16972765Y-66496843D01*
X16725000Y-66447560D01*
X15025000Y-66447560D01*
X14777235Y-66496843D01*
X14567191Y-66637191D01*
X14426843Y-66847235D01*
X14377560Y-67095000D01*
X14045000Y-67095000D01*
X14045000Y-63608972D01*
X14063616Y-63653915D01*
X15086085Y-64676384D01*
X16422005Y-65229740D01*
X17867995Y-65229740D01*
X19203915Y-64676384D01*
X20226384Y-63653915D01*
X20500558Y-62992000D01*
X22869010Y-62992000D01*
X23003666Y-63668963D01*
X23387135Y-64242865D01*
X23961037Y-64626334D01*
X24467120Y-64727000D01*
X24808880Y-64727000D01*
X25314963Y-64626334D01*
X25888865Y-64242865D01*
X26272334Y-63668963D01*
X26406990Y-62992000D01*
X26272334Y-62315037D01*
X25989670Y-61892000D01*
X30510560Y-61892000D01*
X30510560Y-64092000D01*
X30559843Y-64339765D01*
X30700191Y-64549809D01*
X30910235Y-64690157D01*
X31158000Y-64739440D01*
X33358000Y-64739440D01*
X33605765Y-64690157D01*
X33815809Y-64549809D01*
X33956157Y-64339765D01*
X34005440Y-64092000D01*
X34005440Y-61892000D01*
X33975484Y-61741399D01*
X35501511Y-61741399D01*
X35516399Y-61816246D01*
X35516400Y-63913749D01*
X35501511Y-63988601D01*
X35516400Y-64063453D01*
X35528659Y-64125081D01*
X35560496Y-64285138D01*
X35661904Y-64436905D01*
X35728471Y-64536530D01*
X35767434Y-64562564D01*
X35793470Y-64601530D01*
X36044862Y-64769505D01*
X36082298Y-64776951D01*
X36053350Y-64820275D01*
X35937041Y-65405000D01*
X36053350Y-65989725D01*
X36384570Y-66485430D01*
X36668281Y-66675000D01*
X36384570Y-66864570D01*
X36053350Y-67360275D01*
X35937041Y-67945000D01*
X36053350Y-68529725D01*
X36384570Y-69025430D01*
X36880275Y-69356650D01*
X37317402Y-69443600D01*
X37612598Y-69443600D01*
X37842974Y-69397775D01*
X44196744Y-75751545D01*
X44080569Y-75867720D01*
X43923000Y-76248126D01*
X43923000Y-76659874D01*
X44080569Y-77040280D01*
X44129289Y-77089000D01*
X44080569Y-77137720D01*
X43923000Y-77518126D01*
X43923000Y-77929874D01*
X44080569Y-78310280D01*
X44129289Y-78359000D01*
X44080569Y-78407720D01*
X43923000Y-78788126D01*
X43923000Y-79199874D01*
X44080569Y-79580280D01*
X44371720Y-79871431D01*
X44752126Y-80029000D01*
X45163874Y-80029000D01*
X45544280Y-79871431D01*
X45835431Y-79580280D01*
X45993000Y-79199874D01*
X45993000Y-78788126D01*
X45835431Y-78407720D01*
X45786711Y-78359000D01*
X45835431Y-78310280D01*
X45993000Y-77929874D01*
X45993000Y-77763801D01*
X50014476Y-73742327D01*
X50077929Y-73699929D01*
X50120327Y-73636476D01*
X50120329Y-73636474D01*
X50245903Y-73448538D01*
X50245904Y-73448537D01*
X50290000Y-73226852D01*
X50290000Y-73226848D01*
X50304888Y-73152001D01*
X50290000Y-73077154D01*
X50290000Y-63889178D01*
X50600625Y-63681625D01*
X50813843Y-63362522D01*
X50874817Y-63492358D01*
X51303076Y-63882645D01*
X51713110Y-64052476D01*
X51943000Y-63931155D01*
X51943000Y-62738000D01*
X51923000Y-62738000D01*
X51923000Y-62484000D01*
X51943000Y-62484000D01*
X51943000Y-62464000D01*
X52197000Y-62464000D01*
X52197000Y-62484000D01*
X52217000Y-62484000D01*
X52217000Y-62738000D01*
X52197000Y-62738000D01*
X52197000Y-63931155D01*
X52426890Y-64052476D01*
X52836924Y-63882645D01*
X53265183Y-63492358D01*
X53377147Y-63253947D01*
X53850001Y-63726801D01*
X53850000Y-77020289D01*
X53732569Y-77137720D01*
X53575000Y-77518126D01*
X53575000Y-77929874D01*
X53732569Y-78310280D01*
X53781289Y-78359000D01*
X53732569Y-78407720D01*
X53575000Y-78788126D01*
X53575000Y-79199874D01*
X53732569Y-79580280D01*
X53781289Y-79629000D01*
X53732569Y-79677720D01*
X53575000Y-80058126D01*
X53575000Y-80469874D01*
X53732569Y-80850280D01*
X54023720Y-81141431D01*
X54404126Y-81299000D01*
X54815874Y-81299000D01*
X55196280Y-81141431D01*
X55487431Y-80850280D01*
X55645000Y-80469874D01*
X55645000Y-80303801D01*
X56364473Y-79584329D01*
X56427929Y-79541929D01*
X56595904Y-79290537D01*
X56640000Y-79068852D01*
X56640000Y-79068848D01*
X56654888Y-78994001D01*
X56640000Y-78919154D01*
X56640000Y-78350980D01*
X57019937Y-78350980D01*
X57234527Y-78844924D01*
X57667409Y-79287318D01*
X58236636Y-79530380D01*
X58483500Y-79403572D01*
X58483500Y-78105000D01*
X58737500Y-78105000D01*
X58737500Y-79403572D01*
X58984364Y-79530380D01*
X59553591Y-79287318D01*
X59986473Y-78844924D01*
X60201063Y-78350980D01*
X60081094Y-78105000D01*
X58737500Y-78105000D01*
X58483500Y-78105000D01*
X57139906Y-78105000D01*
X57019937Y-78350980D01*
X56640000Y-78350980D01*
X56640000Y-75438000D01*
X56944400Y-75438000D01*
X57067609Y-76057411D01*
X57418477Y-76582523D01*
X57619974Y-76717159D01*
X57234527Y-77111076D01*
X57019937Y-77605020D01*
X57139906Y-77851000D01*
X58483500Y-77851000D01*
X58483500Y-77831000D01*
X58737500Y-77831000D01*
X58737500Y-77851000D01*
X60081094Y-77851000D01*
X60201063Y-77605020D01*
X59986473Y-77111076D01*
X59601026Y-76717159D01*
X59802523Y-76582523D01*
X60153391Y-76057411D01*
X60270229Y-75470027D01*
X60494338Y-75425449D01*
X60836694Y-75196694D01*
X60884759Y-75124759D01*
X60956694Y-75076694D01*
X61185449Y-74734338D01*
X61245501Y-74432436D01*
X61245501Y-74432435D01*
X61265777Y-74330501D01*
X61251829Y-74260381D01*
X61492773Y-74019437D01*
X61579193Y-73961693D01*
X61807948Y-73619337D01*
X61868000Y-73317435D01*
X61868000Y-73317434D01*
X61888276Y-73215500D01*
X61868000Y-73113566D01*
X61868000Y-67411934D01*
X61888276Y-67310000D01*
X61807948Y-66906163D01*
X61776387Y-66858928D01*
X61579193Y-66563807D01*
X61492776Y-66506065D01*
X60687733Y-65701023D01*
X60696092Y-65659000D01*
X60580839Y-65079582D01*
X60252625Y-64588375D01*
X60234381Y-64576184D01*
X60279765Y-64567157D01*
X60489809Y-64426809D01*
X60630157Y-64216765D01*
X60679440Y-63969000D01*
X60679440Y-62269000D01*
X60630157Y-62021235D01*
X60489809Y-61811191D01*
X60279765Y-61670843D01*
X60032000Y-61621560D01*
X58332000Y-61621560D01*
X58084235Y-61670843D01*
X57874191Y-61811191D01*
X57733843Y-62021235D01*
X57684560Y-62269000D01*
X57684560Y-63969000D01*
X57733843Y-64216765D01*
X57874191Y-64426809D01*
X58084235Y-64567157D01*
X58129619Y-64576184D01*
X58111375Y-64588375D01*
X57783161Y-65079582D01*
X57667908Y-65659000D01*
X57783161Y-66238418D01*
X58111375Y-66729625D01*
X58602582Y-67057839D01*
X59035744Y-67144000D01*
X59203290Y-67144000D01*
X59798001Y-67738712D01*
X59798000Y-71335356D01*
X59610500Y-71298060D01*
X57610500Y-71298060D01*
X57362735Y-71347343D01*
X57152691Y-71487691D01*
X57012343Y-71697735D01*
X56963060Y-71945500D01*
X56963060Y-73850500D01*
X57012343Y-74098265D01*
X57152691Y-74308309D01*
X57329588Y-74426509D01*
X57067609Y-74818589D01*
X56944400Y-75438000D01*
X56640000Y-75438000D01*
X56640000Y-63484025D01*
X56654888Y-63409178D01*
X56640000Y-63334331D01*
X56640000Y-63334326D01*
X56595904Y-63112641D01*
X56427929Y-62861249D01*
X56364473Y-62818849D01*
X53597132Y-60051509D01*
X53554730Y-59988050D01*
X53303338Y-59820075D01*
X53081653Y-59775979D01*
X53081648Y-59775979D01*
X53006801Y-59761091D01*
X52931954Y-59775979D01*
X37556665Y-59775979D01*
X37481818Y-59761091D01*
X37406971Y-59775979D01*
X37406967Y-59775979D01*
X37185282Y-59820075D01*
X37185280Y-59820076D01*
X37185281Y-59820076D01*
X36997345Y-59945650D01*
X36997343Y-59945652D01*
X36933890Y-59988050D01*
X36891492Y-60051503D01*
X35791929Y-61151068D01*
X35728470Y-61193470D01*
X35560495Y-61444863D01*
X35516399Y-61666548D01*
X35516399Y-61666552D01*
X35501511Y-61741399D01*
X33975484Y-61741399D01*
X33956157Y-61644235D01*
X33815809Y-61434191D01*
X33605765Y-61293843D01*
X33358000Y-61244560D01*
X31158000Y-61244560D01*
X30910235Y-61293843D01*
X30700191Y-61434191D01*
X30559843Y-61644235D01*
X30510560Y-61892000D01*
X25989670Y-61892000D01*
X25888865Y-61741135D01*
X25314963Y-61357666D01*
X24808880Y-61257000D01*
X24467120Y-61257000D01*
X23961037Y-61357666D01*
X23387135Y-61741135D01*
X23003666Y-62315037D01*
X22869010Y-62992000D01*
X20500558Y-62992000D01*
X20779740Y-62317995D01*
X20779740Y-60872005D01*
X20226384Y-59536085D01*
X19203915Y-58513616D01*
X19158972Y-58495000D01*
X62155001Y-58495000D01*
X62155000Y-84346028D01*
X62155000Y-84346028D01*
G37*
X62155000Y-84346028D02*
X62136384Y-84301085D01*
X61113915Y-83278616D01*
X59777995Y-82725260D01*
X58332005Y-82725260D01*
X56996085Y-83278616D01*
X55973616Y-84301085D01*
X55420260Y-85637005D01*
X55420260Y-87082995D01*
X55973616Y-88418915D01*
X56996085Y-89441384D01*
X57041028Y-89460000D01*
X14045000Y-89460000D01*
X14045000Y-85145000D01*
X16998969Y-85145000D01*
X17125864Y-85782945D01*
X17487231Y-86323769D01*
X18028055Y-86685136D01*
X18504969Y-86780000D01*
X20327031Y-86780000D01*
X20803945Y-86685136D01*
X21344769Y-86323769D01*
X21706136Y-85782945D01*
X21833031Y-85145000D01*
X21706136Y-84507055D01*
X21344769Y-83966231D01*
X20803945Y-83604864D01*
X20327031Y-83510000D01*
X18504969Y-83510000D01*
X18028055Y-83604864D01*
X17487231Y-83966231D01*
X17125864Y-84507055D01*
X16998969Y-85145000D01*
X14045000Y-85145000D01*
X14045000Y-80359561D01*
X15981000Y-80359561D01*
X15981000Y-80930439D01*
X16199466Y-81457862D01*
X16603138Y-81861534D01*
X17130561Y-82080000D01*
X17701439Y-82080000D01*
X18228862Y-81861534D01*
X18632534Y-81457862D01*
X18781000Y-81099434D01*
X18781000Y-81422000D01*
X18954058Y-82038020D01*
X19349683Y-82540922D01*
X19907645Y-82854144D01*
X20035566Y-82885124D01*
X20289000Y-82765777D01*
X20289000Y-80772000D01*
X20543000Y-80772000D01*
X20543000Y-82765777D01*
X20796434Y-82885124D01*
X20924355Y-82854144D01*
X21482317Y-82540922D01*
X21877942Y-82038020D01*
X22051000Y-81422000D01*
X22051000Y-80772000D01*
X20543000Y-80772000D01*
X20289000Y-80772000D01*
X20269000Y-80772000D01*
X20269000Y-80518000D01*
X20289000Y-80518000D01*
X20289000Y-78524223D01*
X20543000Y-78524223D01*
X20543000Y-80518000D01*
X22051000Y-80518000D01*
X22051000Y-79868000D01*
X21877942Y-79251980D01*
X21482317Y-78749078D01*
X21296917Y-78645000D01*
X24768560Y-78645000D01*
X24768560Y-82645000D01*
X24817843Y-82892765D01*
X24958191Y-83102809D01*
X25168235Y-83243157D01*
X25416000Y-83292440D01*
X27416000Y-83292440D01*
X27663765Y-83243157D01*
X27873809Y-83102809D01*
X28014157Y-82892765D01*
X28063440Y-82645000D01*
X28063440Y-78645000D01*
X28014157Y-78397235D01*
X27873809Y-78187191D01*
X27663765Y-78046843D01*
X27416000Y-77997560D01*
X25416000Y-77997560D01*
X25168235Y-78046843D01*
X24958191Y-78187191D01*
X24817843Y-78397235D01*
X24768560Y-78645000D01*
X21296917Y-78645000D01*
X20924355Y-78435856D01*
X20796434Y-78404876D01*
X20543000Y-78524223D01*
X20289000Y-78524223D01*
X20035566Y-78404876D01*
X19907645Y-78435856D01*
X19349683Y-78749078D01*
X18954058Y-79251980D01*
X18781000Y-79868000D01*
X18781000Y-80190566D01*
X18632534Y-79832138D01*
X18228862Y-79428466D01*
X17701439Y-79210000D01*
X17130561Y-79210000D01*
X16603138Y-79428466D01*
X16199466Y-79832138D01*
X15981000Y-80359561D01*
X14045000Y-80359561D01*
X14045000Y-76145000D01*
X16998969Y-76145000D01*
X17125864Y-76782945D01*
X17487231Y-77323769D01*
X18028055Y-77685136D01*
X18504969Y-77780000D01*
X20327031Y-77780000D01*
X20803945Y-77685136D01*
X21344769Y-77323769D01*
X21706136Y-76782945D01*
X21833031Y-76145000D01*
X21706136Y-75507055D01*
X21344769Y-74966231D01*
X20803945Y-74604864D01*
X20327031Y-74510000D01*
X18504969Y-74510000D01*
X18028055Y-74604864D01*
X17487231Y-74966231D01*
X17125864Y-75507055D01*
X16998969Y-76145000D01*
X14045000Y-76145000D01*
X14045000Y-70841890D01*
X14433524Y-70841890D01*
X14603355Y-71251924D01*
X14993642Y-71680183D01*
X15518108Y-71926486D01*
X15748000Y-71805819D01*
X15748000Y-70612000D01*
X16002000Y-70612000D01*
X16002000Y-71805819D01*
X16231892Y-71926486D01*
X16756358Y-71680183D01*
X17146645Y-71251924D01*
X17206528Y-71107344D01*
X25502563Y-71107344D01*
X25502563Y-71519092D01*
X25660132Y-71899498D01*
X25951283Y-72190649D01*
X26331689Y-72348218D01*
X26743437Y-72348218D01*
X27123843Y-72190649D01*
X27414994Y-71899498D01*
X27423070Y-71880000D01*
X31681289Y-71880000D01*
X31798720Y-71997431D01*
X32179126Y-72155000D01*
X32590874Y-72155000D01*
X32971280Y-71997431D01*
X33262431Y-71706280D01*
X33420000Y-71325874D01*
X33420000Y-70914126D01*
X33262431Y-70533720D01*
X32971280Y-70242569D01*
X32590874Y-70085000D01*
X32179126Y-70085000D01*
X31798720Y-70242569D01*
X31681289Y-70360000D01*
X27090612Y-70360000D01*
X26966539Y-70277097D01*
X26670002Y-70218112D01*
X26373465Y-70277097D01*
X26371787Y-70278218D01*
X26331689Y-70278218D01*
X25951283Y-70435787D01*
X25660132Y-70726938D01*
X25502563Y-71107344D01*
X17206528Y-71107344D01*
X17316476Y-70841890D01*
X17195155Y-70612000D01*
X16002000Y-70612000D01*
X15748000Y-70612000D01*
X14554845Y-70612000D01*
X14433524Y-70841890D01*
X14045000Y-70841890D01*
X14045000Y-67095000D01*
X14377560Y-67095000D01*
X14377560Y-68795000D01*
X14426843Y-69042765D01*
X14567191Y-69252809D01*
X14777235Y-69393157D01*
X14880708Y-69413739D01*
X14603355Y-69718076D01*
X14433524Y-70128110D01*
X14554845Y-70358000D01*
X15748000Y-70358000D01*
X15748000Y-70338000D01*
X16002000Y-70338000D01*
X16002000Y-70358000D01*
X17195155Y-70358000D01*
X17316476Y-70128110D01*
X17146645Y-69718076D01*
X16869292Y-69413739D01*
X16972765Y-69393157D01*
X17182809Y-69252809D01*
X17323157Y-69042765D01*
X17372440Y-68795000D01*
X17372440Y-67310000D01*
X22996010Y-67310000D01*
X23130666Y-67986963D01*
X23514135Y-68560865D01*
X24088037Y-68944334D01*
X24594120Y-69045000D01*
X24935880Y-69045000D01*
X25441963Y-68944334D01*
X26015865Y-68560865D01*
X26399334Y-67986963D01*
X26533990Y-67310000D01*
X26399334Y-66633037D01*
X26116670Y-66210000D01*
X30637560Y-66210000D01*
X30637560Y-68410000D01*
X30686843Y-68657765D01*
X30827191Y-68867809D01*
X31037235Y-69008157D01*
X31285000Y-69057440D01*
X33485000Y-69057440D01*
X33732765Y-69008157D01*
X33942809Y-68867809D01*
X34083157Y-68657765D01*
X34132440Y-68410000D01*
X34132440Y-66210000D01*
X34083157Y-65962235D01*
X33942809Y-65752191D01*
X33732765Y-65611843D01*
X33485000Y-65562560D01*
X31285000Y-65562560D01*
X31037235Y-65611843D01*
X30827191Y-65752191D01*
X30686843Y-65962235D01*
X30637560Y-66210000D01*
X26116670Y-66210000D01*
X26015865Y-66059135D01*
X25441963Y-65675666D01*
X24935880Y-65575000D01*
X24594120Y-65575000D01*
X24088037Y-65675666D01*
X23514135Y-66059135D01*
X23130666Y-66633037D01*
X22996010Y-67310000D01*
X17372440Y-67310000D01*
X17372440Y-67095000D01*
X17323157Y-66847235D01*
X17182809Y-66637191D01*
X16972765Y-66496843D01*
X16725000Y-66447560D01*
X15025000Y-66447560D01*
X14777235Y-66496843D01*
X14567191Y-66637191D01*
X14426843Y-66847235D01*
X14377560Y-67095000D01*
X14045000Y-67095000D01*
X14045000Y-63608972D01*
X14063616Y-63653915D01*
X15086085Y-64676384D01*
X16422005Y-65229740D01*
X17867995Y-65229740D01*
X19203915Y-64676384D01*
X20226384Y-63653915D01*
X20500558Y-62992000D01*
X22869010Y-62992000D01*
X23003666Y-63668963D01*
X23387135Y-64242865D01*
X23961037Y-64626334D01*
X24467120Y-64727000D01*
X24808880Y-64727000D01*
X25314963Y-64626334D01*
X25888865Y-64242865D01*
X26272334Y-63668963D01*
X26406990Y-62992000D01*
X26272334Y-62315037D01*
X25989670Y-61892000D01*
X30510560Y-61892000D01*
X30510560Y-64092000D01*
X30559843Y-64339765D01*
X30700191Y-64549809D01*
X30910235Y-64690157D01*
X31158000Y-64739440D01*
X33358000Y-64739440D01*
X33605765Y-64690157D01*
X33815809Y-64549809D01*
X33956157Y-64339765D01*
X34005440Y-64092000D01*
X34005440Y-61892000D01*
X33975484Y-61741399D01*
X35501511Y-61741399D01*
X35516399Y-61816246D01*
X35516400Y-63913749D01*
X35501511Y-63988601D01*
X35516400Y-64063453D01*
X35528659Y-64125081D01*
X35560496Y-64285138D01*
X35661904Y-64436905D01*
X35728471Y-64536530D01*
X35767434Y-64562564D01*
X35793470Y-64601530D01*
X36044862Y-64769505D01*
X36082298Y-64776951D01*
X36053350Y-64820275D01*
X35937041Y-65405000D01*
X36053350Y-65989725D01*
X36384570Y-66485430D01*
X36668281Y-66675000D01*
X36384570Y-66864570D01*
X36053350Y-67360275D01*
X35937041Y-67945000D01*
X36053350Y-68529725D01*
X36384570Y-69025430D01*
X36880275Y-69356650D01*
X37317402Y-69443600D01*
X37612598Y-69443600D01*
X37842974Y-69397775D01*
X44196744Y-75751545D01*
X44080569Y-75867720D01*
X43923000Y-76248126D01*
X43923000Y-76659874D01*
X44080569Y-77040280D01*
X44129289Y-77089000D01*
X44080569Y-77137720D01*
X43923000Y-77518126D01*
X43923000Y-77929874D01*
X44080569Y-78310280D01*
X44129289Y-78359000D01*
X44080569Y-78407720D01*
X43923000Y-78788126D01*
X43923000Y-79199874D01*
X44080569Y-79580280D01*
X44371720Y-79871431D01*
X44752126Y-80029000D01*
X45163874Y-80029000D01*
X45544280Y-79871431D01*
X45835431Y-79580280D01*
X45993000Y-79199874D01*
X45993000Y-78788126D01*
X45835431Y-78407720D01*
X45786711Y-78359000D01*
X45835431Y-78310280D01*
X45993000Y-77929874D01*
X45993000Y-77763801D01*
X50014476Y-73742327D01*
X50077929Y-73699929D01*
X50120327Y-73636476D01*
X50120329Y-73636474D01*
X50245903Y-73448538D01*
X50245904Y-73448537D01*
X50290000Y-73226852D01*
X50290000Y-73226848D01*
X50304888Y-73152001D01*
X50290000Y-73077154D01*
X50290000Y-63889178D01*
X50600625Y-63681625D01*
X50813843Y-63362522D01*
X50874817Y-63492358D01*
X51303076Y-63882645D01*
X51713110Y-64052476D01*
X51943000Y-63931155D01*
X51943000Y-62738000D01*
X51923000Y-62738000D01*
X51923000Y-62484000D01*
X51943000Y-62484000D01*
X51943000Y-62464000D01*
X52197000Y-62464000D01*
X52197000Y-62484000D01*
X52217000Y-62484000D01*
X52217000Y-62738000D01*
X52197000Y-62738000D01*
X52197000Y-63931155D01*
X52426890Y-64052476D01*
X52836924Y-63882645D01*
X53265183Y-63492358D01*
X53377147Y-63253947D01*
X53850001Y-63726801D01*
X53850000Y-77020289D01*
X53732569Y-77137720D01*
X53575000Y-77518126D01*
X53575000Y-77929874D01*
X53732569Y-78310280D01*
X53781289Y-78359000D01*
X53732569Y-78407720D01*
X53575000Y-78788126D01*
X53575000Y-79199874D01*
X53732569Y-79580280D01*
X53781289Y-79629000D01*
X53732569Y-79677720D01*
X53575000Y-80058126D01*
X53575000Y-80469874D01*
X53732569Y-80850280D01*
X54023720Y-81141431D01*
X54404126Y-81299000D01*
X54815874Y-81299000D01*
X55196280Y-81141431D01*
X55487431Y-80850280D01*
X55645000Y-80469874D01*
X55645000Y-80303801D01*
X56364473Y-79584329D01*
X56427929Y-79541929D01*
X56595904Y-79290537D01*
X56640000Y-79068852D01*
X56640000Y-79068848D01*
X56654888Y-78994001D01*
X56640000Y-78919154D01*
X56640000Y-78350980D01*
X57019937Y-78350980D01*
X57234527Y-78844924D01*
X57667409Y-79287318D01*
X58236636Y-79530380D01*
X58483500Y-79403572D01*
X58483500Y-78105000D01*
X58737500Y-78105000D01*
X58737500Y-79403572D01*
X58984364Y-79530380D01*
X59553591Y-79287318D01*
X59986473Y-78844924D01*
X60201063Y-78350980D01*
X60081094Y-78105000D01*
X58737500Y-78105000D01*
X58483500Y-78105000D01*
X57139906Y-78105000D01*
X57019937Y-78350980D01*
X56640000Y-78350980D01*
X56640000Y-75438000D01*
X56944400Y-75438000D01*
X57067609Y-76057411D01*
X57418477Y-76582523D01*
X57619974Y-76717159D01*
X57234527Y-77111076D01*
X57019937Y-77605020D01*
X57139906Y-77851000D01*
X58483500Y-77851000D01*
X58483500Y-77831000D01*
X58737500Y-77831000D01*
X58737500Y-77851000D01*
X60081094Y-77851000D01*
X60201063Y-77605020D01*
X59986473Y-77111076D01*
X59601026Y-76717159D01*
X59802523Y-76582523D01*
X60153391Y-76057411D01*
X60270229Y-75470027D01*
X60494338Y-75425449D01*
X60836694Y-75196694D01*
X60884759Y-75124759D01*
X60956694Y-75076694D01*
X61185449Y-74734338D01*
X61245501Y-74432436D01*
X61245501Y-74432435D01*
X61265777Y-74330501D01*
X61251829Y-74260381D01*
X61492773Y-74019437D01*
X61579193Y-73961693D01*
X61807948Y-73619337D01*
X61868000Y-73317435D01*
X61868000Y-73317434D01*
X61888276Y-73215500D01*
X61868000Y-73113566D01*
X61868000Y-67411934D01*
X61888276Y-67310000D01*
X61807948Y-66906163D01*
X61776387Y-66858928D01*
X61579193Y-66563807D01*
X61492776Y-66506065D01*
X60687733Y-65701023D01*
X60696092Y-65659000D01*
X60580839Y-65079582D01*
X60252625Y-64588375D01*
X60234381Y-64576184D01*
X60279765Y-64567157D01*
X60489809Y-64426809D01*
X60630157Y-64216765D01*
X60679440Y-63969000D01*
X60679440Y-62269000D01*
X60630157Y-62021235D01*
X60489809Y-61811191D01*
X60279765Y-61670843D01*
X60032000Y-61621560D01*
X58332000Y-61621560D01*
X58084235Y-61670843D01*
X57874191Y-61811191D01*
X57733843Y-62021235D01*
X57684560Y-62269000D01*
X57684560Y-63969000D01*
X57733843Y-64216765D01*
X57874191Y-64426809D01*
X58084235Y-64567157D01*
X58129619Y-64576184D01*
X58111375Y-64588375D01*
X57783161Y-65079582D01*
X57667908Y-65659000D01*
X57783161Y-66238418D01*
X58111375Y-66729625D01*
X58602582Y-67057839D01*
X59035744Y-67144000D01*
X59203290Y-67144000D01*
X59798001Y-67738712D01*
X59798000Y-71335356D01*
X59610500Y-71298060D01*
X57610500Y-71298060D01*
X57362735Y-71347343D01*
X57152691Y-71487691D01*
X57012343Y-71697735D01*
X56963060Y-71945500D01*
X56963060Y-73850500D01*
X57012343Y-74098265D01*
X57152691Y-74308309D01*
X57329588Y-74426509D01*
X57067609Y-74818589D01*
X56944400Y-75438000D01*
X56640000Y-75438000D01*
X56640000Y-63484025D01*
X56654888Y-63409178D01*
X56640000Y-63334331D01*
X56640000Y-63334326D01*
X56595904Y-63112641D01*
X56427929Y-62861249D01*
X56364473Y-62818849D01*
X53597132Y-60051509D01*
X53554730Y-59988050D01*
X53303338Y-59820075D01*
X53081653Y-59775979D01*
X53081648Y-59775979D01*
X53006801Y-59761091D01*
X52931954Y-59775979D01*
X37556665Y-59775979D01*
X37481818Y-59761091D01*
X37406971Y-59775979D01*
X37406967Y-59775979D01*
X37185282Y-59820075D01*
X37185280Y-59820076D01*
X37185281Y-59820076D01*
X36997345Y-59945650D01*
X36997343Y-59945652D01*
X36933890Y-59988050D01*
X36891492Y-60051503D01*
X35791929Y-61151068D01*
X35728470Y-61193470D01*
X35560495Y-61444863D01*
X35516399Y-61666548D01*
X35516399Y-61666552D01*
X35501511Y-61741399D01*
X33975484Y-61741399D01*
X33956157Y-61644235D01*
X33815809Y-61434191D01*
X33605765Y-61293843D01*
X33358000Y-61244560D01*
X31158000Y-61244560D01*
X30910235Y-61293843D01*
X30700191Y-61434191D01*
X30559843Y-61644235D01*
X30510560Y-61892000D01*
X25989670Y-61892000D01*
X25888865Y-61741135D01*
X25314963Y-61357666D01*
X24808880Y-61257000D01*
X24467120Y-61257000D01*
X23961037Y-61357666D01*
X23387135Y-61741135D01*
X23003666Y-62315037D01*
X22869010Y-62992000D01*
X20500558Y-62992000D01*
X20779740Y-62317995D01*
X20779740Y-60872005D01*
X20226384Y-59536085D01*
X19203915Y-58513616D01*
X19158972Y-58495000D01*
X62155001Y-58495000D01*
X62155000Y-84346028D01*
G36*
X48770000Y-72837197D02*
X45787455Y-75819744D01*
X45718000Y-75750289D01*
X45718000Y-75512848D01*
X45732888Y-75438000D01*
X45718000Y-75363152D01*
X45718000Y-75363148D01*
X45673904Y-75141463D01*
X45505929Y-74890071D01*
X45442473Y-74847671D01*
X40038401Y-69443600D01*
X40132002Y-69443600D01*
X40132002Y-69279470D01*
X40364027Y-69399968D01*
X40893490Y-69151821D01*
X41287688Y-68719947D01*
X41459958Y-68304026D01*
X41338817Y-68072000D01*
X40132000Y-68072000D01*
X40132000Y-68092000D01*
X39878000Y-68092000D01*
X39878000Y-68072000D01*
X39858000Y-68072000D01*
X39858000Y-67818000D01*
X39878000Y-67818000D01*
X39878000Y-67798000D01*
X40132000Y-67798000D01*
X40132000Y-67818000D01*
X41338817Y-67818000D01*
X41459958Y-67585974D01*
X41363712Y-67353601D01*
X45217554Y-67353601D01*
X45292401Y-67368489D01*
X45367248Y-67353601D01*
X45367253Y-67353601D01*
X45588938Y-67309505D01*
X45840330Y-67141530D01*
X45882732Y-67078071D01*
X48649474Y-64311330D01*
X48712930Y-64268930D01*
X48770001Y-64183518D01*
X48770000Y-72837197D01*
X48770000Y-72837197D01*
G37*
X48770000Y-72837197D02*
X45787455Y-75819744D01*
X45718000Y-75750289D01*
X45718000Y-75512848D01*
X45732888Y-75438000D01*
X45718000Y-75363152D01*
X45718000Y-75363148D01*
X45673904Y-75141463D01*
X45505929Y-74890071D01*
X45442473Y-74847671D01*
X40038401Y-69443600D01*
X40132002Y-69443600D01*
X40132002Y-69279470D01*
X40364027Y-69399968D01*
X40893490Y-69151821D01*
X41287688Y-68719947D01*
X41459958Y-68304026D01*
X41338817Y-68072000D01*
X40132000Y-68072000D01*
X40132000Y-68092000D01*
X39878000Y-68092000D01*
X39878000Y-68072000D01*
X39858000Y-68072000D01*
X39858000Y-67818000D01*
X39878000Y-67818000D01*
X39878000Y-67798000D01*
X40132000Y-67798000D01*
X40132000Y-67818000D01*
X41338817Y-67818000D01*
X41459958Y-67585974D01*
X41363712Y-67353601D01*
X45217554Y-67353601D01*
X45292401Y-67368489D01*
X45367248Y-67353601D01*
X45367253Y-67353601D01*
X45588938Y-67309505D01*
X45840330Y-67141530D01*
X45882732Y-67078071D01*
X48649474Y-64311330D01*
X48712930Y-64268930D01*
X48770001Y-64183518D01*
X48770000Y-72837197D01*
G04 #@! TD*
M02*
