G04 #@! TF.GenerationSoftware,KiCad,Pcbnew,(5.0.1)-4*
G04 #@! TF.CreationDate,2018-11-16T16:38:59+08:00*
G04 #@! TF.ProjectId,AILight,41494C696768742E6B696361645F7063,rev?*
G04 #@! TF.SameCoordinates,Original*
G04 #@! TF.FileFunction,Paste,Top*
G04 #@! TF.FilePolarity,Positive*
%FSLAX46Y46*%
G04 Gerber Fmt 4.6, Leading zero omitted, Abs format (unit mm)*
G04 Created by KiCad (PCBNEW (5.0.1)-4) date 2018-11-16 16:38:59*
%MOMM*%
%LPD*%
G01*
G04 APERTURE LIST*
%ADD10R,1.550000X0.600000*%
%ADD11C,0.100000*%
%ADD12C,1.150000*%
%ADD13R,2.000000X3.800000*%
%ADD14R,2.000000X1.500000*%
G04 APERTURE END LIST*
D10*
G04 #@! TO.C,U2*
X47051000Y-76454000D03*
X47051000Y-77724000D03*
X47051000Y-78994000D03*
X47051000Y-80264000D03*
X52451000Y-80264000D03*
X52451000Y-78994000D03*
X52451000Y-77724000D03*
X52451000Y-76454000D03*
G04 #@! TD*
D11*
G04 #@! TO.C,C1*
G36*
X22438505Y-70421204D02*
X22462773Y-70424804D01*
X22486572Y-70430765D01*
X22509671Y-70439030D01*
X22531850Y-70449520D01*
X22552893Y-70462132D01*
X22572599Y-70476747D01*
X22590777Y-70493223D01*
X22607253Y-70511401D01*
X22621868Y-70531107D01*
X22634480Y-70552150D01*
X22644970Y-70574329D01*
X22653235Y-70597428D01*
X22659196Y-70621227D01*
X22662796Y-70645495D01*
X22664000Y-70669999D01*
X22664000Y-71570001D01*
X22662796Y-71594505D01*
X22659196Y-71618773D01*
X22653235Y-71642572D01*
X22644970Y-71665671D01*
X22634480Y-71687850D01*
X22621868Y-71708893D01*
X22607253Y-71728599D01*
X22590777Y-71746777D01*
X22572599Y-71763253D01*
X22552893Y-71777868D01*
X22531850Y-71790480D01*
X22509671Y-71800970D01*
X22486572Y-71809235D01*
X22462773Y-71815196D01*
X22438505Y-71818796D01*
X22414001Y-71820000D01*
X21763999Y-71820000D01*
X21739495Y-71818796D01*
X21715227Y-71815196D01*
X21691428Y-71809235D01*
X21668329Y-71800970D01*
X21646150Y-71790480D01*
X21625107Y-71777868D01*
X21605401Y-71763253D01*
X21587223Y-71746777D01*
X21570747Y-71728599D01*
X21556132Y-71708893D01*
X21543520Y-71687850D01*
X21533030Y-71665671D01*
X21524765Y-71642572D01*
X21518804Y-71618773D01*
X21515204Y-71594505D01*
X21514000Y-71570001D01*
X21514000Y-70669999D01*
X21515204Y-70645495D01*
X21518804Y-70621227D01*
X21524765Y-70597428D01*
X21533030Y-70574329D01*
X21543520Y-70552150D01*
X21556132Y-70531107D01*
X21570747Y-70511401D01*
X21587223Y-70493223D01*
X21605401Y-70476747D01*
X21625107Y-70462132D01*
X21646150Y-70449520D01*
X21668329Y-70439030D01*
X21691428Y-70430765D01*
X21715227Y-70424804D01*
X21739495Y-70421204D01*
X21763999Y-70420000D01*
X22414001Y-70420000D01*
X22438505Y-70421204D01*
X22438505Y-70421204D01*
G37*
D12*
X22089000Y-71120000D03*
D11*
G36*
X24488505Y-70421204D02*
X24512773Y-70424804D01*
X24536572Y-70430765D01*
X24559671Y-70439030D01*
X24581850Y-70449520D01*
X24602893Y-70462132D01*
X24622599Y-70476747D01*
X24640777Y-70493223D01*
X24657253Y-70511401D01*
X24671868Y-70531107D01*
X24684480Y-70552150D01*
X24694970Y-70574329D01*
X24703235Y-70597428D01*
X24709196Y-70621227D01*
X24712796Y-70645495D01*
X24714000Y-70669999D01*
X24714000Y-71570001D01*
X24712796Y-71594505D01*
X24709196Y-71618773D01*
X24703235Y-71642572D01*
X24694970Y-71665671D01*
X24684480Y-71687850D01*
X24671868Y-71708893D01*
X24657253Y-71728599D01*
X24640777Y-71746777D01*
X24622599Y-71763253D01*
X24602893Y-71777868D01*
X24581850Y-71790480D01*
X24559671Y-71800970D01*
X24536572Y-71809235D01*
X24512773Y-71815196D01*
X24488505Y-71818796D01*
X24464001Y-71820000D01*
X23813999Y-71820000D01*
X23789495Y-71818796D01*
X23765227Y-71815196D01*
X23741428Y-71809235D01*
X23718329Y-71800970D01*
X23696150Y-71790480D01*
X23675107Y-71777868D01*
X23655401Y-71763253D01*
X23637223Y-71746777D01*
X23620747Y-71728599D01*
X23606132Y-71708893D01*
X23593520Y-71687850D01*
X23583030Y-71665671D01*
X23574765Y-71642572D01*
X23568804Y-71618773D01*
X23565204Y-71594505D01*
X23564000Y-71570001D01*
X23564000Y-70669999D01*
X23565204Y-70645495D01*
X23568804Y-70621227D01*
X23574765Y-70597428D01*
X23583030Y-70574329D01*
X23593520Y-70552150D01*
X23606132Y-70531107D01*
X23620747Y-70511401D01*
X23637223Y-70493223D01*
X23655401Y-70476747D01*
X23675107Y-70462132D01*
X23696150Y-70449520D01*
X23718329Y-70439030D01*
X23741428Y-70430765D01*
X23765227Y-70424804D01*
X23789495Y-70421204D01*
X23813999Y-70420000D01*
X24464001Y-70420000D01*
X24488505Y-70421204D01*
X24488505Y-70421204D01*
G37*
D12*
X24139000Y-71120000D03*
G04 #@! TD*
D11*
G04 #@! TO.C,R5*
G36*
X33456142Y-85003453D02*
X33480410Y-85007053D01*
X33504209Y-85013014D01*
X33527308Y-85021279D01*
X33549487Y-85031769D01*
X33570530Y-85044381D01*
X33590236Y-85058996D01*
X33608414Y-85075472D01*
X33624890Y-85093650D01*
X33639505Y-85113356D01*
X33652117Y-85134399D01*
X33662607Y-85156578D01*
X33670872Y-85179677D01*
X33676833Y-85203476D01*
X33680433Y-85227744D01*
X33681637Y-85252248D01*
X33681637Y-85902250D01*
X33680433Y-85926754D01*
X33676833Y-85951022D01*
X33670872Y-85974821D01*
X33662607Y-85997920D01*
X33652117Y-86020099D01*
X33639505Y-86041142D01*
X33624890Y-86060848D01*
X33608414Y-86079026D01*
X33590236Y-86095502D01*
X33570530Y-86110117D01*
X33549487Y-86122729D01*
X33527308Y-86133219D01*
X33504209Y-86141484D01*
X33480410Y-86147445D01*
X33456142Y-86151045D01*
X33431638Y-86152249D01*
X32531636Y-86152249D01*
X32507132Y-86151045D01*
X32482864Y-86147445D01*
X32459065Y-86141484D01*
X32435966Y-86133219D01*
X32413787Y-86122729D01*
X32392744Y-86110117D01*
X32373038Y-86095502D01*
X32354860Y-86079026D01*
X32338384Y-86060848D01*
X32323769Y-86041142D01*
X32311157Y-86020099D01*
X32300667Y-85997920D01*
X32292402Y-85974821D01*
X32286441Y-85951022D01*
X32282841Y-85926754D01*
X32281637Y-85902250D01*
X32281637Y-85252248D01*
X32282841Y-85227744D01*
X32286441Y-85203476D01*
X32292402Y-85179677D01*
X32300667Y-85156578D01*
X32311157Y-85134399D01*
X32323769Y-85113356D01*
X32338384Y-85093650D01*
X32354860Y-85075472D01*
X32373038Y-85058996D01*
X32392744Y-85044381D01*
X32413787Y-85031769D01*
X32435966Y-85021279D01*
X32459065Y-85013014D01*
X32482864Y-85007053D01*
X32507132Y-85003453D01*
X32531636Y-85002249D01*
X33431638Y-85002249D01*
X33456142Y-85003453D01*
X33456142Y-85003453D01*
G37*
D12*
X32981637Y-85577249D03*
D11*
G36*
X33456142Y-82953453D02*
X33480410Y-82957053D01*
X33504209Y-82963014D01*
X33527308Y-82971279D01*
X33549487Y-82981769D01*
X33570530Y-82994381D01*
X33590236Y-83008996D01*
X33608414Y-83025472D01*
X33624890Y-83043650D01*
X33639505Y-83063356D01*
X33652117Y-83084399D01*
X33662607Y-83106578D01*
X33670872Y-83129677D01*
X33676833Y-83153476D01*
X33680433Y-83177744D01*
X33681637Y-83202248D01*
X33681637Y-83852250D01*
X33680433Y-83876754D01*
X33676833Y-83901022D01*
X33670872Y-83924821D01*
X33662607Y-83947920D01*
X33652117Y-83970099D01*
X33639505Y-83991142D01*
X33624890Y-84010848D01*
X33608414Y-84029026D01*
X33590236Y-84045502D01*
X33570530Y-84060117D01*
X33549487Y-84072729D01*
X33527308Y-84083219D01*
X33504209Y-84091484D01*
X33480410Y-84097445D01*
X33456142Y-84101045D01*
X33431638Y-84102249D01*
X32531636Y-84102249D01*
X32507132Y-84101045D01*
X32482864Y-84097445D01*
X32459065Y-84091484D01*
X32435966Y-84083219D01*
X32413787Y-84072729D01*
X32392744Y-84060117D01*
X32373038Y-84045502D01*
X32354860Y-84029026D01*
X32338384Y-84010848D01*
X32323769Y-83991142D01*
X32311157Y-83970099D01*
X32300667Y-83947920D01*
X32292402Y-83924821D01*
X32286441Y-83901022D01*
X32282841Y-83876754D01*
X32281637Y-83852250D01*
X32281637Y-83202248D01*
X32282841Y-83177744D01*
X32286441Y-83153476D01*
X32292402Y-83129677D01*
X32300667Y-83106578D01*
X32311157Y-83084399D01*
X32323769Y-83063356D01*
X32338384Y-83043650D01*
X32354860Y-83025472D01*
X32373038Y-83008996D01*
X32392744Y-82994381D01*
X32413787Y-82981769D01*
X32435966Y-82971279D01*
X32459065Y-82963014D01*
X32482864Y-82957053D01*
X32507132Y-82953453D01*
X32531636Y-82952249D01*
X33431638Y-82952249D01*
X33456142Y-82953453D01*
X33456142Y-82953453D01*
G37*
D12*
X32981637Y-83527249D03*
G04 #@! TD*
D11*
G04 #@! TO.C,R4*
G36*
X37774142Y-82953453D02*
X37798410Y-82957053D01*
X37822209Y-82963014D01*
X37845308Y-82971279D01*
X37867487Y-82981769D01*
X37888530Y-82994381D01*
X37908236Y-83008996D01*
X37926414Y-83025472D01*
X37942890Y-83043650D01*
X37957505Y-83063356D01*
X37970117Y-83084399D01*
X37980607Y-83106578D01*
X37988872Y-83129677D01*
X37994833Y-83153476D01*
X37998433Y-83177744D01*
X37999637Y-83202248D01*
X37999637Y-83852250D01*
X37998433Y-83876754D01*
X37994833Y-83901022D01*
X37988872Y-83924821D01*
X37980607Y-83947920D01*
X37970117Y-83970099D01*
X37957505Y-83991142D01*
X37942890Y-84010848D01*
X37926414Y-84029026D01*
X37908236Y-84045502D01*
X37888530Y-84060117D01*
X37867487Y-84072729D01*
X37845308Y-84083219D01*
X37822209Y-84091484D01*
X37798410Y-84097445D01*
X37774142Y-84101045D01*
X37749638Y-84102249D01*
X36849636Y-84102249D01*
X36825132Y-84101045D01*
X36800864Y-84097445D01*
X36777065Y-84091484D01*
X36753966Y-84083219D01*
X36731787Y-84072729D01*
X36710744Y-84060117D01*
X36691038Y-84045502D01*
X36672860Y-84029026D01*
X36656384Y-84010848D01*
X36641769Y-83991142D01*
X36629157Y-83970099D01*
X36618667Y-83947920D01*
X36610402Y-83924821D01*
X36604441Y-83901022D01*
X36600841Y-83876754D01*
X36599637Y-83852250D01*
X36599637Y-83202248D01*
X36600841Y-83177744D01*
X36604441Y-83153476D01*
X36610402Y-83129677D01*
X36618667Y-83106578D01*
X36629157Y-83084399D01*
X36641769Y-83063356D01*
X36656384Y-83043650D01*
X36672860Y-83025472D01*
X36691038Y-83008996D01*
X36710744Y-82994381D01*
X36731787Y-82981769D01*
X36753966Y-82971279D01*
X36777065Y-82963014D01*
X36800864Y-82957053D01*
X36825132Y-82953453D01*
X36849636Y-82952249D01*
X37749638Y-82952249D01*
X37774142Y-82953453D01*
X37774142Y-82953453D01*
G37*
D12*
X37299637Y-83527249D03*
D11*
G36*
X37774142Y-85003453D02*
X37798410Y-85007053D01*
X37822209Y-85013014D01*
X37845308Y-85021279D01*
X37867487Y-85031769D01*
X37888530Y-85044381D01*
X37908236Y-85058996D01*
X37926414Y-85075472D01*
X37942890Y-85093650D01*
X37957505Y-85113356D01*
X37970117Y-85134399D01*
X37980607Y-85156578D01*
X37988872Y-85179677D01*
X37994833Y-85203476D01*
X37998433Y-85227744D01*
X37999637Y-85252248D01*
X37999637Y-85902250D01*
X37998433Y-85926754D01*
X37994833Y-85951022D01*
X37988872Y-85974821D01*
X37980607Y-85997920D01*
X37970117Y-86020099D01*
X37957505Y-86041142D01*
X37942890Y-86060848D01*
X37926414Y-86079026D01*
X37908236Y-86095502D01*
X37888530Y-86110117D01*
X37867487Y-86122729D01*
X37845308Y-86133219D01*
X37822209Y-86141484D01*
X37798410Y-86147445D01*
X37774142Y-86151045D01*
X37749638Y-86152249D01*
X36849636Y-86152249D01*
X36825132Y-86151045D01*
X36800864Y-86147445D01*
X36777065Y-86141484D01*
X36753966Y-86133219D01*
X36731787Y-86122729D01*
X36710744Y-86110117D01*
X36691038Y-86095502D01*
X36672860Y-86079026D01*
X36656384Y-86060848D01*
X36641769Y-86041142D01*
X36629157Y-86020099D01*
X36618667Y-85997920D01*
X36610402Y-85974821D01*
X36604441Y-85951022D01*
X36600841Y-85926754D01*
X36599637Y-85902250D01*
X36599637Y-85252248D01*
X36600841Y-85227744D01*
X36604441Y-85203476D01*
X36610402Y-85179677D01*
X36618667Y-85156578D01*
X36629157Y-85134399D01*
X36641769Y-85113356D01*
X36656384Y-85093650D01*
X36672860Y-85075472D01*
X36691038Y-85058996D01*
X36710744Y-85044381D01*
X36731787Y-85031769D01*
X36753966Y-85021279D01*
X36777065Y-85013014D01*
X36800864Y-85007053D01*
X36825132Y-85003453D01*
X36849636Y-85002249D01*
X37749638Y-85002249D01*
X37774142Y-85003453D01*
X37774142Y-85003453D01*
G37*
D12*
X37299637Y-85577249D03*
G04 #@! TD*
D11*
G04 #@! TO.C,R3*
G36*
X42092142Y-82953453D02*
X42116410Y-82957053D01*
X42140209Y-82963014D01*
X42163308Y-82971279D01*
X42185487Y-82981769D01*
X42206530Y-82994381D01*
X42226236Y-83008996D01*
X42244414Y-83025472D01*
X42260890Y-83043650D01*
X42275505Y-83063356D01*
X42288117Y-83084399D01*
X42298607Y-83106578D01*
X42306872Y-83129677D01*
X42312833Y-83153476D01*
X42316433Y-83177744D01*
X42317637Y-83202248D01*
X42317637Y-83852250D01*
X42316433Y-83876754D01*
X42312833Y-83901022D01*
X42306872Y-83924821D01*
X42298607Y-83947920D01*
X42288117Y-83970099D01*
X42275505Y-83991142D01*
X42260890Y-84010848D01*
X42244414Y-84029026D01*
X42226236Y-84045502D01*
X42206530Y-84060117D01*
X42185487Y-84072729D01*
X42163308Y-84083219D01*
X42140209Y-84091484D01*
X42116410Y-84097445D01*
X42092142Y-84101045D01*
X42067638Y-84102249D01*
X41167636Y-84102249D01*
X41143132Y-84101045D01*
X41118864Y-84097445D01*
X41095065Y-84091484D01*
X41071966Y-84083219D01*
X41049787Y-84072729D01*
X41028744Y-84060117D01*
X41009038Y-84045502D01*
X40990860Y-84029026D01*
X40974384Y-84010848D01*
X40959769Y-83991142D01*
X40947157Y-83970099D01*
X40936667Y-83947920D01*
X40928402Y-83924821D01*
X40922441Y-83901022D01*
X40918841Y-83876754D01*
X40917637Y-83852250D01*
X40917637Y-83202248D01*
X40918841Y-83177744D01*
X40922441Y-83153476D01*
X40928402Y-83129677D01*
X40936667Y-83106578D01*
X40947157Y-83084399D01*
X40959769Y-83063356D01*
X40974384Y-83043650D01*
X40990860Y-83025472D01*
X41009038Y-83008996D01*
X41028744Y-82994381D01*
X41049787Y-82981769D01*
X41071966Y-82971279D01*
X41095065Y-82963014D01*
X41118864Y-82957053D01*
X41143132Y-82953453D01*
X41167636Y-82952249D01*
X42067638Y-82952249D01*
X42092142Y-82953453D01*
X42092142Y-82953453D01*
G37*
D12*
X41617637Y-83527249D03*
D11*
G36*
X42092142Y-85003453D02*
X42116410Y-85007053D01*
X42140209Y-85013014D01*
X42163308Y-85021279D01*
X42185487Y-85031769D01*
X42206530Y-85044381D01*
X42226236Y-85058996D01*
X42244414Y-85075472D01*
X42260890Y-85093650D01*
X42275505Y-85113356D01*
X42288117Y-85134399D01*
X42298607Y-85156578D01*
X42306872Y-85179677D01*
X42312833Y-85203476D01*
X42316433Y-85227744D01*
X42317637Y-85252248D01*
X42317637Y-85902250D01*
X42316433Y-85926754D01*
X42312833Y-85951022D01*
X42306872Y-85974821D01*
X42298607Y-85997920D01*
X42288117Y-86020099D01*
X42275505Y-86041142D01*
X42260890Y-86060848D01*
X42244414Y-86079026D01*
X42226236Y-86095502D01*
X42206530Y-86110117D01*
X42185487Y-86122729D01*
X42163308Y-86133219D01*
X42140209Y-86141484D01*
X42116410Y-86147445D01*
X42092142Y-86151045D01*
X42067638Y-86152249D01*
X41167636Y-86152249D01*
X41143132Y-86151045D01*
X41118864Y-86147445D01*
X41095065Y-86141484D01*
X41071966Y-86133219D01*
X41049787Y-86122729D01*
X41028744Y-86110117D01*
X41009038Y-86095502D01*
X40990860Y-86079026D01*
X40974384Y-86060848D01*
X40959769Y-86041142D01*
X40947157Y-86020099D01*
X40936667Y-85997920D01*
X40928402Y-85974821D01*
X40922441Y-85951022D01*
X40918841Y-85926754D01*
X40917637Y-85902250D01*
X40917637Y-85252248D01*
X40918841Y-85227744D01*
X40922441Y-85203476D01*
X40928402Y-85179677D01*
X40936667Y-85156578D01*
X40947157Y-85134399D01*
X40959769Y-85113356D01*
X40974384Y-85093650D01*
X40990860Y-85075472D01*
X41009038Y-85058996D01*
X41028744Y-85044381D01*
X41049787Y-85031769D01*
X41071966Y-85021279D01*
X41095065Y-85013014D01*
X41118864Y-85007053D01*
X41143132Y-85003453D01*
X41167636Y-85002249D01*
X42067638Y-85002249D01*
X42092142Y-85003453D01*
X42092142Y-85003453D01*
G37*
D12*
X41617637Y-85577249D03*
G04 #@! TD*
D11*
G04 #@! TO.C,R2*
G36*
X46664142Y-82953453D02*
X46688410Y-82957053D01*
X46712209Y-82963014D01*
X46735308Y-82971279D01*
X46757487Y-82981769D01*
X46778530Y-82994381D01*
X46798236Y-83008996D01*
X46816414Y-83025472D01*
X46832890Y-83043650D01*
X46847505Y-83063356D01*
X46860117Y-83084399D01*
X46870607Y-83106578D01*
X46878872Y-83129677D01*
X46884833Y-83153476D01*
X46888433Y-83177744D01*
X46889637Y-83202248D01*
X46889637Y-83852250D01*
X46888433Y-83876754D01*
X46884833Y-83901022D01*
X46878872Y-83924821D01*
X46870607Y-83947920D01*
X46860117Y-83970099D01*
X46847505Y-83991142D01*
X46832890Y-84010848D01*
X46816414Y-84029026D01*
X46798236Y-84045502D01*
X46778530Y-84060117D01*
X46757487Y-84072729D01*
X46735308Y-84083219D01*
X46712209Y-84091484D01*
X46688410Y-84097445D01*
X46664142Y-84101045D01*
X46639638Y-84102249D01*
X45739636Y-84102249D01*
X45715132Y-84101045D01*
X45690864Y-84097445D01*
X45667065Y-84091484D01*
X45643966Y-84083219D01*
X45621787Y-84072729D01*
X45600744Y-84060117D01*
X45581038Y-84045502D01*
X45562860Y-84029026D01*
X45546384Y-84010848D01*
X45531769Y-83991142D01*
X45519157Y-83970099D01*
X45508667Y-83947920D01*
X45500402Y-83924821D01*
X45494441Y-83901022D01*
X45490841Y-83876754D01*
X45489637Y-83852250D01*
X45489637Y-83202248D01*
X45490841Y-83177744D01*
X45494441Y-83153476D01*
X45500402Y-83129677D01*
X45508667Y-83106578D01*
X45519157Y-83084399D01*
X45531769Y-83063356D01*
X45546384Y-83043650D01*
X45562860Y-83025472D01*
X45581038Y-83008996D01*
X45600744Y-82994381D01*
X45621787Y-82981769D01*
X45643966Y-82971279D01*
X45667065Y-82963014D01*
X45690864Y-82957053D01*
X45715132Y-82953453D01*
X45739636Y-82952249D01*
X46639638Y-82952249D01*
X46664142Y-82953453D01*
X46664142Y-82953453D01*
G37*
D12*
X46189637Y-83527249D03*
D11*
G36*
X46664142Y-85003453D02*
X46688410Y-85007053D01*
X46712209Y-85013014D01*
X46735308Y-85021279D01*
X46757487Y-85031769D01*
X46778530Y-85044381D01*
X46798236Y-85058996D01*
X46816414Y-85075472D01*
X46832890Y-85093650D01*
X46847505Y-85113356D01*
X46860117Y-85134399D01*
X46870607Y-85156578D01*
X46878872Y-85179677D01*
X46884833Y-85203476D01*
X46888433Y-85227744D01*
X46889637Y-85252248D01*
X46889637Y-85902250D01*
X46888433Y-85926754D01*
X46884833Y-85951022D01*
X46878872Y-85974821D01*
X46870607Y-85997920D01*
X46860117Y-86020099D01*
X46847505Y-86041142D01*
X46832890Y-86060848D01*
X46816414Y-86079026D01*
X46798236Y-86095502D01*
X46778530Y-86110117D01*
X46757487Y-86122729D01*
X46735308Y-86133219D01*
X46712209Y-86141484D01*
X46688410Y-86147445D01*
X46664142Y-86151045D01*
X46639638Y-86152249D01*
X45739636Y-86152249D01*
X45715132Y-86151045D01*
X45690864Y-86147445D01*
X45667065Y-86141484D01*
X45643966Y-86133219D01*
X45621787Y-86122729D01*
X45600744Y-86110117D01*
X45581038Y-86095502D01*
X45562860Y-86079026D01*
X45546384Y-86060848D01*
X45531769Y-86041142D01*
X45519157Y-86020099D01*
X45508667Y-85997920D01*
X45500402Y-85974821D01*
X45494441Y-85951022D01*
X45490841Y-85926754D01*
X45489637Y-85902250D01*
X45489637Y-85252248D01*
X45490841Y-85227744D01*
X45494441Y-85203476D01*
X45500402Y-85179677D01*
X45508667Y-85156578D01*
X45519157Y-85134399D01*
X45531769Y-85113356D01*
X45546384Y-85093650D01*
X45562860Y-85075472D01*
X45581038Y-85058996D01*
X45600744Y-85044381D01*
X45621787Y-85031769D01*
X45643966Y-85021279D01*
X45667065Y-85013014D01*
X45690864Y-85007053D01*
X45715132Y-85003453D01*
X45739636Y-85002249D01*
X46639638Y-85002249D01*
X46664142Y-85003453D01*
X46664142Y-85003453D01*
G37*
D12*
X46189637Y-85577249D03*
G04 #@! TD*
D11*
G04 #@! TO.C,R1*
G36*
X51147505Y-84906204D02*
X51171773Y-84909804D01*
X51195572Y-84915765D01*
X51218671Y-84924030D01*
X51240850Y-84934520D01*
X51261893Y-84947132D01*
X51281599Y-84961747D01*
X51299777Y-84978223D01*
X51316253Y-84996401D01*
X51330868Y-85016107D01*
X51343480Y-85037150D01*
X51353970Y-85059329D01*
X51362235Y-85082428D01*
X51368196Y-85106227D01*
X51371796Y-85130495D01*
X51373000Y-85154999D01*
X51373000Y-85805001D01*
X51371796Y-85829505D01*
X51368196Y-85853773D01*
X51362235Y-85877572D01*
X51353970Y-85900671D01*
X51343480Y-85922850D01*
X51330868Y-85943893D01*
X51316253Y-85963599D01*
X51299777Y-85981777D01*
X51281599Y-85998253D01*
X51261893Y-86012868D01*
X51240850Y-86025480D01*
X51218671Y-86035970D01*
X51195572Y-86044235D01*
X51171773Y-86050196D01*
X51147505Y-86053796D01*
X51123001Y-86055000D01*
X50222999Y-86055000D01*
X50198495Y-86053796D01*
X50174227Y-86050196D01*
X50150428Y-86044235D01*
X50127329Y-86035970D01*
X50105150Y-86025480D01*
X50084107Y-86012868D01*
X50064401Y-85998253D01*
X50046223Y-85981777D01*
X50029747Y-85963599D01*
X50015132Y-85943893D01*
X50002520Y-85922850D01*
X49992030Y-85900671D01*
X49983765Y-85877572D01*
X49977804Y-85853773D01*
X49974204Y-85829505D01*
X49973000Y-85805001D01*
X49973000Y-85154999D01*
X49974204Y-85130495D01*
X49977804Y-85106227D01*
X49983765Y-85082428D01*
X49992030Y-85059329D01*
X50002520Y-85037150D01*
X50015132Y-85016107D01*
X50029747Y-84996401D01*
X50046223Y-84978223D01*
X50064401Y-84961747D01*
X50084107Y-84947132D01*
X50105150Y-84934520D01*
X50127329Y-84924030D01*
X50150428Y-84915765D01*
X50174227Y-84909804D01*
X50198495Y-84906204D01*
X50222999Y-84905000D01*
X51123001Y-84905000D01*
X51147505Y-84906204D01*
X51147505Y-84906204D01*
G37*
D12*
X50673000Y-85480000D03*
D11*
G36*
X51147505Y-82856204D02*
X51171773Y-82859804D01*
X51195572Y-82865765D01*
X51218671Y-82874030D01*
X51240850Y-82884520D01*
X51261893Y-82897132D01*
X51281599Y-82911747D01*
X51299777Y-82928223D01*
X51316253Y-82946401D01*
X51330868Y-82966107D01*
X51343480Y-82987150D01*
X51353970Y-83009329D01*
X51362235Y-83032428D01*
X51368196Y-83056227D01*
X51371796Y-83080495D01*
X51373000Y-83104999D01*
X51373000Y-83755001D01*
X51371796Y-83779505D01*
X51368196Y-83803773D01*
X51362235Y-83827572D01*
X51353970Y-83850671D01*
X51343480Y-83872850D01*
X51330868Y-83893893D01*
X51316253Y-83913599D01*
X51299777Y-83931777D01*
X51281599Y-83948253D01*
X51261893Y-83962868D01*
X51240850Y-83975480D01*
X51218671Y-83985970D01*
X51195572Y-83994235D01*
X51171773Y-84000196D01*
X51147505Y-84003796D01*
X51123001Y-84005000D01*
X50222999Y-84005000D01*
X50198495Y-84003796D01*
X50174227Y-84000196D01*
X50150428Y-83994235D01*
X50127329Y-83985970D01*
X50105150Y-83975480D01*
X50084107Y-83962868D01*
X50064401Y-83948253D01*
X50046223Y-83931777D01*
X50029747Y-83913599D01*
X50015132Y-83893893D01*
X50002520Y-83872850D01*
X49992030Y-83850671D01*
X49983765Y-83827572D01*
X49977804Y-83803773D01*
X49974204Y-83779505D01*
X49973000Y-83755001D01*
X49973000Y-83104999D01*
X49974204Y-83080495D01*
X49977804Y-83056227D01*
X49983765Y-83032428D01*
X49992030Y-83009329D01*
X50002520Y-82987150D01*
X50015132Y-82966107D01*
X50029747Y-82946401D01*
X50046223Y-82928223D01*
X50064401Y-82911747D01*
X50084107Y-82897132D01*
X50105150Y-82884520D01*
X50127329Y-82874030D01*
X50150428Y-82865765D01*
X50174227Y-82859804D01*
X50198495Y-82856204D01*
X50222999Y-82855000D01*
X51123001Y-82855000D01*
X51147505Y-82856204D01*
X51147505Y-82856204D01*
G37*
D12*
X50673000Y-83430000D03*
G04 #@! TD*
D13*
G04 #@! TO.C,U1*
X35204000Y-77343000D03*
D14*
X41504000Y-77343000D03*
X41504000Y-75043000D03*
X41504000Y-79643000D03*
G04 #@! TD*
M02*
